<svg width="64" height="110" viewBox="0 0 64 110" fill="none" xmlns="http://www.w3.org/2000/svg">
  <path fill-rule="evenodd" clip-rule="evenodd" d="M50.152 10.6417L31.72 0L13.288 10.6417V24.7942L1 31.8887V53.1722L19.432 63.8139L31.6902 56.7366L31.72 56.7538L31.7498 56.7366L44.008 63.8139L62.44 53.1722V31.8887L50.152 24.7942V10.6417ZM60.52 32.9972L48.232 25.9027V11.7502L31.72 2.21703L15.208 11.7502V25.9028L2.92 32.9972V52.0636L19.432 61.5968L31.6902 54.5196L31.72 54.5368L31.7498 54.5196L44.008 61.5968L60.52 52.0636V32.9972Z" fill="url(#paint0_linear_2250_8152)" />
  <path fill-rule="evenodd" clip-rule="evenodd" d="M50.1521 24.8307L31.7201 14.189L13.2881 24.8307V46.1141L31.7201 56.7558L50.1521 46.1141V24.8307ZM15.2081 25.9392L31.7201 16.406L48.2321 25.9392V45.0056L31.7201 54.5388L15.2081 45.0056V25.9392ZM42.1194 45.4851L34.6366 40.9278V50.2622L21.1932 42.0749V25.8876L28.6761 30.4449V21.1105L42.1194 29.2978V45.4851ZM40.2342 42.1297L34.6366 38.7206V34.075L30.5613 31.593V24.4659L40.2342 30.357V42.1297ZM23.0784 41.0157V29.243L32.7514 35.1341V46.9068L23.0784 41.0157Z" fill="url(#paint1_linear_2250_8152)" />
  <path fill-rule="evenodd" clip-rule="evenodd" d="M5 83.8689V73H10.2577C11.68 73 12.8329 74.153 12.8329 75.5752V76.3563C12.8329 77.0409 12.5658 77.663 12.1302 78.1243C12.9023 78.5689 13.4221 79.4025 13.4221 80.3574V81.2937C13.4221 82.7159 12.2691 83.8689 10.8469 83.8689H5ZM6.14453 77.7822H10.3756C11.1106 77.7223 11.6884 77.1068 11.6884 76.3563V75.5752C11.6884 74.7851 11.0479 74.1445 10.2577 74.1445H6.14453V77.7822ZM6.14453 82.7244V78.9315L10.8469 78.9267C11.637 78.9267 12.2775 79.5673 12.2775 80.3574V81.2937C12.2775 82.0838 11.637 82.7244 10.8469 82.7244H6.14453ZM16.7228 73V83.8689H15.5253V73H16.7228ZM22.6574 75.9348H21.4157C19.9855 75.9348 18.8262 77.0942 18.8262 78.5243V81.2794C18.8262 82.7095 19.9855 83.8689 21.4157 83.8689H22.6574C24.0875 83.8689 25.2469 82.7095 25.2469 81.2794V78.5243C25.2469 77.0942 24.0875 75.9348 22.6574 75.9348ZM21.4156 77.1323C20.6468 77.1323 20.0235 77.7555 20.0235 78.5243V81.2794C20.0235 82.0482 20.6468 82.6714 21.4156 82.6714H22.6573C23.4261 82.6714 24.0493 82.0482 24.0493 81.2794V78.5243C24.0493 77.7555 23.4261 77.1323 22.6573 77.1323H21.4156ZM35.7158 83.8731V79.9631H37.1757L39.4332 83.8731H40.8159L38.2193 79.3756L40.2531 75.8529H38.8704L37.1887 78.7656H35.7158V73H34.5183V83.8731H35.7158ZM31.9401 78.7361V78.5243C31.9401 77.7555 31.3168 77.1323 30.548 77.1323H29.3063C28.5375 77.1323 27.9143 77.7555 27.9143 78.5243V81.2794C27.9143 82.0482 28.5375 82.6714 29.3063 82.6714H30.548C31.3168 82.6714 31.9401 82.0482 31.9401 81.2794V81.0676H33.1375V81.2794C33.1375 82.7095 31.9781 83.8689 30.548 83.8689H29.3063C27.8762 83.8689 26.7168 82.7095 26.7168 81.2794V78.5243C26.7168 77.0942 27.8762 75.9348 29.3063 75.9348H30.548C31.9781 75.9348 33.1375 77.0942 33.1375 78.5243V78.7361H31.9401ZM44.1166 83.8689V73H42.9191V83.8689H44.1166ZM47.5072 80.2289V81.2794C47.5072 82.0482 48.1304 82.6714 48.8992 82.6714H50.1409C50.9097 82.6714 51.533 82.0482 51.533 81.2794V81.0676H52.7305V81.2794C52.7305 82.7095 51.5711 83.8689 50.1409 83.8689H48.8992C47.4691 83.8689 46.3097 82.7095 46.3097 81.2794V78.5243C46.3097 77.0942 47.4691 75.9348 48.8992 75.9348H50.1409C51.5711 75.9348 52.7305 77.0942 52.7305 78.5243L52.7305 79.0315L52.7305 79.7788L52.7305 80.2289H47.5072ZM51.533 79.0315H47.5072V78.5243C47.5072 77.7555 48.1304 77.1323 48.8992 77.1323H50.1409C50.9097 77.1323 51.533 77.7555 51.533 78.5243V79.0315ZM55.2629 77.732H54.197V76.5345H55.2629V74.5993H56.4075V76.5345H59.1777V77.732H56.4075V81.5899C56.4075 82.2165 56.9154 82.7244 57.5419 82.7244C58.1684 82.7244 58.6763 82.2165 58.6763 81.5899V81.3517H59.8208V81.5899C59.8208 82.8486 58.8005 83.8689 57.5419 83.8689C56.2833 83.8689 55.2629 82.8486 55.2629 81.5899V77.732Z" fill="#121319" />
  <path d="M10.2916 98.091C10.8343 98.091 11.3073 98.025 11.7106 97.893C12.1139 97.7537 12.4476 97.5593 12.7116 97.31C12.9829 97.0533 13.1846 96.7453 13.3166 96.386C13.4486 96.0193 13.5146 95.6123 13.5146 95.165C13.5146 94.7397 13.4486 94.3547 13.3166 94.01C13.1846 93.6653 12.9866 93.372 12.7226 93.13C12.4586 92.888 12.1249 92.7047 11.7216 92.58C11.3183 92.448 10.8416 92.382 10.2916 92.382H8.08059V98.091H10.2916ZM10.2916 90.094C11.3549 90.094 12.2753 90.2187 13.0526 90.468C13.8299 90.7173 14.4716 91.0657 14.9776 91.513C15.4836 91.9603 15.8576 92.4957 16.0996 93.119C16.3489 93.7423 16.4736 94.4243 16.4736 95.165C16.4736 95.935 16.3453 96.6427 16.0886 97.288C15.8319 97.926 15.4469 98.476 14.9336 98.938C14.4203 99.4 13.7749 99.7593 12.9976 100.016C12.2276 100.273 11.3256 100.401 10.2916 100.401H8.08059V106H5.12159V90.094H10.2916ZM23.9319 101.182C23.1473 101.219 22.4873 101.288 21.9519 101.391C21.4166 101.486 20.9876 101.611 20.6649 101.765C20.3423 101.919 20.1113 102.099 19.9719 102.304C19.8326 102.509 19.7629 102.733 19.7629 102.975C19.7629 103.452 19.9023 103.793 20.1809 103.998C20.4669 104.203 20.8373 104.306 21.2919 104.306C21.8493 104.306 22.3296 104.207 22.7329 104.009C23.1436 103.804 23.5433 103.496 23.9319 103.085V101.182ZM17.7059 96.287C19.0039 95.099 20.5659 94.505 22.3919 94.505C23.0519 94.505 23.6423 94.615 24.1629 94.835C24.6836 95.0477 25.1236 95.3483 25.4829 95.737C25.8423 96.1183 26.1136 96.5767 26.2969 97.112C26.4876 97.6473 26.5829 98.234 26.5829 98.872V106H25.3509C25.0943 106 24.8963 105.963 24.7569 105.89C24.6176 105.809 24.5076 105.652 24.4269 105.417L24.1849 104.603C23.8989 104.86 23.6203 105.087 23.3489 105.285C23.0776 105.476 22.7953 105.637 22.5019 105.769C22.2086 105.901 21.8933 106 21.5559 106.066C21.2259 106.139 20.8593 106.176 20.4559 106.176C19.9793 106.176 19.5393 106.114 19.1359 105.989C18.7326 105.857 18.3843 105.663 18.0909 105.406C17.7976 105.149 17.5703 104.83 17.4089 104.449C17.2476 104.068 17.1669 103.624 17.1669 103.118C17.1669 102.832 17.2146 102.55 17.3099 102.271C17.4053 101.985 17.5593 101.714 17.7719 101.457C17.9919 101.2 18.2743 100.958 18.6189 100.731C18.9636 100.504 19.3853 100.306 19.8839 100.137C20.3899 99.9683 20.9766 99.8327 21.6439 99.73C22.3113 99.62 23.0739 99.554 23.9319 99.532V98.872C23.9319 98.1167 23.7706 97.5593 23.4479 97.2C23.1253 96.8333 22.6596 96.65 22.0509 96.65C21.6109 96.65 21.2443 96.7013 20.9509 96.804C20.6649 96.9067 20.4119 97.024 20.1919 97.156C19.9719 97.2807 19.7703 97.3943 19.5869 97.497C19.4109 97.5997 19.2129 97.651 18.9929 97.651C18.8023 97.651 18.6409 97.6033 18.5089 97.508C18.3769 97.4053 18.2706 97.288 18.1899 97.156L17.7059 96.287ZM33.2668 100.082C33.6041 100.082 33.8975 100.038 34.1468 99.95C34.3961 99.8547 34.6015 99.7263 34.7628 99.565C34.9315 99.4037 35.0561 99.2093 35.1368 98.982C35.2248 98.7547 35.2688 98.5053 35.2688 98.234C35.2688 97.6767 35.1001 97.2367 34.7628 96.914C34.4328 96.584 33.9341 96.419 33.2668 96.419C32.5995 96.419 32.0971 96.584 31.7598 96.914C31.4298 97.2367 31.2648 97.6767 31.2648 98.234C31.2648 98.498 31.3051 98.7437 31.3858 98.971C31.4738 99.1983 31.5985 99.3963 31.7598 99.565C31.9285 99.7263 32.1375 99.8547 32.3868 99.95C32.6435 100.038 32.9368 100.082 33.2668 100.082ZM36.3358 106.506C36.3358 106.286 36.2698 106.106 36.1378 105.967C36.0058 105.828 35.8261 105.721 35.5988 105.648C35.3715 105.567 35.1038 105.509 34.7958 105.472C34.4951 105.435 34.1725 105.41 33.8278 105.395C33.4905 105.373 33.1385 105.355 32.7718 105.34C32.4125 105.325 32.0605 105.296 31.7158 105.252C31.4151 105.421 31.1695 105.619 30.9788 105.846C30.7955 106.073 30.7038 106.337 30.7038 106.638C30.7038 106.836 30.7515 107.019 30.8468 107.188C30.9495 107.364 31.1071 107.514 31.3198 107.639C31.5398 107.764 31.8221 107.859 32.1668 107.925C32.5115 107.998 32.9331 108.035 33.4318 108.035C33.9378 108.035 34.3741 107.995 34.7408 107.914C35.1075 107.841 35.4081 107.734 35.6428 107.595C35.8848 107.463 36.0608 107.302 36.1708 107.111C36.2808 106.928 36.3358 106.726 36.3358 106.506ZM39.0418 95.099V96.111C39.0418 96.4337 38.8475 96.6317 38.4588 96.705L37.4468 96.892C37.6008 97.2807 37.6778 97.706 37.6778 98.168C37.6778 98.7253 37.5641 99.2313 37.3368 99.686C37.1168 100.133 36.8088 100.515 36.4128 100.83C36.0168 101.145 35.5475 101.391 35.0048 101.567C34.4695 101.736 33.8901 101.82 33.2668 101.82C33.0468 101.82 32.8341 101.809 32.6288 101.787C32.4235 101.765 32.2218 101.736 32.0238 101.699C31.6718 101.912 31.4958 102.15 31.4958 102.414C31.4958 102.641 31.5985 102.81 31.8038 102.92C32.0165 103.023 32.2951 103.096 32.6398 103.14C32.9845 103.184 33.3768 103.213 33.8168 103.228C34.2568 103.235 34.7078 103.257 35.1698 103.294C35.6318 103.331 36.0828 103.397 36.5228 103.492C36.9628 103.58 37.3551 103.723 37.6998 103.921C38.0445 104.119 38.3195 104.39 38.5248 104.735C38.7375 105.072 38.8438 105.509 38.8438 106.044C38.8438 106.543 38.7191 107.027 38.4698 107.496C38.2278 107.965 37.8721 108.383 37.4028 108.75C36.9408 109.117 36.3688 109.41 35.6868 109.63C35.0121 109.857 34.2421 109.971 33.3768 109.971C32.5261 109.971 31.7855 109.887 31.1548 109.718C30.5241 109.557 29.9998 109.337 29.5818 109.058C29.1638 108.787 28.8521 108.471 28.6468 108.112C28.4415 107.753 28.3388 107.379 28.3388 106.99C28.3388 106.462 28.4965 106.022 28.8118 105.67C29.1345 105.311 29.5745 105.025 30.1318 104.812C29.8311 104.658 29.5928 104.453 29.4168 104.196C29.2408 103.939 29.1528 103.602 29.1528 103.184C29.1528 103.015 29.1821 102.843 29.2408 102.667C29.3068 102.484 29.3985 102.304 29.5158 102.128C29.6405 101.952 29.7945 101.787 29.9778 101.633C30.1611 101.472 30.3775 101.329 30.6268 101.204C30.0548 100.896 29.6038 100.485 29.2738 99.972C28.9511 99.4587 28.7898 98.8573 28.7898 98.168C28.7898 97.6107 28.8998 97.1083 29.1198 96.661C29.3471 96.2063 29.6588 95.8213 30.0548 95.506C30.4581 95.1833 30.9311 94.9377 31.4738 94.769C32.0238 94.6003 32.6215 94.516 33.2668 94.516C33.7508 94.516 34.2055 94.5673 34.6308 94.67C35.0561 94.7653 35.4448 94.9083 35.7968 95.099H39.0418ZM47.8425 99.059C47.8425 98.707 47.7912 98.377 47.6885 98.069C47.5932 97.7537 47.4465 97.4787 47.2485 97.244C47.0505 97.0093 46.7975 96.826 46.4895 96.694C46.1888 96.5547 45.8368 96.485 45.4335 96.485C44.6488 96.485 44.0292 96.7087 43.5745 97.156C43.1272 97.6033 42.8412 98.2377 42.7165 99.059H47.8425ZM42.6615 100.698C42.7055 101.277 42.8082 101.78 42.9695 102.205C43.1308 102.623 43.3435 102.971 43.6075 103.25C43.8715 103.521 44.1832 103.727 44.5425 103.866C44.9092 103.998 45.3125 104.064 45.7525 104.064C46.1925 104.064 46.5702 104.013 46.8855 103.91C47.2082 103.807 47.4868 103.694 47.7215 103.569C47.9635 103.444 48.1725 103.331 48.3485 103.228C48.5318 103.125 48.7078 103.074 48.8765 103.074C49.1038 103.074 49.2725 103.158 49.3825 103.327L50.1635 104.317C49.8628 104.669 49.5255 104.966 49.1515 105.208C48.7775 105.443 48.3852 105.633 47.9745 105.78C47.5712 105.919 47.1568 106.018 46.7315 106.077C46.3135 106.136 45.9065 106.165 45.5105 106.165C44.7258 106.165 43.9962 106.037 43.3215 105.78C42.6468 105.516 42.0602 105.131 41.5615 104.625C41.0628 104.112 40.6705 103.481 40.3845 102.733C40.0985 101.978 39.9555 101.105 39.9555 100.115C39.9555 99.345 40.0802 98.6227 40.3295 97.948C40.5788 97.266 40.9345 96.6757 41.3965 96.177C41.8658 95.671 42.4342 95.2713 43.1015 94.978C43.7762 94.6847 44.5352 94.538 45.3785 94.538C46.0898 94.538 46.7462 94.6517 47.3475 94.879C47.9488 95.1063 48.4658 95.44 48.8985 95.88C49.3312 96.3127 49.6685 96.848 49.9105 97.486C50.1598 98.1167 50.2845 98.839 50.2845 99.653C50.2845 100.064 50.2405 100.342 50.1525 100.489C50.0645 100.628 49.8958 100.698 49.6465 100.698H42.6615ZM59.2094 96.914C59.1361 97.0313 59.0591 97.1157 58.9784 97.167C58.8978 97.211 58.7951 97.233 58.6704 97.233C58.5384 97.233 58.3954 97.1963 58.2414 97.123C58.0948 97.0497 57.9224 96.969 57.7244 96.881C57.5264 96.7857 57.2991 96.7013 57.0424 96.628C56.7931 96.5547 56.4961 96.518 56.1514 96.518C55.6161 96.518 55.1944 96.6317 54.8864 96.859C54.5858 97.0863 54.4354 97.3833 54.4354 97.75C54.4354 97.992 54.5124 98.1973 54.6664 98.366C54.8278 98.5273 55.0368 98.6703 55.2934 98.795C55.5574 98.9197 55.8544 99.0333 56.1844 99.136C56.5144 99.2313 56.8481 99.3377 57.1854 99.455C57.5301 99.5723 57.8674 99.708 58.1974 99.862C58.5274 100.009 58.8208 100.199 59.0774 100.434C59.3414 100.661 59.5504 100.936 59.7044 101.259C59.8658 101.582 59.9464 101.97 59.9464 102.425C59.9464 102.968 59.8474 103.47 59.6494 103.932C59.4588 104.387 59.1728 104.783 58.7914 105.12C58.4101 105.45 57.9371 105.71 57.3724 105.901C56.8151 106.084 56.1698 106.176 55.4364 106.176C55.0478 106.176 54.6664 106.139 54.2924 106.066C53.9258 106 53.5701 105.905 53.2254 105.78C52.8881 105.655 52.5728 105.509 52.2794 105.34C51.9934 105.171 51.7404 104.988 51.5204 104.79L52.1474 103.756C52.2281 103.631 52.3234 103.536 52.4334 103.47C52.5434 103.404 52.6828 103.371 52.8514 103.371C53.0201 103.371 53.1778 103.419 53.3244 103.514C53.4784 103.609 53.6544 103.712 53.8524 103.822C54.0504 103.932 54.2814 104.035 54.5454 104.13C54.8168 104.225 55.1578 104.273 55.5684 104.273C55.8911 104.273 56.1661 104.236 56.3934 104.163C56.6281 104.082 56.8188 103.98 56.9654 103.855C57.1194 103.73 57.2294 103.587 57.2954 103.426C57.3688 103.257 57.4054 103.085 57.4054 102.909C57.4054 102.645 57.3248 102.429 57.1634 102.26C57.0094 102.091 56.8004 101.945 56.5364 101.82C56.2798 101.695 55.9828 101.585 55.6454 101.49C55.3154 101.387 54.9744 101.277 54.6224 101.16C54.2778 101.043 53.9368 100.907 53.5994 100.753C53.2694 100.592 52.9724 100.39 52.7084 100.148C52.4518 99.906 52.2428 99.609 52.0814 99.257C51.9274 98.905 51.8504 98.4797 51.8504 97.981C51.8504 97.519 51.9421 97.079 52.1254 96.661C52.3088 96.243 52.5764 95.88 52.9284 95.572C53.2878 95.2567 53.7314 95.0073 54.2594 94.824C54.7948 94.6333 55.4108 94.538 56.1074 94.538C56.8848 94.538 57.5924 94.6663 58.2304 94.923C58.8684 95.1797 59.4001 95.517 59.8254 95.935L59.2094 96.914Z" fill="#121319" />
  <defs>
    <linearGradient id="paint0_linear_2250_8152" x1="36.3543" y1="-77.937" x2="-72.9329" y2="15.4692" gradientUnits="userSpaceOnUse">
      <stop stop-color="#6BBDFE" />
      <stop offset="0.49561" stop-color="#4495F2" />
      <stop offset="1" stop-color="#2482F6" />
    </linearGradient>
    <linearGradient id="paint1_linear_2250_8152" x1="34.5006" y1="-37.7987" x2="-36.8197" y2="17.0308" gradientUnits="userSpaceOnUse">
      <stop stop-color="#6BBDFE" />
      <stop offset="0.49561" stop-color="#4495F2" />
      <stop offset="1" stop-color="#2482F6" />
    </linearGradient>
  </defs>
</svg>
