<svg width="64" height="64" viewBox="0 0 64 64" fill="none" xmlns="http://www.w3.org/2000/svg">
  <path fill-rule="evenodd" clip-rule="evenodd" d="M50.152 10.6417L31.72 0L13.288 10.6417V24.7942L1 31.8887V53.1722L19.432 63.8139L31.6902 56.7366L31.72 56.7538L31.7498 56.7366L44.008 63.8139L62.44 53.1722V31.8887L50.152 24.7942V10.6417ZM60.52 32.9972L48.232 25.9027V11.7502L31.72 2.21703L15.208 11.7502V25.9028L2.92 32.9972V52.0636L19.432 61.5968L31.6902 54.5196L31.72 54.5368L31.7498 54.5196L44.008 61.5968L60.52 52.0636V32.9972Z" fill="url(#paint0_linear_2268_8664)" />
  <path fill-rule="evenodd" clip-rule="evenodd" d="M50.1521 24.8307L31.7201 14.189L13.2881 24.8307V46.1141L31.7201 56.7558L50.1521 46.1141V24.8307ZM15.2081 25.9392L31.7201 16.406L48.2321 25.9392V45.0056L31.7201 54.5388L15.2081 45.0056V25.9392ZM42.1194 45.4851L34.6366 40.9278V50.2622L21.1932 42.0749V25.8876L28.6761 30.4449V21.1105L42.1194 29.2978V45.4851ZM40.2342 42.1297L34.6366 38.7206V34.075L30.5613 31.593V24.4659L40.2342 30.357V42.1297ZM23.0784 41.0157V29.243L32.7514 35.1341V46.9068L23.0784 41.0157Z" fill="url(#paint1_linear_2268_8664)" />
  <defs>
    <linearGradient id="paint0_linear_2268_8664" x1="36.3543" y1="-77.937" x2="-72.9329" y2="15.4692" gradientUnits="userSpaceOnUse">
      <stop stop-color="#6BBDFE" />
      <stop offset="0.49561" stop-color="#4495F2" />
      <stop offset="1" stop-color="#2482F6" />
    </linearGradient>
    <linearGradient id="paint1_linear_2268_8664" x1="34.5006" y1="-37.7987" x2="-36.8197" y2="17.0308" gradientUnits="userSpaceOnUse">
      <stop stop-color="#6BBDFE" />
      <stop offset="0.49561" stop-color="#4495F2" />
      <stop offset="1" stop-color="#2482F6" />
    </linearGradient>
  </defs>
</svg>
