<svg width="161" height="64" viewBox="0 0 161 64" fill="none" xmlns="http://www.w3.org/2000/svg">
<path fill-rule="evenodd" clip-rule="evenodd" d="M80.0049 26.0698V10.0293H87.7418C89.8347 10.0293 91.5313 11.7309 91.5313 13.8298V14.9826C91.5313 15.9929 91.1382 16.9111 90.4972 17.5918C91.6333 18.248 92.3982 19.4782 92.3982 20.8875V22.2693C92.3982 24.3683 90.7016 26.0698 88.6087 26.0698H80.0049ZM81.6893 17.087H87.9154C88.997 16.9985 89.8473 16.0902 89.8473 14.9826V13.8298C89.8473 12.6637 88.9047 11.7184 87.742 11.7184H81.6893V17.087ZM81.6893 24.3807V18.7832L88.609 18.7761C89.7717 18.7761 90.7142 19.7215 90.7142 20.8875V22.2693C90.7142 23.4354 89.7717 24.3807 88.609 24.3807H81.6893ZM97.2554 10.0293V26.0698H95.4933V10.0293H97.2554ZM105.988 14.3605H104.161C102.056 14.3605 100.35 16.0716 100.35 18.1822V22.2481C100.35 24.3588 102.056 26.0698 104.161 26.0698H105.988C108.092 26.0698 109.799 24.3588 109.799 22.2481V18.1822C109.799 16.0716 108.092 14.3605 105.988 14.3605ZM104.161 16.1278C103.03 16.1278 102.112 17.0476 102.112 18.1823V22.2482C102.112 23.3828 103.03 24.3026 104.161 24.3026H105.988C107.119 24.3026 108.036 23.3828 108.036 22.2482V18.1823C108.036 17.0476 107.119 16.1278 105.988 16.1278H104.161ZM125.204 26.076V20.3056H127.352L130.674 26.076H132.709L128.888 19.4386L131.881 14.2396H129.846L127.372 18.5384H125.204V10.0293H123.442V26.076H125.204ZM119.648 18.4948V18.1822C119.648 17.0476 118.731 16.1278 117.6 16.1278H115.773C114.641 16.1278 113.724 17.0476 113.724 18.1822V22.2481C113.724 23.3828 114.641 24.3026 115.773 24.3026H117.6C118.731 24.3026 119.648 23.3828 119.648 22.2481V21.9356H121.41V22.2481C121.41 24.3588 119.704 26.0698 117.6 26.0698H115.773C113.668 26.0698 111.962 24.3588 111.962 22.2481V18.1822C111.962 16.0716 113.668 14.3605 115.773 14.3605H117.6C119.704 14.3605 121.41 16.0716 121.41 18.1822V18.4948H119.648ZM137.566 26.0698V10.0293H135.804V26.0698H137.566ZM142.555 20.6978V22.2481C142.555 23.3828 143.472 24.3026 144.604 24.3026H146.431C147.562 24.3026 148.479 23.3828 148.479 22.2481V21.9356H150.241V22.2481C150.241 24.3588 148.535 26.0698 146.431 26.0698H144.604C142.499 26.0698 140.793 24.3588 140.793 22.2481V18.1822C140.793 16.0716 142.499 14.3605 144.604 14.3605H146.431C148.535 14.3605 150.241 16.0716 150.241 18.1822V18.9306H150.242V20.6978H142.555ZM148.479 18.9306H142.555V18.1822C142.555 17.0476 143.472 16.1278 144.604 16.1278H146.431C147.562 16.1278 148.479 17.0476 148.479 18.1822V18.9306ZM153.968 17.0128H152.4V15.2456H153.968V12.3896H155.652V15.2456H159.729V17.0128H155.652V22.7065C155.652 23.6311 156.399 24.3807 157.321 24.3807C158.243 24.3807 158.991 23.6311 158.991 22.7065V22.3549H160.675V22.7065C160.675 24.564 159.174 26.0698 157.321 26.0698C155.469 26.0698 153.968 24.564 153.968 22.7065V17.0128Z" fill="#121319"/>
<path d="M86.8339 43.0159C87.5246 43.0159 88.1266 42.9319 88.6399 42.7639C89.1532 42.5866 89.5779 42.3392 89.9139 42.0219C90.2592 41.6952 90.5159 41.3032 90.6839 40.8459C90.8519 40.3792 90.9359 39.8612 90.9359 39.2919C90.9359 38.7506 90.8519 38.2606 90.6839 37.8219C90.5159 37.3832 90.2639 37.0099 89.9279 36.7019C89.5919 36.3939 89.1672 36.1606 88.6539 36.0019C88.1406 35.8339 87.5339 35.7499 86.8339 35.7499H84.0199V43.0159H86.8339ZM86.8339 32.8379C88.1872 32.8379 89.3586 32.9966 90.3479 33.3139C91.3372 33.6312 92.1539 34.0746 92.7979 34.6439C93.4419 35.2132 93.9179 35.8946 94.2259 36.6879C94.5432 37.4812 94.7019 38.3492 94.7019 39.2919C94.7019 40.2719 94.5386 41.1726 94.2119 41.9939C93.8852 42.8059 93.3952 43.5059 92.7419 44.0939C92.0886 44.6819 91.2672 45.1392 90.2779 45.4659C89.2979 45.7926 88.1499 45.9559 86.8339 45.9559H84.0199V53.0819H80.2539V32.8379H86.8339Z" fill="#121319"/>
<path d="M104.194 46.9499C103.196 46.9966 102.356 47.0852 101.674 47.2159C100.993 47.3372 100.447 47.4959 100.036 47.6919C99.6257 47.8879 99.3317 48.1166 99.1543 48.3779C98.977 48.6392 98.8883 48.9239 98.8883 49.2319C98.8883 49.8386 99.0657 50.2726 99.4203 50.5339C99.7843 50.7952 100.256 50.9259 100.834 50.9259C101.544 50.9259 102.155 50.7999 102.668 50.5479C103.191 50.2866 103.7 49.8946 104.194 49.3719V46.9499ZM96.2703 40.7199C97.9223 39.2079 99.9103 38.4519 102.234 38.4519C103.074 38.4519 103.826 38.5919 104.488 38.8719C105.151 39.1426 105.711 39.5252 106.168 40.0199C106.626 40.5052 106.971 41.0886 107.204 41.7699C107.447 42.4512 107.568 43.1979 107.568 44.0099V53.0819H106C105.674 53.0819 105.422 53.0352 105.244 52.9419C105.067 52.8392 104.927 52.6386 104.824 52.3399L104.516 51.3039C104.152 51.6306 103.798 51.9199 103.452 52.1719C103.107 52.4146 102.748 52.6199 102.374 52.7879C102.001 52.9559 101.6 53.0819 101.17 53.1659C100.75 53.2592 100.284 53.3059 99.7703 53.3059C99.1637 53.3059 98.6037 53.2266 98.0903 53.0679C97.577 52.8999 97.1337 52.6526 96.7603 52.3259C96.387 51.9992 96.0977 51.5932 95.8923 51.1079C95.687 50.6226 95.5843 50.0579 95.5843 49.4139C95.5843 49.0499 95.645 48.6906 95.7663 48.3359C95.8877 47.9719 96.0837 47.6266 96.3543 47.2999C96.6343 46.9732 96.9937 46.6652 97.4323 46.3759C97.871 46.0866 98.4077 45.8346 99.0423 45.6199C99.6863 45.4052 100.433 45.2326 101.282 45.1019C102.132 44.9619 103.102 44.8779 104.194 44.8499V44.0099C104.194 43.0486 103.989 42.3392 103.578 41.8819C103.168 41.4152 102.575 41.1819 101.8 41.1819C101.24 41.1819 100.774 41.2472 100.4 41.3779C100.036 41.5086 99.7143 41.6579 99.4343 41.8259C99.1543 41.9846 98.8977 42.1292 98.6643 42.2599C98.4403 42.3906 98.1883 42.4559 97.9083 42.4559C97.6657 42.4559 97.4603 42.3952 97.2923 42.2739C97.1243 42.1432 96.989 41.9939 96.8863 41.8259L96.2703 40.7199Z" fill="#121319"/>
<path d="M116.075 45.5499C116.504 45.5499 116.878 45.4939 117.195 45.3819C117.512 45.2606 117.774 45.0972 117.979 44.8919C118.194 44.6866 118.352 44.4392 118.455 44.1499C118.567 43.8606 118.623 43.5432 118.623 43.1979C118.623 42.4886 118.408 41.9286 117.979 41.5179C117.559 41.0979 116.924 40.8879 116.075 40.8879C115.226 40.8879 114.586 41.0979 114.157 41.5179C113.737 41.9286 113.527 42.4886 113.527 43.1979C113.527 43.5339 113.578 43.8466 113.681 44.1359C113.793 44.4252 113.952 44.6772 114.157 44.8919C114.372 45.0972 114.638 45.2606 114.955 45.3819C115.282 45.4939 115.655 45.5499 116.075 45.5499ZM119.981 53.7259C119.981 53.4459 119.897 53.2172 119.729 53.0399C119.561 52.8626 119.332 52.7272 119.043 52.6339C118.754 52.5312 118.413 52.4566 118.021 52.4099C117.638 52.3632 117.228 52.3306 116.789 52.3119C116.36 52.2839 115.912 52.2606 115.445 52.2419C114.988 52.2232 114.54 52.1859 114.101 52.1299C113.718 52.3446 113.406 52.5966 113.163 52.8859C112.93 53.1752 112.813 53.5112 112.813 53.8939C112.813 54.1459 112.874 54.3792 112.995 54.5939C113.126 54.8179 113.326 55.0092 113.597 55.1679C113.877 55.3266 114.236 55.4479 114.675 55.5319C115.114 55.6252 115.65 55.6719 116.285 55.6719C116.929 55.6719 117.484 55.6206 117.951 55.5179C118.418 55.4246 118.8 55.2892 119.099 55.1119C119.407 54.9439 119.631 54.7386 119.771 54.4959C119.911 54.2626 119.981 54.0059 119.981 53.7259ZM123.425 39.2079V40.4959C123.425 40.9066 123.178 41.1586 122.683 41.2519L121.395 41.4899C121.591 41.9846 121.689 42.5259 121.689 43.1139C121.689 43.8232 121.544 44.4672 121.255 45.0459C120.975 45.6152 120.583 46.1006 120.079 46.5019C119.575 46.9032 118.978 47.2159 118.287 47.4399C117.606 47.6546 116.868 47.7619 116.075 47.7619C115.795 47.7619 115.524 47.7479 115.263 47.7199C115.002 47.6919 114.745 47.6546 114.493 47.6079C114.045 47.8786 113.821 48.1819 113.821 48.5179C113.821 48.8072 113.952 49.0219 114.213 49.1619C114.484 49.2926 114.838 49.3859 115.277 49.4419C115.716 49.4979 116.215 49.5352 116.775 49.5539C117.335 49.5632 117.909 49.5912 118.497 49.6379C119.085 49.6846 119.659 49.7686 120.219 49.8899C120.779 50.0019 121.278 50.1839 121.717 50.4359C122.156 50.6879 122.506 51.0332 122.767 51.4719C123.038 51.9012 123.173 52.4566 123.173 53.1379C123.173 53.7726 123.014 54.3886 122.697 54.9859C122.389 55.5832 121.936 56.1152 121.339 56.5819C120.751 57.0486 120.023 57.4219 119.155 57.7019C118.296 57.9912 117.316 58.1359 116.215 58.1359C115.132 58.1359 114.19 58.0286 113.387 57.8139C112.584 57.6086 111.917 57.3286 111.385 56.9739C110.853 56.6286 110.456 56.2272 110.195 55.7699C109.934 55.3126 109.803 54.8366 109.803 54.3419C109.803 53.6699 110.004 53.1099 110.405 52.6619C110.816 52.2046 111.376 51.8406 112.085 51.5699C111.702 51.3739 111.399 51.1126 111.175 50.7859C110.951 50.4592 110.839 50.0299 110.839 49.4979C110.839 49.2832 110.876 49.0639 110.951 48.8399C111.035 48.6066 111.152 48.3779 111.301 48.1539C111.46 47.9299 111.656 47.7199 111.889 47.5239C112.122 47.3186 112.398 47.1366 112.715 46.9779C111.987 46.5859 111.413 46.0632 110.993 45.4099C110.582 44.7566 110.377 43.9912 110.377 43.1139C110.377 42.4046 110.517 41.7652 110.797 41.1959C111.086 40.6172 111.483 40.1272 111.987 39.7259C112.5 39.3152 113.102 39.0026 113.793 38.7879C114.493 38.5732 115.254 38.4659 116.075 38.4659C116.691 38.4659 117.27 38.5312 117.811 38.6619C118.352 38.7832 118.847 38.9652 119.295 39.2079H123.425Z" fill="#121319"/>
<path d="M134.626 44.2479C134.626 43.7999 134.561 43.3799 134.43 42.9879C134.309 42.5866 134.122 42.2366 133.87 41.9379C133.618 41.6392 133.296 41.4059 132.904 41.2379C132.521 41.0606 132.073 40.9719 131.56 40.9719C130.561 40.9719 129.773 41.2566 129.194 41.8259C128.625 42.3952 128.261 43.2026 128.102 44.2479H134.626ZM128.032 46.3339C128.088 47.0712 128.219 47.7106 128.424 48.2519C128.629 48.7839 128.9 49.2272 129.236 49.5819C129.572 49.9272 129.969 50.1886 130.426 50.3659C130.893 50.5339 131.406 50.6179 131.966 50.6179C132.526 50.6179 133.007 50.5526 133.408 50.4219C133.819 50.2912 134.173 50.1466 134.472 49.9879C134.78 49.8292 135.046 49.6846 135.27 49.5539C135.503 49.4232 135.727 49.3579 135.942 49.3579C136.231 49.3579 136.446 49.4652 136.586 49.6799L137.58 50.9399C137.197 51.3879 136.768 51.7659 136.292 52.0739C135.816 52.3726 135.317 52.6152 134.794 52.8019C134.281 52.9792 133.753 53.1052 133.212 53.1799C132.68 53.2546 132.162 53.2919 131.658 53.2919C130.659 53.2919 129.731 53.1286 128.872 52.8019C128.013 52.4659 127.267 51.9759 126.632 51.3319C125.997 50.6786 125.498 49.8759 125.134 48.9239C124.77 47.9626 124.588 46.8519 124.588 45.5919C124.588 44.6119 124.747 43.6926 125.064 42.8339C125.381 41.9659 125.834 41.2146 126.422 40.5799C127.019 39.9359 127.743 39.4272 128.592 39.0539C129.451 38.6806 130.417 38.4939 131.49 38.4939C132.395 38.4939 133.231 38.6386 133.996 38.9279C134.761 39.2172 135.419 39.6419 135.97 40.2019C136.521 40.7526 136.95 41.4339 137.258 42.2459C137.575 43.0486 137.734 43.9679 137.734 45.0039C137.734 45.5266 137.678 45.8812 137.566 46.0679C137.454 46.2452 137.239 46.3339 136.922 46.3339H128.032Z" fill="#121319"/>
<path d="M149.093 41.5179C149 41.6672 148.902 41.7746 148.799 41.8399C148.696 41.8959 148.566 41.9239 148.407 41.9239C148.239 41.9239 148.057 41.8772 147.861 41.7839C147.674 41.6906 147.455 41.5879 147.203 41.4759C146.951 41.3546 146.662 41.2472 146.335 41.1539C146.018 41.0606 145.64 41.0139 145.201 41.0139C144.52 41.0139 143.983 41.1586 143.591 41.4479C143.208 41.7372 143.017 42.1152 143.017 42.5819C143.017 42.8899 143.115 43.1512 143.311 43.3659C143.516 43.5712 143.782 43.7532 144.109 43.9119C144.445 44.0706 144.823 44.2152 145.243 44.3459C145.663 44.4672 146.088 44.6026 146.517 44.7519C146.956 44.9012 147.385 45.0739 147.805 45.2699C148.225 45.4566 148.598 45.6992 148.925 45.9979C149.261 46.2872 149.527 46.6372 149.723 47.0479C149.928 47.4586 150.031 47.9532 150.031 48.5319C150.031 49.2226 149.905 49.8619 149.653 50.4499C149.41 51.0286 149.046 51.5326 148.561 51.9619C148.076 52.3819 147.474 52.7132 146.755 52.9559C146.046 53.1892 145.224 53.3059 144.291 53.3059C143.796 53.3059 143.311 53.2592 142.835 53.1659C142.368 53.0819 141.916 52.9606 141.477 52.8019C141.048 52.6432 140.646 52.4566 140.273 52.2419C139.909 52.0272 139.587 51.7939 139.307 51.5419L140.105 50.2259C140.208 50.0672 140.329 49.9459 140.469 49.8619C140.609 49.7779 140.786 49.7359 141.001 49.7359C141.216 49.7359 141.416 49.7966 141.603 49.9179C141.799 50.0392 142.023 50.1699 142.275 50.3099C142.527 50.4499 142.821 50.5806 143.157 50.7019C143.502 50.8232 143.936 50.8839 144.459 50.8839C144.87 50.8839 145.22 50.8372 145.509 50.7439C145.808 50.6412 146.05 50.5106 146.237 50.3519C146.433 50.1932 146.573 50.0112 146.657 49.8059C146.75 49.5912 146.797 49.3719 146.797 49.1479C146.797 48.8119 146.694 48.5366 146.489 48.3219C146.293 48.1072 146.027 47.9206 145.691 47.7619C145.364 47.6032 144.986 47.4632 144.557 47.3419C144.137 47.2112 143.703 47.0712 143.255 46.9219C142.816 46.7726 142.382 46.5999 141.953 46.4039C141.533 46.1986 141.155 45.9419 140.819 45.6339C140.492 45.3259 140.226 44.9479 140.021 44.4999C139.825 44.0519 139.727 43.5106 139.727 42.8759C139.727 42.2879 139.844 41.7279 140.077 41.1959C140.31 40.6639 140.651 40.2019 141.099 39.8099C141.556 39.4086 142.121 39.0912 142.793 38.8579C143.474 38.6152 144.258 38.4939 145.145 38.4939C146.134 38.4939 147.035 38.6572 147.847 38.9839C148.659 39.3106 149.336 39.7399 149.877 40.2719L149.093 41.5179Z" fill="#121319"/>
<path fill-rule="evenodd" clip-rule="evenodd" d="M50.152 10.6417L31.72 0L13.288 10.6417V24.7942L1 31.8887V53.1722L19.432 63.8139L31.6902 56.7366L31.72 56.7538L31.7498 56.7366L44.008 63.8139L62.44 53.1722V31.8887L50.152 24.7942V10.6417ZM60.52 32.9972L48.232 25.9027V11.7502L31.72 2.21703L15.208 11.7502V25.9028L2.92 32.9972V52.0636L19.432 61.5968L31.6902 54.5196L31.72 54.5368L31.7498 54.5196L44.008 61.5968L60.52 52.0636V32.9972Z" fill="url(#paint0_linear_2165_6435)"/>
<path fill-rule="evenodd" clip-rule="evenodd" d="M50.1521 24.8307L31.7201 14.189L13.2881 24.8307V46.1141L31.7201 56.7558L50.1521 46.1141V24.8307ZM15.2081 25.9392L31.7201 16.406L48.2321 25.9392V45.0056L31.7201 54.5388L15.2081 45.0056V25.9392ZM42.1194 45.4851L34.6366 40.9278V50.2622L21.1932 42.0749V25.8876L28.6761 30.4449V21.1105L42.1194 29.2978V45.4851ZM40.2342 42.1297L34.6366 38.7206V34.075L30.5613 31.593V24.4659L40.2342 30.357V42.1297ZM23.0784 41.0157V29.243L32.7514 35.1341V46.9068L23.0784 41.0157Z" fill="url(#paint1_linear_2165_6435)"/>
<defs>
<linearGradient id="paint0_linear_2165_6435" x1="36.3543" y1="-77.937" x2="-72.9329" y2="15.4692" gradientUnits="userSpaceOnUse">
<stop stop-color="#6BBDFE"/>
<stop offset="0.49561" stop-color="#4495F2"/>
<stop offset="1" stop-color="#2482F6"/>
</linearGradient>
<linearGradient id="paint1_linear_2165_6435" x1="34.5006" y1="-37.7987" x2="-36.8197" y2="17.0308" gradientUnits="userSpaceOnUse">
<stop stop-color="#6BBDFE"/>
<stop offset="0.49561" stop-color="#4495F2"/>
<stop offset="1" stop-color="#2482F6"/>
</linearGradient>
</defs>
</svg>
