<svg version="1.1" xmlns="http://www.w3.org/2000/svg" viewBox="0 0 972.6574096679688 499.87535858154297" width="1945.3148193359375" height="999.7507171630859">
  <!-- svg-source:excalidraw -->
  
  <rect x="0" y="0" width="972.6574096679688" height="499.87535858154297" fill="#ffffff"></rect><g transform="translate(505.36114501953125 10.177978515625) rotate(0 66 10)"><text x="0" y="16" font-family="Cascadia, Segoe UI Emoji" font-size="16px" fill="#000000" text-anchor="start" style="white-space: pre;" direction="ltr">Blocklet Store</text></g><g transform="translate(810.3228149414062 12.12939453125) rotate(0 66 10)"><text x="0" y="16" font-family="Cascadia, Segoe UI Emoji" font-size="16px" fill="#000000" text-anchor="start" style="white-space: pre;" direction="ltr">ArcBlock Chain</text></g><g transform="translate(215.63055419921875 10) rotate(0 85 10)"><text x="0" y="16" font-family="Cascadia, Segoe UI Emoji" font-size="16px" fill="#000000" text-anchor="start" style="white-space: pre;" direction="ltr">Blocklet Developer</text></g><g transform="translate(26.39251708984375 11.554840087890625) rotate(0 19.5 10)"><text x="0" y="16" font-family="Cascadia, Segoe UI Emoji" font-size="16px" fill="#000000" text-anchor="start" style="white-space: pre;" direction="ltr">User</text></g><g transform="translate(307.15167236328125 79.38800048828125) rotate(0 101.5 11.5)"><text x="0" y="17" font-family="Cascadia, Segoe UI Emoji" font-size="16px" fill="#000000" text-anchor="start" style="white-space: pre;" direction="ltr">1. 为 blocklet 设置价格</text></g><g transform="translate(313.615234375 152.30221557617188) rotate(0 90.5 11.5)"><text x="0" y="17" font-family="Cascadia, Segoe UI Emoji" font-size="16px" fill="#000000" text-anchor="start" style="white-space: pre;" direction="ltr">2. 打包、上传到 Store</text></g><g transform="translate(311.59674072265625 234.90444946289062) rotate(0 175 11.5)"><text x="0" y="17" font-family="Cascadia, Segoe UI Emoji" font-size="16px" fill="#000000" text-anchor="start" style="white-space: pre;" direction="ltr">3. 发布 blocklet (需要创建 NFT Factory)</text></g><g transform="translate(53.34722900390625 346.0211486816406) rotate(0 183 11.5)"><text x="0" y="17" font-family="Cascadia, Segoe UI Emoji" font-size="16px" fill="#000000" text-anchor="start" style="white-space: pre;" direction="ltr">4. 购买 blocklet: 付费并获得 Purchase NFT</text></g><g transform="translate(54.68585205078125 430.3211364746094) rotate(0 159 11.5)"><text x="0" y="17" font-family="Cascadia, Segoe UI Emoji" font-size="16px" fill="#000000" text-anchor="start" style="white-space: pre;" direction="ltr">5. 安装 blocklet: 出示 Purchase NFT</text></g><g stroke-linecap="round"><g transform="translate(10 54.832794189453125) rotate(0 476.3287048339844 0)"><path d="M0 0 C158.78 0, 793.88 0, 952.66 0 M0 0 C158.78 0, 793.88 0, 952.66 0" stroke="#000000" stroke-width="1" fill="none"></path></g></g><g stroke-linecap="round"><g transform="translate(43.85668945312591 57.47930908203125) rotate(0 -4.547473508864641e-13 215.88661193847656)"><path d="M0 0 C0 71.96, 0 359.81, 0 431.77 M0 0 C0 71.96, 0 359.81, 0 431.77" stroke="#000000" stroke-width="1" fill="none"></path></g></g><g stroke-linecap="round"><g transform="translate(581.0807495117197 56.7281494140625) rotate(0 -4.547473508864641e-13 216.41732025146484)"><path d="M0 0 C0 72.14, 0 360.7, 0 432.83 M0 0 C0 72.14, 0 360.7, 0 432.83" stroke="#000000" stroke-width="1" fill="none"></path></g></g><g stroke-linecap="round"><g transform="translate(881.5978393554688 57.04071807861328) rotate(0 -4.547473508864641e-13 216.41732025146484)"><path d="M0 0 C0 72.14, 0 360.7, 0 432.83 M0 0 C0 72.14, 0 360.7, 0 432.83" stroke="#000000" stroke-width="1" fill="none"></path></g></g><g stroke-linecap="round"><g transform="translate(297.05975341796875 56.48242950439453) rotate(0 -4.547473508864641e-13 216.41732025146484)"><path d="M0 0 C0 72.14, 0 360.7, 0 432.83 M0 0 C0 72.14, 0 360.7, 0 432.83" stroke="#000000" stroke-width="1" fill="none"></path></g></g><g stroke-linecap="round"><g transform="translate(299.23565673828125 190.98760986328125) rotate(0 140.989013671875 0)"><path d="M0 0 C47 0, 234.98 0, 281.98 0" stroke="#000000" stroke-width="1.5" fill="none" stroke-dasharray="8 9"></path></g><g transform="translate(299.23565673828125 190.98760986328125) rotate(0 140.989013671875 0)"><path d="M253.79 10.26 C261.91 7.3, 270.04 4.34, 281.98 0" stroke="#000000" stroke-width="1.5" fill="none"></path></g><g transform="translate(299.23565673828125 190.98760986328125) rotate(0 140.989013671875 0)"><path d="M253.79 -10.26 C261.91 -7.3, 270.04 -4.34, 281.98 0" stroke="#000000" stroke-width="1.5" fill="none"></path></g></g><g stroke-linecap="round"><g transform="translate(300.39654541015625 273.8810119628906) rotate(0 140.87164306640625 0)"><path d="M0 0 C46.96 0, 234.79 0, 281.74 0" stroke="#000000" stroke-width="1.5" fill="none" stroke-dasharray="8 9"></path></g><g transform="translate(300.39654541015625 273.8810119628906) rotate(0 140.87164306640625 0)"><path d="M253.55 10.26 C261.83 7.25, 270.1 4.24, 281.74 0" stroke="#000000" stroke-width="1.5" fill="none"></path></g><g transform="translate(300.39654541015625 273.8810119628906) rotate(0 140.87164306640625 0)"><path d="M253.55 -10.26 C261.83 -7.25, 270.1 -4.24, 281.74 0" stroke="#000000" stroke-width="1.5" fill="none"></path></g></g><g stroke-linecap="round"><g transform="translate(299.19549560546875 305.5492248535156) rotate(0 292.1016845703125 0)"><path d="M0 0 C97.37 0, 486.84 0, 584.2 0" stroke="#000000" stroke-width="1.5" fill="none" stroke-dasharray="8 9"></path></g><g transform="translate(299.19549560546875 305.5492248535156) rotate(0 292.1016845703125 0)"><path d="M556.01 10.26 C567.04 6.25, 578.07 2.23, 584.2 0" stroke="#000000" stroke-width="1.5" fill="none"></path></g><g transform="translate(299.19549560546875 305.5492248535156) rotate(0 292.1016845703125 0)"><path d="M556.01 -10.26 C567.04 -6.25, 578.07 -2.23, 584.2 0" stroke="#000000" stroke-width="1.5" fill="none"></path></g></g><g transform="translate(652.5387573242188 262.7294616699219) rotate(0 84.5 21)"><text x="0" y="16" font-family="Cascadia, Segoe UI Emoji" font-size="16px" fill="#000000" text-anchor="start" style="white-space: pre;" direction="ltr">Blocklet Developer</text><text x="0" y="37" font-family="Cascadia, Segoe UI Emoji" font-size="16px" fill="#000000" text-anchor="start" style="white-space: pre;" direction="ltr">创建 NFT Factory</text></g><g stroke-linecap="round"><g transform="translate(46.64697265625 383.0644836425781) rotate(0 267.9285583496094 0)"><path d="M0 0 C89.31 0, 446.55 0, 535.86 0" stroke="#000000" stroke-width="1.5" fill="none" stroke-dasharray="8 9"></path></g><g transform="translate(46.64697265625 383.0644836425781) rotate(0 267.9285583496094 0)"><path d="M507.67 10.26 C518.39 6.36, 529.12 2.45, 535.86 0" stroke="#000000" stroke-width="1.5" fill="none"></path></g><g transform="translate(46.64697265625 383.0644836425781) rotate(0 267.9285583496094 0)"><path d="M507.67 -10.26 C518.39 -6.36, 529.12 -2.45, 535.86 0" stroke="#000000" stroke-width="1.5" fill="none"></path></g></g><g transform="translate(614.1149291992188 373.9425354003906) rotate(0 113.5 22.5)"><text x="0" y="17.5" font-family="Cascadia, Segoe UI Emoji" font-size="16px" fill="#000000" text-anchor="start" style="white-space: pre;" direction="ltr">Store 通过 NFT Factory </text><text x="0" y="40" font-family="Cascadia, Segoe UI Emoji" font-size="16px" fill="#000000" text-anchor="start" style="white-space: pre;" direction="ltr">为 User 创建 Purchase NFT</text></g><g stroke-linecap="round"><g transform="translate(46.38885498046875 466.3863830566406) rotate(0 267.21441650390625 0)"><path d="M0 0 C89.07 0, 445.36 0, 534.43 0" stroke="#000000" stroke-width="1.5" fill="none" stroke-dasharray="8 9"></path></g><g transform="translate(46.38885498046875 466.3863830566406) rotate(0 267.21441650390625 0)"><path d="M506.24 10.26 C516.41 6.56, 526.59 2.85, 534.43 0" stroke="#000000" stroke-width="1.5" fill="none"></path></g><g transform="translate(46.38885498046875 466.3863830566406) rotate(0 267.21441650390625 0)"><path d="M506.24 -10.26 C516.41 -6.56, 526.59 -2.85, 534.43 0" stroke="#000000" stroke-width="1.5" fill="none"></path></g></g><g stroke-linecap="round"><g transform="translate(582.1753540039062 431.0178527832031) rotate(0 148.62591552734375 0)"><path d="M0 0 C49.54 0, 247.71 0, 297.25 0" stroke="#000000" stroke-width="1.5" fill="none" stroke-dasharray="8 9"></path></g><g transform="translate(582.1753540039062 431.0178527832031) rotate(0 148.62591552734375 0)"><path d="M269.06 10.26 C278.82 6.71, 288.57 3.16, 297.25 0" stroke="#000000" stroke-width="1.5" fill="none"></path></g><g transform="translate(582.1753540039062 431.0178527832031) rotate(0 148.62591552734375 0)"><path d="M269.06 -10.26 C278.82 -6.71, 288.57 -3.16, 297.25 0" stroke="#000000" stroke-width="1.5" fill="none"></path></g></g></svg>