<svg version="1.1" xmlns="http://www.w3.org/2000/svg" viewBox="0 0 812.8799438476553 553.0465087890625" width="1625.7598876953107" height="1106.093017578125">
  <!-- svg-source:excalidraw -->
  
  <rect x="0" y="0" width="812.8799438476553" height="553.0465087890625" fill="#ffffff"></rect><g transform="translate(142.8035888671875 150.5556640625) rotate(0 136.5 10)"><text x="0" y="16" font-family="Cascadia, Segoe UI Emoji" font-size="16px" fill="#000000" text-anchor="start" style="white-space: pre;" direction="ltr">Dao Blocklet 1:Passport:Admin</text></g><g transform="translate(585.3921508789062 182.943359375) rotate(0 47.5 10)"><text x="0" y="16" font-family="Cascadia, Segoe UI Emoji" font-size="16px" fill="#000000" text-anchor="start" style="white-space: pre;" direction="ltr">Role:Admin</text></g><g transform="translate(141.471435546875 222.919189453125) rotate(0 141 10)"><text x="0" y="16" font-family="Cascadia, Segoe UI Emoji" font-size="16px" fill="#000000" text-anchor="start" style="white-space: pre;" direction="ltr">Dao Blocklet 1:Passport:Member</text></g><g transform="translate(589.2780151367188 301.206787109375) rotate(0 52 10)"><text x="0" y="16" font-family="Cascadia, Segoe UI Emoji" font-size="16px" fill="#000000" text-anchor="start" style="white-space: pre;" direction="ltr">Role:Member</text></g><g transform="translate(574.2567138671875 31.6871337890625) rotate(0 66 10)"><text x="0" y="16" font-family="Cascadia, Segoe UI Emoji" font-size="16px" fill="#000000" text-anchor="start" style="white-space: pre;" direction="ltr">Dao Blocklet 1</text></g><g transform="translate(10 459.0465087890625) rotate(0 275.5 42)"><text x="0" y="17" font-family="Cascadia, Segoe UI Emoji" font-size="16px" fill="#000000" text-anchor="start" style="white-space: pre;" direction="ltr">- Dao Blocklet 1 信任 Dao Blocklet 2</text><text x="0" y="38" font-family="Cascadia, Segoe UI Emoji" font-size="16px" fill="#000000" text-anchor="start" style="white-space: pre;" direction="ltr"></text><text x="0" y="59" font-family="Cascadia, Segoe UI Emoji" font-size="16px" fill="#000000" text-anchor="start" style="white-space: pre;" direction="ltr">- Dao Blocklet 1 把 Dao Blocklet 2 的任何成员当做自己的 member</text><text x="0" y="80" font-family="Cascadia, Segoe UI Emoji" font-size="16px" fill="#000000" text-anchor="start" style="white-space: pre;" direction="ltr"></text></g><g transform="translate(141.62237548828125 298.610595703125) rotate(0 136.5 10)"><text x="0" y="16" font-family="Cascadia, Segoe UI Emoji" font-size="16px" fill="#000000" text-anchor="start" style="white-space: pre;" direction="ltr">Dao Blocklet 2:Passport:Admin</text></g><g transform="translate(142.64111328125 372.97705078125) rotate(0 141 10)"><text x="0" y="16" font-family="Cascadia, Segoe UI Emoji" font-size="16px" fill="#000000" text-anchor="start" style="white-space: pre;" direction="ltr">Dao Blocklet 2:Passport:Member</text></g><g transform="translate(28.76409912109375 149.185546875) rotate(0 14.5 10)"><text x="0" y="16" font-family="Cascadia, Segoe UI Emoji" font-size="16px" fill="#000000" text-anchor="start" style="white-space: pre;" direction="ltr">Bob</text></g><g transform="translate(237.2520751953125 22.488525390625) rotate(0 19.5 10)"><text x="0" y="16" font-family="Cascadia, Segoe UI Emoji" font-size="16px" fill="#000000" text-anchor="start" style="white-space: pre;" direction="ltr">User</text></g><g transform="translate(27.90191650390625 226.192626953125) rotate(0 24 10)"><text x="0" y="16" font-family="Cascadia, Segoe UI Emoji" font-size="16px" fill="#000000" text-anchor="start" style="white-space: pre;" direction="ltr">Alice</text></g><g transform="translate(30.16748046875 372.7535400390625) rotate(0 19.5 10)"><text x="0" y="16" font-family="Cascadia, Segoe UI Emoji" font-size="16px" fill="#000000" text-anchor="start" style="white-space: pre;" direction="ltr">Alex</text></g><g transform="translate(28.94427490234375 296.75439453125) rotate(0 24 10)"><text x="0" y="16" font-family="Cascadia, Segoe UI Emoji" font-size="16px" fill="#000000" text-anchor="start" style="white-space: pre;" direction="ltr">Steve</text></g><g stroke-linecap="round"><g transform="translate(481.70196533203125 10.303955078125) rotate(0 0 207.4278564453125)"><path d="M0 0 C0 69.14, 0 345.71, 0 414.86 M0 0 C0 69.14, 0 345.71, 0 414.86" stroke="#000000" stroke-width="1" fill="none"></path></g></g><g stroke-linecap="round"><g transform="translate(13.79742431640625 102.535888671875) rotate(0 393.30645751953125 0)"><path d="M0 0 C131.1 0, 655.51 0, 786.61 0 M0 0 C131.1 0, 655.51 0, 786.61 0" stroke="#000000" stroke-width="1" fill="none"></path></g></g><g stroke-linecap="round" transform="translate(11.489990234375 10) rotate(0 395.69497680664017 207.26458740234375)"><path d="M0 0 C273.74 0, 547.47 0, 791.39 0 M0 0 C235.43 0, 470.86 0, 791.39 0 M791.39 0 C791.39 101.45, 791.39 202.9, 791.39 414.53 M791.39 0 C791.39 134.44, 791.39 268.88, 791.39 414.53 M791.39 414.53 C543.13 414.53, 294.87 414.53, 0 414.53 M791.39 414.53 C511.4 414.53, 231.42 414.53, 0 414.53 M0 414.53 C0 258.79, 0 103.06, 0 0 M0 414.53 C0 303.79, 0 193.05, 0 0" stroke="#000000" stroke-width="1" fill="none"></path></g><g transform="translate(39.01263427734375 68.986572265625) rotate(0 19.5 10)"><text x="0" y="16" font-family="Cascadia, Segoe UI Emoji" font-size="16px" fill="#000000" text-anchor="start" style="white-space: pre;" direction="ltr">Name</text></g><g transform="translate(228.37237548828125 69.509033203125) rotate(0 38 10)"><text x="0" y="16" font-family="Cascadia, Segoe UI Emoji" font-size="16px" fill="#000000" text-anchor="start" style="white-space: pre;" direction="ltr">Passport</text></g><g stroke-linecap="round"><g transform="translate(101.36358642578125 61.81689453125) rotate(0 0 182.42681884765625)"><path d="M0 0 C0 60.81, 0 304.04, 0 364.85 M0 0 C0 60.81, 0 304.04, 0 364.85" stroke="#000000" stroke-width="1" fill="none"></path></g></g><g stroke-linecap="round"><g transform="translate(14.19134521484375 58.2789306640625) rotate(0 234.09002685546875 0)"><path d="M0 0 C78.03 0, 390.15 0, 468.18 0 M0 0 C78.03 0, 390.15 0, 468.18 0" stroke="#000000" stroke-width="1" fill="none"></path></g></g><g stroke-linecap="round"><g transform="translate(429.25250244140625 160.9791259765625) rotate(0 70.8843994140625 14.77081298828125)"><path d="M0 0 C23.63 4.92, 118.14 24.62, 141.77 29.54 M0 0 C23.63 4.92, 118.14 24.62, 141.77 29.54" stroke="#000000" stroke-width="1" fill="none"></path></g><g transform="translate(429.25250244140625 160.9791259765625) rotate(0 70.8843994140625 14.77081298828125)"><path d="M112.08 33.84 C122.89 32.27, 133.69 30.71, 141.77 29.54 M112.08 33.84 C121.04 32.54, 130.01 31.24, 141.77 29.54" stroke="#000000" stroke-width="1" fill="none"></path></g><g transform="translate(429.25250244140625 160.9791259765625) rotate(0 70.8843994140625 14.77081298828125)"><path d="M116.26 13.75 C125.55 19.5, 134.83 25.25, 141.77 29.54 M116.26 13.75 C123.96 18.51, 131.66 23.28, 141.77 29.54" stroke="#000000" stroke-width="1" fill="none"></path></g></g><g stroke-linecap="round"><g transform="translate(437.95208740234375 233.1810302734375) rotate(0 69.78521728515625 35.2884521484375)"><path d="M0 0 C23.26 11.76, 116.31 58.81, 139.57 70.58 M0 0 C23.26 11.76, 116.31 58.81, 139.57 70.58" stroke="#000000" stroke-width="1" fill="none"></path></g><g transform="translate(437.95208740234375 233.1810302734375) rotate(0 69.78521728515625 35.2884521484375)"><path d="M109.78 67.01 C118.37 68.04, 126.96 69.07, 139.57 70.58 M109.78 67.01 C117 67.88, 124.21 68.74, 139.57 70.58" stroke="#000000" stroke-width="1" fill="none"></path></g><g transform="translate(437.95208740234375 233.1810302734375) rotate(0 69.78521728515625 35.2884521484375)"><path d="M119.04 48.7 C124.96 55.01, 130.88 61.32, 139.57 70.58 M119.04 48.7 C124.01 54, 128.99 59.3, 139.57 70.58" stroke="#000000" stroke-width="1" fill="none"></path></g></g><g stroke-linecap="round"><g transform="translate(427.94317626953125 310.576416015625) rotate(0 75.21160888671875 -2.645751953125)"><path d="M0 0 C25.07 -0.88, 125.35 -4.41, 150.42 -5.29 M0 0 C25.07 -0.88, 125.35 -4.41, 150.42 -5.29" stroke="#000000" stroke-width="1" fill="none"></path></g><g transform="translate(427.94317626953125 310.576416015625) rotate(0 75.21160888671875 -2.645751953125)"><path d="M122.61 5.95 C128.27 3.66, 133.94 1.37, 150.42 -5.29 M122.61 5.95 C133.01 1.75, 143.4 -2.45, 150.42 -5.29" stroke="#000000" stroke-width="1" fill="none"></path></g><g transform="translate(427.94317626953125 310.576416015625) rotate(0 75.21160888671875 -2.645751953125)"><path d="M121.89 -14.55 C127.7 -12.67, 133.51 -10.78, 150.42 -5.29 M121.89 -14.55 C132.55 -11.09, 143.22 -7.63, 150.42 -5.29" stroke="#000000" stroke-width="1" fill="none"></path></g></g><g stroke-linecap="round"><g transform="translate(431.54632568359375 386.170654296875) rotate(0 74.15191650390625 -40.0703125)"><path d="M0 0 C24.72 -13.36, 123.59 -66.78, 148.3 -80.14 M0 0 C24.72 -13.36, 123.59 -66.78, 148.3 -80.14" stroke="#000000" stroke-width="1" fill="none"></path></g><g transform="translate(431.54632568359375 386.170654296875) rotate(0 74.15191650390625 -40.0703125)"><path d="M128.38 -57.71 C133.53 -63.51, 138.69 -69.31, 148.3 -80.14 M128.38 -57.71 C135.54 -65.77, 142.69 -73.82, 148.3 -80.14" stroke="#000000" stroke-width="1" fill="none"></path></g><g transform="translate(431.54632568359375 386.170654296875) rotate(0 74.15191650390625 -40.0703125)"><path d="M118.62 -75.77 C126.3 -76.9, 133.98 -78.03, 148.3 -80.14 M118.62 -75.77 C129.28 -77.34, 139.94 -78.91, 148.3 -80.14" stroke="#000000" stroke-width="1" fill="none"></path></g></g></svg>