<svg version="1.1" xmlns="http://www.w3.org/2000/svg" viewBox="0 0 954.2376335694858 717.7119076238444" width="1908.4752671389715" height="1435.4238152476887">
  <!-- svg-source:excalidraw -->
  
  <defs>
    <style class="style-fonts">
      @font-face {
        font-family: "Virgil";
        src: url("https://excalidraw.com/Virgil.woff2");
      }
      @font-face {
        font-family: "Cascadia";
        src: url("https://excalidraw.com/Cascadia.woff2");
      }
    </style>
  </defs>
  <rect x="0" y="0" width="954.2376335694858" height="717.7119076238444" fill="#ffffff"></rect><g stroke-linecap="round" transform="translate(253.302391870267 120.83832743157546) rotate(0 151.60348510742188 251.93508911132807)"><path d="M0 0 C0 0, 0 0, 0 0 M0 0 C0 0, 0 0, 0 0 M0.1 7.14 C1.41 4.65, 3.01 2.75, 5.42 0.85 M-0.29 6.12 C1.38 4.83, 2.05 3.08, 5.09 0.7 M-0.09 11.44 C3.99 8.42, 9.65 1.81, 10.72 -0.89 M0.62 12.54 C3.37 9.64, 5.79 5.78, 11.26 -0.5 M-1.24 17.77 C3.95 10.72, 9.49 7.22, 16.3 -0.07 M0.54 17.48 C5.61 12.5, 10.47 4.58, 16.02 0.98 M-1.42 22.61 C6.17 17.5, 13.83 6.9, 20.02 1.69 M1.02 24.93 C6.62 15.03, 15.66 6.94, 22.1 0.39 M-1.83 31.34 C7.1 24.74, 10.93 17.59, 26.9 -1.22 M0.1 30.02 C8.09 21.39, 16.92 12.22, 27.1 1.22 M-1.76 36.31 C9.88 26.44, 18.66 15.65, 32.47 0.74 M-0.02 36.47 C7.51 28.41, 16.64 18.2, 30.91 -0.88 M0.91 42.35 C12.35 25.73, 24.41 13.48, 37.13 -0.41 M-0.14 41.79 C8.04 34.59, 15.1 24.6, 36.25 -0.48 M-0.7 50.46 C10.87 37.17, 23.11 24.52, 40.93 -0.84 M-0.26 49.29 C17.22 29.99, 33.83 10.9, 42.69 0.43 M-0.3 56.03 C10.24 41.18, 18.77 32.6, 45.91 -1.37 M-0.29 53.6 C13.67 39.04, 25.66 23.99, 47.13 0.27 M-0.13 60.22 C13.46 45.56, 28.27 29.95, 54.89 -2.1 M0.4 60.49 C21.51 37.09, 41.84 14.4, 53.71 0.54 M-0.76 68.21 C24.23 42.23, 44.18 13.08, 57.81 1.04 M0.33 68.35 C21.26 42.27, 44.61 15.6, 58.35 -0.28 M0.42 72.84 C15.8 51.84, 34 32.14, 62.51 1.75 M-0.38 72.25 C24.78 45.36, 49.65 16.36, 64.66 -0.04 M0.87 80.31 C16.5 60.36, 28.73 43.77, 69.06 -1.22 M0.77 78.99 C21.7 53.88, 46.05 26.92, 68.44 0.93 M1.04 86.4 C27.55 51.51, 57.23 20.63, 72.58 1.36 M0.98 85.58 C20.88 61.8, 43.08 38.07, 73.64 0.55 M0.63 89.86 C31.89 53.41, 60.42 18.25, 77.53 0.67 M-0.44 92.07 C25.64 60.99, 52.82 29.97, 78.84 0.8 M-1.18 96.61 C22.59 68.87, 49.63 42.31, 84.56 -0.79 M0.33 98.06 C19.36 72.29, 40.13 48.19, 85.19 0.5 M1.84 105.44 C31.14 68.88, 58.4 33.78, 88.77 -1.65 M0.29 103.71 C35 61.73, 71.02 22.02, 90.91 1.06 M0.51 111.73 C23.03 83.39, 45.95 59.6, 94.58 -0.37 M-0.58 109.84 C25.69 82.61, 49.85 52.21, 95.26 -0.69 M0.49 113.53 C23.31 88.32, 47.58 63.95, 101.98 0.33 M-0.03 115.37 C27.01 84.02, 54.23 52.63, 100.95 -0.75 M0.51 123.14 C40.67 74.36, 81.16 27.63, 105.41 -1.21 M0.94 121.17 C39.17 75.35, 79.54 30.79, 106.21 -1.17 M-1.42 129.17 C41.22 79.49, 82.32 32.06, 112.01 1.95 M-0.62 127.56 C35.6 87.82, 70 48.59, 111.17 -0.25 M1.55 132.31 C37.05 90.82, 75.89 44.32, 115.82 -0.55 M0.16 134.36 C23.54 104.81, 48.51 77.8, 117.21 0.98 M0.73 138.99 C26.49 106.38, 58.09 74.5, 123.35 -0.61 M0.7 139.9 C31.33 103.78, 65.35 66.86, 122.7 0.78 M0.02 145.55 C24.27 115.49, 53.14 85.48, 125.21 1.98 M-0.71 145.56 C37.04 102.35, 74.37 57.69, 127.76 -0.25 M0.22 151.8 C28.01 121.69, 53.49 90.04, 132.23 -0.27 M0.5 152.54 C29.94 117.43, 63.36 79.23, 132.58 -0.58 M-0.65 160.55 C51.8 96.66, 106.51 37.08, 135.88 -1.01 M-0.23 158.52 C45.63 106.18, 90.1 53.98, 136.95 0.67 M-0.21 165.12 C32.55 127.52, 64.71 88.91, 144.19 -1.11 M-0.3 164.33 C52.86 105.6, 104.46 47.58, 142.86 0.29 M-1.4 170.53 C30.8 135.6, 58.78 101.62, 148.53 1.34 M-0.04 170.5 C40.86 123.93, 83.07 75.89, 148.53 0.92 M0.45 177.02 C57.31 112.77, 114.64 46.56, 153.36 -0.66 M0.95 176.28 C44.35 126.95, 87.26 77.2, 153.36 -0.48 M1.65 184.02 C34.1 141.17, 71.33 99.25, 158.17 -0.39 M0.16 183.66 C52.27 123.13, 104.65 63.18, 158.46 1.01 M-0.24 188 C49.82 135.12, 95.42 82.21, 165.82 0.58 M0.58 189.48 C49.43 133.47, 99.48 77.12, 164.74 0.13 M0.92 195.61 C60.59 124.24, 119.6 53.65, 168.86 1.58 M0.27 194.22 C53.78 132.54, 107.48 72.02, 170.06 0 M-0.45 202.52 C53.58 139.7, 109.57 75.66, 173.99 1.27 M-0.82 201.39 C41.98 153.15, 85.02 103.75, 174.33 -0.9 M-1.16 205.9 C64.32 133.9, 124.69 64.28, 181.56 -0.02 M0.15 207.34 C46.25 150.54, 94.63 95.69, 179.51 -0.35 M0.13 212.69 C70.47 131.71, 140.52 50.11, 184.72 0.91 M-0.4 212.85 C67.12 134.34, 134.8 55.36, 185.1 -0.22 M1.12 219.81 C55.81 157.49, 111.12 94.22, 190.1 0.34 M-0.28 219.08 C58.88 153.65, 115.31 88.61, 191.35 0.26 M1.36 225.58 C64.38 151.8, 124.79 82.88, 194.91 1.12 M0.8 225.7 C54.95 163.22, 107.84 102.7, 196.64 -0.21 M-0.12 232.81 C63.43 156.15, 126.4 83.19, 201.17 0.14 M-0.73 231.74 C64.04 158.25, 125.76 86.94, 201.84 0.12 M0.71 237.3 C71.69 156.76, 143.72 74.94, 205.85 1.1 M0.01 236.76 C75.6 149.98, 151.01 61.96, 206.38 -0.2 M-1.19 243.61 C64.21 170.75, 129.7 94.77, 211.27 -0.15 M0.7 243.65 C58.86 176.13, 117.86 109.2, 212.23 -0.6 M-0.08 250.6 C80.99 160.24, 158.47 68.5, 218.42 -0.64 M-0.02 249.74 C50.71 194.39, 98.67 137.48, 217.55 -0.44 M1.45 255.06 C82.72 158.46, 166.68 62.37, 223.16 1.12 M0.79 255.95 C81.88 164.05, 160.82 72.93, 223.21 0.48 M0.17 261.63 C63.64 188.16, 128.54 111.5, 229.21 0.43 M-0.72 262.61 C51.37 201.4, 103.9 140.68, 228.23 0.08 M1.56 267.59 C92.7 166.55, 182.2 62.4, 233.22 0.12 M-0.05 268.23 C45.99 214.34, 93.1 160.32, 233.07 0.43 M-0.18 274.09 C70.93 194.1, 142.23 112.21, 236.97 0.65 M0.25 274.61 C72.51 190.38, 145.37 107.25, 238.65 0.97 M0.36 281.57 C58.19 214.1, 117.77 146.64, 243.68 -0.35 M0.32 280.17 C56.08 217.73, 111.86 153.37, 243.71 0.07 M0.87 286.78 C98.3 173.44, 196.18 60.82, 248.33 0.08 M0.22 286.46 C50.64 227.31, 101.94 169.05, 248.96 0.85 M-0.59 293.3 C99.04 180.05, 198.15 66.39, 253.3 -0.35 M0.17 292.81 C89.93 186.74, 180.28 82.51, 254.6 0.27 M-0.41 298.58 C65.41 221.33, 129.68 146.29, 260.01 0.16 M0.68 298.97 C57.25 232.01, 113.91 167.48, 259.83 -0.08 M0.3 305.57 C83.32 208.2, 166.33 113.09, 265.91 -1.16 M-0.33 304.97 C71.76 221.87, 144.53 137.59, 264.98 0.27 M-0.81 310.32 C92.56 205.13, 184.77 99.51, 270.69 -0.3 M-0.33 311 C71.61 227.65, 144.22 144.15, 269.56 -0.18 M-0.63 316.23 C68.55 240.62, 134.63 162.18, 275.38 0.36 M-0.01 317.12 C98.17 202.14, 196.32 88.57, 275.53 -0.38 M-0.7 322.61 C62.21 250.13, 125.28 178.21, 281.2 -0.77 M-0.25 322.8 C59.71 254.28, 118.89 186.84, 280.9 0.25 M-0.48 329.05 C74.34 246.21, 145.75 161.63, 287.17 -0.42 M0.02 329.03 C104.99 207.98, 209.44 88.07, 286.5 -0.37 M0.17 334.83 C74.98 249.76, 148.04 166.01, 291.09 -0.43 M0.02 335.22 C96.51 225.93, 192.52 116.25, 291.57 -0.12 M-0.6 342.45 C105.21 219.21, 210.59 96.84, 297.38 0.36 M-0.41 341.2 C100.42 225.57, 200.01 111.34, 297.32 -0.39 M0.03 347.7 C87.22 249.49, 172.53 150.47, 301.69 0.86 M0.47 347.55 C73.31 264.19, 147 179.46, 301.6 -0.11 M-0.41 354.35 C64.6 278.03, 128.09 205.07, 304.84 1.65 M-0.53 354.12 C91.04 249.54, 181.98 145.46, 305.33 1.85 M-0.5 359.03 C105.28 235.84, 212.7 113.54, 305.85 8.31 M-0.08 358.91 C65.43 285.46, 129.55 211.78, 305.04 8.59 M-0.44 365.36 C63.45 291.48, 129.25 218.25, 306.58 13.39 M-0.18 365.75 C107.42 242.23, 214.77 118.88, 306.18 14.09 M-0.37 372.91 C118.13 236.02, 235.42 100.93, 305.65 21.24 M-0.48 372.06 C64.29 297.18, 129.52 222.59, 305.2 20.04 M1.08 378.34 C121.58 237.45, 244.01 97.19, 305.87 25.24 M0.52 377.43 C118.88 240.58, 239.3 102.99, 305.76 26.39 M0.1 384.64 C95.23 273.55, 190.02 164.17, 305.14 32.69 M0.23 384.42 C81.58 289.98, 164.21 195.61, 306.06 32.68 M1.19 389.26 C110.06 262.36, 218.95 136.46, 305.37 39.21 M0.03 389.48 C120.09 254.33, 238.8 118.06, 305.55 38.63 M-0.16 395.35 C105.73 271.92, 212.36 150.85, 304.89 44.43 M0.38 395.82 C101.57 278.69, 203.67 162.61, 305.58 44.48 M-0.25 403.46 C97.27 289.68, 194.81 179.38, 306.31 50.39 M-0.22 402.44 C91.44 296.19, 182.74 192, 305.96 50.84 M0.56 408.11 C94.86 302.03, 187.21 194.64, 306.26 56.83 M0.47 408.69 C118.47 274.09, 235.29 138.77, 305.76 57 M-0.62 415.27 C73.34 331.11, 144.2 248.41, 305.54 63.39 M-0.09 414.52 C109.79 290.2, 218.6 164.29, 305.67 62.73 M-0.95 421.18 C84.28 321.93, 170.1 223.18, 306.13 68.6 M-0.35 420.9 C104.04 299.9, 208.25 180.21, 305.19 69.3 M0.54 426.21 C99.8 310.27, 200.33 195.8, 306.34 75.58 M0.43 426.54 C117.34 289.82, 235.6 154.62, 305.54 74.79 M-0.16 433.23 C113.44 303.85, 224.22 176.02, 305.92 82.11 M-0.32 433.21 C108.97 308.32, 217.52 183.05, 305.75 81.73 M-0.35 439.3 C105.52 319.59, 212.09 198.85, 305.9 87.94 M0.55 438.54 C87.44 337.65, 176.73 235.46, 305.74 86.71 M-0.6 445.13 C105.23 322.4, 212.56 200.14, 304.94 94.13 M-0.36 445.14 C94.44 336.45, 188 228.36, 305.52 93.63 M-0.4 452.28 C84.75 353.79, 169.18 256.09, 304.69 99.36 M-0.26 451.63 C109.59 326.77, 218.32 201.27, 305.51 99.59 M0.64 457.83 C61.98 384.65, 126.77 311.53, 305.74 104.7 M-0.09 456.99 C94.24 348.56, 190.42 238.71, 305.43 105.33 M0.55 462.82 C81.75 370.97, 163.46 276.25, 306.38 111.9 M-0.17 463.72 C107.94 339.36, 215.34 216.42, 305.32 111.45 M0.37 468.53 C62.97 395.31, 127.8 321.64, 304.55 117.77 M0.13 469.2 C69.13 391.65, 135.43 314.17, 304.85 118.32 M0.51 475.85 C88.06 376.54, 176.22 274.93, 305.67 123.41 M-0.24 475.32 C68.1 397.56, 137.57 317.91, 305.26 124.14 M0.54 481.56 C64.43 405.26, 130.78 329.52, 305.86 129.91 M-0.03 481.73 C93.17 374.25, 188.3 265.06, 305.52 129.88 M0.74 486.76 C79.56 397.27, 158.64 306.28, 306.41 136.4 M0.44 487.97 C67.81 410.48, 134.54 332.78, 306.26 136.14 M-1.05 493.39 C117.28 358.75, 233.63 224.41, 304.66 143.1 M-0.6 494.29 C120.8 356.42, 242.07 216.5, 305.35 142.71 M0.51 499.57 C104.83 378.28, 209.74 258.31, 304.79 149.47 M0 499.91 C105.11 377.94, 210.6 257.05, 305.57 149.13 M0.36 503.93 C79.66 415.01, 157.2 324.51, 306.54 155.28 M1.15 504.25 C99.33 390.7, 198.59 276.87, 306.08 154.08 M5.75 504.56 C80.36 417.07, 155.32 330.08, 305.72 160.75 M6.6 505.25 C98.2 398.52, 190.55 291.65, 305.38 160.82 M12.55 504.73 C92.42 413.88, 171.67 321.25, 305.95 165.63 M11.67 504.53 C94.96 412.5, 176.08 319.36, 305.74 166.22 M16.91 505.36 C110.91 398.23, 205.08 289.98, 304.97 173.32 M16.44 504.96 C126.87 376.06, 239.35 247.65, 305.61 172.75 M22.69 504.04 C97.63 417.97, 172.73 332.1, 304.66 178.23 M22.95 504.61 C96.47 419.75, 170.85 334.94, 304.84 179.33 M28.22 503.91 C97.23 423.9, 167.28 341.19, 306.01 185.75 M27.72 504.57 C123.94 391.9, 222.65 279.46, 306.2 184.92 M34.19 505.41 C127.41 395.71, 223.46 286.23, 304.62 190.8 M33.37 504.4 C96.14 434.42, 158.1 363.56, 305.02 191.69 M38.07 504.36 C137.4 390.78, 236.42 279.34, 306.78 197.26 M38.24 504.91 C132.2 396.87, 225.9 290.15, 305.62 197.01 M44.78 505.05 C107.21 429.14, 173.27 354.21, 304.61 203.55 M44.03 504.59 C135.78 398.9, 226.44 294.24, 305.4 203.68 M47.79 505.28 C137.85 405.49, 225.17 304.11, 305.65 209.97 M48.19 504.5 C101.94 443.31, 155.42 381.05, 305.09 209.56 M52.64 506.25 C146.97 399.12, 237.44 291.49, 306.11 215.15 M53.5 505.74 C138.07 406.45, 223.51 308.76, 305.63 215.36 M58.82 504.2 C130.43 422.92, 203.5 339.33, 305.58 222.66 M59 504.55 C144.85 407.36, 230.46 308.78, 305.42 221.62 M65.58 504.2 C137.56 422.74, 211.07 336.99, 306.92 227.01 M64.29 505.69 C145.32 412.5, 226.88 318.7, 305.91 227.95 M68.8 503.81 C134.1 430.95, 199.29 355.92, 304.54 233.81 M70.4 505.07 C132.96 433.41, 195.74 361.46, 305.61 233.53 M74.22 506.04 C155.65 413.35, 234.61 320.93, 306.15 240.84 M74.85 504.66 C125.58 444.48, 176.37 385.91, 305.74 240.29 M80.01 503.91 C167.65 402.33, 256.6 301.79, 306.62 244.57 M80.66 505.34 C132.46 444.12, 185.3 382.72, 306.18 245.7 M84.91 504.31 C169.72 407.73, 255.26 311.97, 305.95 251.41 M85.07 505.6 C151.26 427.16, 218.76 349.45, 305.88 252.52 M90.78 504.81 C150.45 434.73, 212.09 362.66, 304.66 259 M91.19 504.36 C138.94 449.44, 188.26 393.82, 305.29 257.45 M95.72 504.22 C179.36 411.42, 261.48 318.02, 306.44 265.54 M96.54 505.18 C143.63 450.08, 191.57 395.65, 305 263.75 M101.73 506.05 C149.84 448.54, 198.14 393.4, 304.42 269.54 M102.11 504.44 C178.98 416.19, 255.63 326.76, 305.44 271.13 M107.81 504.43 C172.24 428.83, 239.44 352.27, 306.8 276.33 M106.28 504.87 C159.33 445.81, 211.6 385.91, 305.9 276.28 M111.88 504.73 C166.73 444.09, 218.6 383.8, 304.81 282.74 M112.79 505.17 C175.11 431.66, 239.05 357.59, 305.99 282.84 M118.46 506.28 C170.73 444.32, 219.47 387.53, 305.81 286.99 M117.25 505.09 C157.25 459.9, 197.36 412.87, 305.71 288.87 M122.9 505.88 C173.87 446.86, 220.97 392.76, 305.9 294.72 M122.42 505.16 C176.41 445.93, 227.04 386.73, 305.11 294.72 M128.18 506.5 C176.46 451.32, 221.17 399.19, 305.86 302.69 M127.69 504.27 C186.84 438.47, 244.62 370.37, 305.87 300.71 M134.83 503.19 C171.99 460.95, 210.36 414.72, 304.31 306.37 M134.01 504.25 C191.39 438.64, 249.48 372.46, 304.99 306.99 M139.72 504.42 C178.76 458.55, 219.65 413.28, 304.97 313.02 M139.15 505.69 C201.99 432.64, 264.94 360.85, 305.21 312.4 M144.15 505 C176.14 466.75, 208.52 429.61, 306.6 320.25 M144.33 504.64 C201.79 435.33, 261.71 367.94, 306 319.38 M150.08 504.21 C203.63 442.66, 260.45 378.68, 306.84 326.05 M149.59 504.2 C205.81 438.09, 263.36 373.86, 305.99 325.32 M155.06 504.48 C212.66 436, 273.05 368.78, 304.83 333.06 M155.6 505.24 C204.18 446.2, 253.02 389, 304.87 330.89 M161.59 503.59 C193.15 467.49, 224.59 426.83, 305.73 338.74 M160.5 504.55 C193.7 468.74, 227.59 429.44, 306.31 337.39 M165.02 503.39 C198.7 463.88, 231.05 428.21, 306.64 343.83 M164.99 503.81 C217.63 445.26, 268.66 384.28, 304.68 344.47 M170.35 505.14 C206.88 461.65, 246.19 420.99, 307.32 348.37 M171.25 504.46 C216.51 451.25, 262.26 398.38, 306.6 349.7 M175.6 505.28 C217.35 457.16, 259.77 412.99, 306.57 357.61 M174.86 505.68 C218.77 458.35, 259.33 410.36, 305.38 355.31 M181.77 504.24 C209.69 474.29, 236.98 443.28, 306.07 362.66 M181.58 505.31 C208.24 476.24, 233.5 445.25, 304.75 361.21 M186.62 507.05 C213.07 473.37, 243.83 437.84, 306.97 369.11 M186.42 505.83 C231.35 451.71, 278 399.92, 305.22 367.87 M191.03 505.21 C234.74 459.01, 273.32 409.84, 306.77 373.36 M192.46 504.04 C233.64 456.89, 274.34 409.71, 305.25 374.28 M197.21 504.12 C236.84 454.05, 281.73 408.06, 305.6 380.69 M197.38 504.81 C222.89 475.37, 249.13 444.53, 306.59 379.5 M203.55 504.57 C234.66 469.91, 264.93 431.13, 304.6 384.66 M203.47 503.81 C231.77 470.35, 261.05 436.38, 304.85 386.47 M206.92 506.15 C242.27 463.66, 275.5 424.33, 304.04 393.32 M208.09 505.34 C244.47 462.71, 280.87 419.64, 304.72 393.53 M213.46 504.66 C235.38 480.55, 253.45 455.16, 304.9 396.91 M213.59 505.11 C237.86 475.57, 264.17 446.72, 305.78 398.41 M216.93 503.63 C241.82 474.77, 269.93 445.77, 304.5 405.53 M217.84 505.98 C249.05 469.46, 280.01 435.39, 305.23 405.35 M225.51 503.65 C241.59 483.41, 261.45 461.2, 304.63 409.34 M224.17 504.79 C251.98 470.72, 280.94 436.68, 306.19 409.53 M228.1 505.91 C245.1 487.72, 258.79 470.35, 303.87 415.98 M227.84 504.11 C252.13 478.26, 275.38 451.88, 305.19 415.95 M233.15 505.55 C258.58 473.66, 286.88 445.06, 305.77 422.77 M234.02 505.02 C247.66 488.29, 262.67 472.17, 304.48 423.86 M238.94 503.17 C253.36 488.92, 268.51 475.49, 306.38 430.38 M240.24 504.92 C253.44 487.28, 271.01 469.71, 304.77 427.88 M244.45 506.21 C255.81 489.28, 269.58 476.68, 303.93 434.58 M244.36 504.29 C257.83 489.02, 271.62 472.9, 304.97 435.99 M251.61 504.44 C267.48 489.44, 281.84 468.88, 304.89 440.33 M251.07 504.46 C269.62 481.97, 291.65 457.61, 305.54 441.05 M256.17 503.35 C273.04 484.74, 289.89 466.14, 306.39 445.3 M255.83 504.43 C267.54 491.63, 278.76 476.89, 304.92 446.6 M261.94 503.61 C276.78 488.89, 291.14 469.72, 306.27 453.99 M261.32 504.6 C269.8 493.15, 279.8 482.62, 304.85 454.4 M267.69 502.51 C280.26 487.27, 294.39 473.17, 304.76 457.5 M265.48 503.59 C276.2 494.42, 284.35 482.89, 306.15 458.44 M269.4 505.38 C281.91 493.15, 292.69 478.09, 304.01 467.13 M271.89 504.01 C285.36 488.87, 297.65 474.11, 305.42 465.99 M275.08 503.07 C284.89 491.79, 296.03 480.32, 304.29 470.62 M277.81 505.25 C287.44 490.56, 299.54 478.7, 305.42 472.1 M283.12 503.33 C292.81 492.85, 299.57 482.67, 304.28 477.6 M282.59 505.23 C289.89 496.27, 295.96 489.18, 306.46 478.42 M288.4 505.03 C292.22 500.16, 296.87 494.44, 305.24 483.71 M287.06 505.97 C291.99 500.01, 296.37 494.16, 304.76 483.73 M291.9 505.85 C295.49 502.22, 299.14 498.84, 306.59 488.36 M293.18 505.6 C295.12 501.37, 298.44 496.98, 305.21 488.92 M296.82 504.43 C299.87 502.83, 303.51 498.25, 304.29 495.06 M297.16 505.29 C300.35 501.61, 303.11 497.8, 305.24 496.68" stroke="#40c057" stroke-width="0.5" fill="none"></path><path d="M-0.68 0.23 C68.5 0.82, 138.64 -0.77, 302.24 -1.04 M-0.16 -0.52 C90.99 -0.12, 182.6 0.42, 302.7 0.57 M303.93 0.29 C305.43 118.89, 305.37 239.71, 303.31 503.28 M303.51 -0.07 C304.85 119.27, 304.89 237.71, 302.99 504.05 M304 505.04 C218.97 502.42, 134.85 502.18, 0.19 503.02 M303.67 503.72 C224.61 504.92, 145.55 505.87, 0.58 503.6 M-0.49 504.23 C0.74 337.36, 0.97 169.73, 0.1 -0.48 M-0.06 503.54 C-1.31 339.92, -0.55 176.17, -0.17 -0.1" stroke="#000000" stroke-width="1" fill="none"></path></g><g stroke-linecap="round" transform="translate(228.26157928802786 83.16172220696609) rotate(0 357.98802714072895 310.87550354003906)"><path d="M-0.14 -0.57 C205.2 0.14, 411.54 0.46, 715.47 0.16 M-0.29 0 C204.92 1.84, 409 1.62, 715.83 -0.28 M716.61 -0.5 C716.68 192.52, 716.81 386.48, 716.7 620.99 M715.68 -0.26 C717.6 238.42, 717.53 477.48, 715.74 621.99 M716.33 621.57 C534.48 619.48, 352.15 620.81, -0.07 621.99 M715.74 621.59 C507.8 622.39, 299.49 622.04, 0.28 621.5 M-0.3 622 C-2.03 386.75, -2.2 153.7, -0.05 0.55 M-0.24 621.85 C0.21 421.6, -0.03 220.53, -0.38 -0.25" stroke="#000000" stroke-width="1" fill="none"></path></g><g transform="translate(417.6111000232586 649.4115331383227) rotate(0 159 22)"><text x="0" y="35" font-family="Cascadia, Segoe UI Emoji" font-size="36px" fill="#000000" text-anchor="start" style="white-space: pre;" direction="ltr">Blocklet Server</text></g><g stroke-linecap="round" transform="translate(74.00234557138288 349.3284233783899) rotate(0 12.830396664638897 11.809155240821752)"><path d="M9.57 0.48 C12.07 -0.58, 14.83 -0.76, 17.18 0.06 C19.53 0.87, 22.27 3.03, 23.66 5.36 C25.06 7.7, 26.11 11.35, 25.54 14.08 C24.96 16.82, 22.48 20.05, 20.22 21.76 C17.97 23.47, 14.76 24.38, 12.01 24.36 C9.25 24.34, 5.62 23.27, 3.71 21.64 C1.79 20.01, 0.99 17.09, 0.52 14.58 C0.05 12.07, -0.66 8.91, 0.87 6.59 C2.4 4.26, 8.32 1.73, 9.69 0.62 C11.06 -0.49, 8.95 -0.08, 9.08 -0.06 M18.53 0.17 C20.84 0.94, 21.6 3.14, 22.85 5.43 C24.1 7.72, 26.2 11.52, 26.04 13.92 C25.89 16.31, 24.08 18, 21.94 19.82 C19.8 21.64, 16.18 24.61, 13.21 24.81 C10.24 25.02, 6.33 22.91, 4.13 21.05 C1.92 19.19, 0.32 16.41, -0.01 13.68 C-0.34 10.95, 0.76 6.75, 2.14 4.69 C3.52 2.63, 5.52 1.8, 8.27 1.32 C11.02 0.83, 17.15 1.67, 18.64 1.8 C20.14 1.94, 17.62 1.91, 17.22 2.12" stroke="#000000" stroke-width="2" fill="none"></path></g><g stroke-linecap="round"><g transform="translate(86.10605286289342 373.47257523420984) rotate(0 -0.7825845416538186 14.694144048354019)"><path d="M-1.07 -0.8 C-1.46 4, -2.27 23.77, -2.12 28.65 M0.57 1.39 C0.54 6.42, 0.29 25.48, 0.14 30.19" stroke="#000000" stroke-width="2" fill="none"></path></g></g><mask></mask><g stroke-linecap="round"><g transform="translate(84.8421439742574 402.90592697321716) rotate(0 5.273017988549213 8.866720196298303)"><path d="M-0.8 -0.86 C1.12 2.42, 9.36 15.58, 11.35 18.59 M0.98 1.31 C2.76 4.37, 8.86 14.22, 10.4 17.06" stroke="#000000" stroke-width="2" fill="none"></path></g></g><mask></mask><g stroke-linecap="round"><g transform="translate(82.35907881436992 401.0281831165009) rotate(0 -4.015733870677195 8.205491889003014)"><path d="M-0.86 0.01 C-2.11 2.81, -7.05 13.45, -8.57 16.01 M0.89 -1.03 C-0.32 2.03, -6.96 14.56, -8.92 17.44" stroke="#000000" stroke-width="2" fill="none"></path></g></g><mask></mask><g stroke-linecap="round"><g transform="translate(69.95941969308933 389.51023910022724) rotate(0 6.667071940607229 -4.36833930943672)"><path d="M0.01 1.13 C2.61 -0.37, 12.42 -8, 14.78 -9.87 M-1.44 0.68 C1.05 -0.57, 10.72 -6.86, 13.72 -8.47" stroke="#000000" stroke-width="2" fill="none"></path></g></g><mask></mask><g stroke-linecap="round"><g transform="translate(84.37061408090426 379.3333352899546) rotate(0 5.357987115658943 5.8154933608304304)"><path d="M1.13 -0.21 C3.01 1.77, 8.93 9.89, 10.45 11.91 M0.26 -1.37 C2.04 0.74, 7.86 10.64, 9.36 13" stroke="#000000" stroke-width="2" fill="none"></path></g></g><mask></mask><g transform="translate(315.31795583511075 146.21436502923171) rotate(0 95 12)"><text x="0" y="20" font-family="Cascadia, Segoe UI Emoji" font-size="20px" fill="#000000" text-anchor="start" style="white-space: pre;" direction="ltr">Blocklet Service</text></g><g stroke-linecap="round" transform="translate(315.23287282729825 416.1384216773319) rotate(0 92.871826171875 90.61328125)"><path d="M-0.53 -1.34 C48.74 -0.94, 95.64 -1.21, 184.1 -0.49 M0.81 0.77 C66.56 -0.59, 135.36 -0.41, 186.46 0.36 M186.87 -1.57 C183.44 68.97, 186.44 139.9, 186.42 182.74 M185.94 -0.07 C185.2 41.37, 184.33 80.71, 185.07 180.8 M184.28 180.54 C118.82 181.18, 50.43 181.39, -0.58 180.46 M184.91 180.99 C125.84 184.06, 66.59 183.81, -0.47 181.82 M0.74 180.34 C-2.08 132.65, -2.06 86.27, -0.01 1.25 M-0.03 181.68 C0.61 121.65, 0.76 61.11, 0 -0.66" stroke="#000000" stroke-width="1" fill="none"></path></g><g transform="translate(370.60018239761075 567.570367478113) rotate(0 43 10)"><text x="43" y="16" font-family="Cascadia, Segoe UI Emoji" font-size="16px" fill="#000000" text-anchor="middle" style="white-space: pre;" direction="ltr">Blocklet2</text></g><g transform="translate(349.38765798354825 515.3352839320498) rotate(0 57 9.5)"><text x="0" y="16" font-family="Cascadia, Segoe UI Emoji" font-size="15.888384650735283px" fill="#000000" text-anchor="start" style="white-space: pre;" direction="ltr">Component2-2</text></g><g stroke-linecap="round" transform="translate(339.57674489761075 500.0428250051196) rotate(0 65.85382080078125 23.4879150390625)"><path d="M11.74 0 M11.74 0 C41.25 -0.9, 70.56 -2, 119.96 0 M11.74 0 C42.1 0.18, 72.15 -1.37, 119.96 0 M119.96 0 C128.6 1.5, 132.87 5.35, 131.71 11.74 M119.96 0 C128.62 2.06, 130.68 3.83, 131.71 11.74 M131.71 11.74 C129.91 21.63, 130.24 29.17, 131.71 35.23 M131.71 11.74 C131.07 20.77, 131.46 29.49, 131.71 35.23 M131.71 35.23 C133.02 41.49, 126.36 45.63, 119.96 46.98 M131.71 35.23 C130.74 44.63, 126.29 46.31, 119.96 46.98 M119.96 46.98 C95.89 49.34, 71.53 47.21, 11.74 46.98 M119.96 46.98 C92.66 45.23, 63.12 45.7, 11.74 46.98 M11.74 46.98 C5.88 46.85, 1.47 42.12, 0 35.23 M11.74 46.98 C5.29 46.08, 1.06 42.48, 0 35.23 M0 35.23 C-1.17 26.1, -0.25 19.4, 0 11.74 M0 35.23 C-0.17 26.68, 0.37 19.02, 0 11.74 M0 11.74 C1.54 5.86, 5.07 -0.01, 11.74 0 M0 11.74 C-1.52 2.57, 4.19 0.84, 11.74 0" stroke="#000000" stroke-width="1" fill="none"></path></g><g transform="translate(348.890770776517 452.7024103968934) rotate(0 57 9.5)"><text x="0" y="16" font-family="Cascadia, Segoe UI Emoji" font-size="15.888384650735283px" fill="#000000" text-anchor="start" style="white-space: pre;" direction="ltr">Component2-1</text></g><g stroke-linecap="round" transform="translate(339.652489526517 436.59647490746335) rotate(0 65.85382080078125 23.4879150390625)"><path d="M11.74 0 M11.74 0 C47.38 -1.35, 83.21 1.55, 119.96 0 M11.74 0 C51.26 -1.61, 89.64 -0.12, 119.96 0 M119.96 0 C128.96 1.44, 132.43 5.71, 131.71 11.74 M119.96 0 C126.76 -0.08, 133.01 2.11, 131.71 11.74 M131.71 11.74 C130.24 17.72, 133.03 20.82, 131.71 35.23 M131.71 11.74 C131.53 18.06, 132.25 23.42, 131.71 35.23 M131.71 35.23 C130.27 41.72, 126.95 48.34, 119.96 46.98 M131.71 35.23 C130.2 42.4, 126.11 46.18, 119.96 46.98 M119.96 46.98 C80.03 47.23, 37.94 48.22, 11.74 46.98 M119.96 46.98 C96.42 45.71, 74.33 46.02, 11.74 46.98 M11.74 46.98 C5.38 46.04, 1.2 42.28, 0 35.23 M11.74 46.98 C4.97 46.39, 0.85 42.05, 0 35.23 M0 35.23 C-0.2 29.64, 1.4 24.73, 0 11.74 M0 35.23 C0.47 28.73, 0.79 21.56, 0 11.74 M0 11.74 C1.15 3.9, 2.59 -1.17, 11.74 0 M0 11.74 C0.28 4.75, 4.91 0.53, 11.74 0" stroke="#000000" stroke-width="1" fill="none"></path></g><g transform="translate(364.7614983155795 264.68353563355885) rotate(0 47.5 9.5)"><text x="0" y="16" font-family="Cascadia, Segoe UI Emoji" font-size="15.888384650735283px" fill="#000000" text-anchor="start" style="white-space: pre;" direction="ltr">Component1</text></g><g stroke-linecap="round" transform="translate(321.78511892104825 205.2034702538411) rotate(0 88.9576416015625 90.61328125)"><path d="M0.32 -1.26 C36.88 0.55, 71.19 -0.5, 176.48 0.02 M-0.72 -0.38 C69.42 0.5, 140.29 -0.31, 178.7 -0.63 M178.63 1.81 C174.7 69.5, 177.61 135.9, 176.45 179.95 M177.73 -0.58 C176.91 70.72, 175.44 141.8, 178.36 181 M179.52 181.06 C110.89 182.02, 42.92 182.45, -1.16 180.44 M177.71 181.92 C115.21 183.12, 54.44 183.16, -0.37 181.54 M0.89 181.1 C3.18 134.4, 1.77 86.93, -1.2 0.5 M-0.83 180.26 C-1.96 119.46, -2.06 55.38, -0.25 0.73" stroke="#000000" stroke-width="1" fill="none"></path></g><g transform="translate(369.01839528823575 351.8986606835286) rotate(0 43 10)"><text x="43" y="16" font-family="Cascadia, Segoe UI Emoji" font-size="16px" fill="#000000" text-anchor="middle" style="white-space: pre;" direction="ltr">Blocklet1</text></g><g stroke-linecap="round" transform="translate(345.583641870267 250.20400395272253) rotate(0 65.85382080078125 23.4879150390625)"><path d="M11.74 0 M11.74 0 C39.25 1.5, 64.95 -1.12, 119.96 0 M11.74 0 C52.57 -0.78, 95.79 -1.03, 119.96 0 M119.96 0 C129.33 -0.37, 130.55 5.12, 131.71 11.74 M119.96 0 C126.74 -2, 130.44 4.93, 131.71 11.74 M131.71 11.74 C132.99 19.86, 131.73 25.39, 131.71 35.23 M131.71 11.74 C131.16 18.19, 132.23 26.09, 131.71 35.23 M131.71 35.23 C132.97 42.65, 129.19 45.74, 119.96 46.98 M131.71 35.23 C133.47 44.65, 129.64 46.12, 119.96 46.98 M119.96 46.98 C82.87 46.79, 48.07 47.29, 11.74 46.98 M119.96 46.98 C84.47 47.37, 50.65 47.86, 11.74 46.98 M11.74 46.98 C3.62 45.32, -1.92 41.82, 0 35.23 M11.74 46.98 C6.07 45.33, -0.98 42.49, 0 35.23 M0 35.23 C1.15 25.38, -1.95 16.32, 0 11.74 M0 35.23 C0.43 26.55, -0.61 16.55, 0 11.74 M0 11.74 C-0.22 2.37, 2.27 -0.02, 11.74 0 M0 11.74 C-1.07 4.96, 4.93 -1.06, 11.74 0" stroke="#000000" stroke-width="1" fill="none"></path></g><g stroke-linecap="round" transform="translate(611.5690849855014 123.42403569100384) rotate(0 151.60348510742188 251.9350891113281)"><path d="M0 0 C0 0, 0 0, 0 0 M0 0 C0 0, 0 0, 0 0 M-0.01 6.51 C1.92 4.44, 3.48 1.75, 4.93 -0.24 M-0.33 6.31 C0.6 5.02, 2.08 4.13, 4.61 -0.02 M-0.25 13.03 C3.68 7.09, 7.02 2.23, 10.83 0.29 M-0.19 12.69 C4.06 6.69, 8.9 1.87, 11.12 0.39 M1.01 20.1 C3.15 12.38, 7.81 11.12, 15.78 0.85 M0.67 17.47 C3.57 13.54, 6.52 10.18, 14.97 -0.45 M-1.66 24.94 C7.5 15.1, 17.36 8.15, 23.13 0.56 M0.11 24.8 C5.75 17.31, 11.05 10.93, 22.2 -0.29 M-0.16 29.58 C5.09 23.08, 9.73 18.35, 24.88 -1.3 M0.37 30.11 C7.47 23.95, 13.29 15.27, 27.01 -0.3 M0.15 35.98 C7.05 27.47, 17.5 14.41, 32.13 -1.16 M-1.21 37.75 C8.49 27.73, 15.79 19.26, 32.59 0.56 M-0.05 43.96 C10.43 32.28, 18.58 20.64, 37.46 0.35 M0.38 42.1 C7.81 32.98, 15.88 24.67, 37.67 -0.55 M-0.44 46.92 C13.7 32.4, 31.76 12.72, 41.74 -0.19 M-0.37 49.72 C11.96 34.6, 22.48 20.96, 42.5 0.43 M1.09 53.96 C15.61 34.25, 33.01 15.46, 48.45 -1.47 M-0.17 54.77 C15.66 37.67, 30.22 20.64, 47.34 0.24 M-1.26 61.39 C18.61 38.33, 37.2 16.49, 54.48 -0.11 M-0.53 60.84 C12.04 48.49, 23.34 36.4, 52.42 -0.94 M0.98 66.88 C14.36 53.14, 26.68 34.95, 56.45 0.84 M-0.37 66.51 C13.91 49.87, 29.46 33.67, 58.38 0.32 M0.15 73.12 C16.79 53.52, 35.11 29.74, 65.53 1.33 M-0.31 73.3 C17.07 55.12, 32.93 36.61, 64.27 -0.53 M0.01 77.58 C27.32 50.4, 52.34 18.29, 69.73 -0.28 M0.09 78.8 C14.12 62.85, 29.04 47.52, 68.03 -0.23 M-0.07 84.65 C22.04 58.01, 43.54 32.65, 72.73 -1.76 M0.62 85.12 C24 58.83, 46.65 31.11, 74.4 -0.96 M-0.78 91.07 C30.96 55.8, 58.92 20.15, 80.19 -1.56 M-0.06 91.71 C17.47 68.95, 38.15 46.66, 79.47 -0.51 M1.23 98.15 C32.66 59.23, 65.27 21.58, 86.57 -1.41 M-0.16 97.9 C24.89 71.44, 48.19 42.55, 84.58 0.46 M0.99 105.43 C20.38 81.89, 38.61 58.77, 89.42 1.14 M0.02 103.88 C25.25 74.88, 48.78 48.94, 90.81 0.24 M-1.21 110.37 C26.33 78.55, 51.85 49.3, 96.21 -1.84 M-0.17 110.8 C30.47 74.34, 60.04 39.79, 94.98 -1.22 M-1.67 114.56 C37.09 77.11, 69.44 33.51, 102.63 -1.22 M-0.42 116.25 C35.6 76.86, 70.08 35.99, 100.07 -0.43 M1.06 123.14 C38.51 76.54, 73.39 34.31, 107.43 -1.4 M1.02 122.09 C41.41 75.56, 81.81 27.43, 107.22 0.33 M0.28 127 C28.85 96.52, 54.83 65.06, 110.71 -0.83 M0.63 127.9 C38.36 82.73, 77.11 39.31, 112.2 0.88 M-1.21 134.41 C37.49 88.16, 78.43 41.12, 116.07 2.14 M-0.59 133.09 C35.84 92.17, 72.93 51.17, 116.68 0.57 M0.47 140.83 C29.44 104.71, 60.42 66.62, 120.2 0.96 M-0.42 139.92 C35.05 101.62, 69.47 61.22, 122.05 0.39 M-1.58 144.96 C26.4 117.79, 53.24 85.78, 128.53 -1.4 M0.93 145.97 C38.81 99.36, 78.66 53.55, 126.12 -0.01 M-0.66 154.08 C45.55 100.98, 89.4 51.16, 131.43 -0.3 M0.26 152.95 C27.71 120.68, 55.49 89.03, 133.34 0.13 M-0.61 157.36 C33.28 122.15, 64.86 82.54, 136.12 -0.04 M-0.21 159.4 C42.17 110.37, 82.64 64.71, 136.84 -0.25 M0.26 164.6 C46.15 113.35, 88.41 62.48, 143.76 1.4 M-0.25 163.6 C42.77 113.76, 85.2 64.46, 143.92 -0.83 M-1.22 170.11 C58.28 101.92, 118.44 35.51, 146.93 -0.74 M0.04 170.9 C51.4 113.51, 101.07 56.07, 147.92 -0.54 M-0.09 175.25 C31.64 139.82, 61.06 104.05, 155.12 -1.69 M0.17 176.83 C57.28 110.43, 114.43 44.69, 154.4 -0.19 M0.77 181.72 C56.88 114.91, 116.25 50.15, 159.78 0.86 M0.66 183.53 C33.78 144.38, 67.91 106.29, 159.15 0.79 M0.16 189.22 C58.15 120.6, 118.32 51.46, 163.28 -0.94 M-0.22 189.85 C59.86 121.33, 119.95 51.21, 165.22 -0.1 M-0.49 195.65 C47.66 142.03, 95.19 88.45, 167.84 0.29 M-0.3 195.16 C43.87 144.48, 86.76 93.98, 169.82 -0.16 M-1.26 202.24 C51.78 143.07, 102.13 82.78, 173.92 -0.76 M0.06 200.64 C43.57 148.34, 89.43 94.91, 174.36 0.56 M0.51 206.21 C36.23 166.81, 70.17 124.57, 179.64 -0.27 M0.84 206.9 C55 142.08, 111.96 77.56, 179.64 -0.33 M0.02 212.55 C70.59 129.22, 144.4 46.77, 185.65 0.21 M-0.68 212.85 C68.49 134.72, 136.34 56.64, 186.12 0.37 M-1.33 220.4 C50.41 163.94, 101.17 105.12, 191.11 -0.52 M-0.95 219.59 C75.66 134.02, 150.11 48.18, 190.95 -0.57 M-0.02 225.22 C52.36 167.36, 102 106.57, 195.52 0.84 M0.63 225.54 C46.43 173.67, 90.21 122.18, 196.04 -0.59 M1.3 231.1 C64.08 159.31, 127.42 86.33, 200.62 -0.32 M-0.21 231.66 C78.79 142.3, 156.86 52.24, 201.7 0.08 M-0.11 238.83 C40.98 190.18, 81.52 140.68, 206.4 -0.69 M-0.14 238.12 C65.29 161.68, 130.54 85.19, 207.33 -0.21 M-1.24 244.61 C54.26 181.7, 106.46 121.08, 212.82 -1.06 M0.31 244.41 C80.78 150.73, 162.14 57.06, 212.54 0.57 M0.63 251.45 C60.65 176.17, 124.19 105.26, 216.44 0.13 M-0.77 250.39 C77.46 162.37, 153.78 75.67, 217.9 -0.9 M0.54 255.52 C69.74 174.84, 141.1 92.74, 222.74 1.32 M0.8 255.49 C75.75 166.21, 153.86 77.75, 222.95 0.23 M-1.3 261.79 C69.44 182.87, 137.82 102.72, 229.08 -1.49 M0.16 262.85 C81.22 167.64, 164.18 72.34, 228.54 -0.24 M-0.95 268.76 C49.11 210.35, 97.88 156.47, 234.28 1.18 M0.05 267.31 C50.3 208.99, 100.44 151.53, 233.41 0.61 M-0.18 274.49 C48.33 218.12, 97.27 160.64, 237.55 -0.78 M0.48 273.79 C55.41 211.54, 110.67 147.32, 238.59 0.68 M0.58 279.92 C80.83 186.13, 163.09 91.03, 244.99 1.02 M-0.54 281.31 C54.76 218.48, 109.12 156.39, 243.36 -0.43 M1.35 285.49 C68.22 210.26, 133.05 134.26, 249.85 1.04 M0.34 286.13 C90.74 182.27, 180.8 78.02, 249.31 0.52 M0.27 291.91 C96.33 181.66, 192.66 71.64, 255.56 -0.64 M-0.35 292.34 C94.25 181.94, 190.99 70.72, 254.34 -0.41 M1.43 299.38 C85.35 199.38, 170.01 101.19, 260.36 0.81 M0.71 298.48 C52.16 237.75, 104.78 177.1, 259.39 0.05 M0 305.15 C91.39 201.07, 181.01 97.55, 265.81 -0.64 M-0.11 304.77 C99.72 190.78, 199 76.11, 265.64 -0.41 M-0.67 311.81 C93.33 205.11, 186.31 97.37, 269.16 1.24 M-0.23 311.72 C84.96 212.81, 169.95 114.97, 270.43 -0.22 M-0.46 316.57 C77.43 229.01, 151.97 142.51, 275.95 0.36 M0.1 316.66 C80.67 225.13, 162.07 132.5, 275.24 -0.66 M0.84 322.23 C65.84 245.13, 134.55 167.62, 281.39 0.84 M-0.33 323.02 C87.14 222.95, 174.9 122.47, 281.1 0.01 M-0.43 328.17 C111.61 202.76, 221.61 75.36, 285.47 -0.35 M0.65 328.39 C84.85 235.05, 167.81 139.84, 286.85 -0.12 M0.35 336.1 C74.66 248.7, 150.27 162.49, 291.14 -0.2 M-0.35 335.24 C96.77 224.41, 193.05 113.49, 291.26 0.41 M-0.19 341.78 C89.76 239, 180.57 136.07, 296.21 -0.19 M0.21 341.43 C92.12 235.84, 184.19 130.25, 297.36 -0.24 M-0.21 346.79 C64.61 275.3, 127.86 202.63, 301.91 0.58 M0.29 346.92 C103.56 228.93, 207.11 110.52, 302.17 -0.31 M0.79 353.48 C61.11 281.65, 123.3 211.06, 305.24 1.46 M-0.05 353.83 C112.62 221.45, 227.25 89.24, 305.27 2.07 M0.12 359.58 C65.59 285.56, 130.35 211.5, 305.61 7.55 M0.47 359.73 C78.76 271.6, 155.57 183.87, 304.93 8.14 M-0.72 365.01 C97.11 253.9, 194.7 142.77, 305.48 13.31 M-0.06 365.47 C92.61 260.92, 183.13 155.65, 305.86 13.85 M0.1 371.75 C111.08 243.89, 224.05 114.52, 306.18 20.21 M0.07 372.04 C119.89 232.3, 240.61 93.61, 305.95 20.25 M0.72 377.64 C62.32 305.63, 124.57 232.6, 306.22 26.63 M0.37 378.15 C112.64 249.33, 224.92 120.57, 306.03 25.86 M-0.12 383.87 C85.61 286.3, 169.38 191.03, 304.93 32.75 M0.2 383.81 C74.33 297.44, 148.98 211.53, 305.44 32.62 M-0.59 390.32 C82.24 294.15, 167.1 198.62, 306 38.62 M0.48 389.46 C77.59 298.44, 156 209.13, 305.08 39.13 M-0.23 395.91 C98.85 282.65, 198.88 167.24, 306.12 45.32 M-0.29 396.02 C90.48 292, 182.86 186.25, 305.34 44.62 M-1.1 403.09 C81.8 309.96, 164.06 215.77, 304.72 51.43 M0.22 402.22 C97.86 287.44, 195.88 174.56, 305.37 50.71 M0.14 408.88 C63.99 335.77, 126.11 264.67, 306.53 55.74 M0.15 408.15 C121.16 269.21, 243.07 129.19, 305.72 56.9 M-0.94 415.08 C117.17 280.07, 233.16 145.36, 306.09 63.03 M-0.39 414.66 C94.5 307.02, 187.98 199.57, 305.22 63.32 M-0.86 421.7 C115.92 287.99, 231.72 155.24, 304.9 70.28 M-0.6 421.03 C64.98 346.16, 129.01 273.34, 305.48 68.98 M0.39 426.21 C104.7 304.24, 212.52 182.06, 306.55 74.21 M-0.11 427.15 C71.42 345.4, 141.35 264.86, 305.6 75.36 M-0.04 432.81 C67.16 357.18, 133.02 280.13, 305.39 81.46 M0.25 433.37 C100.92 317.67, 201.29 202.01, 305.5 81.21 M0.21 438.76 C103.97 317.31, 207.09 197.11, 306.49 86.61 M0.18 438.8 C90.01 333.53, 180.31 229.53, 306.32 86.79 M0.46 445.57 C87.56 346.85, 172.35 247.31, 305.51 93.55 M-0.42 444.94 C121.61 303.91, 244.22 162.9, 305.97 93.4 M-0.39 450.71 C85.91 353.98, 170.38 256.43, 305.05 100.72 M-0.66 451.22 C119.52 312.04, 239.41 172.78, 305.83 100.29 M0.35 457.01 C66.56 379.25, 133.62 301.42, 305.08 105.93 M-0.29 457.63 C118.05 322.86, 235.09 188.79, 305.92 105.89 M-0.32 462.7 C95.42 351.78, 192.42 240.36, 305.43 111.96 M0.02 463.21 C119.69 323.67, 240.47 184.45, 305.15 112.31 M-0.33 468.7 C85.82 373.01, 169.72 277.68, 305.83 119.08 M-0.05 469.38 C83.63 372.36, 168.27 274.36, 305.04 117.89 M0.26 476.19 C108.97 347.75, 219.25 221.71, 306.47 123.4 M-0.35 475.78 C76.8 385.33, 154.65 295.56, 305.4 123.55 M-1 482.87 C116.07 346.83, 232.42 211.97, 305.85 130.72 M0.06 481.77 C66.71 406.04, 132.81 329.65, 305.86 130.35 M-0.1 487.72 C105.84 361.92, 213.97 238.28, 306.09 136.4 M-0.07 487.69 C93.65 380.63, 186.9 273.54, 306.23 136.39 M-0.64 494.84 C83.23 398.81, 165.45 303.48, 305.65 143.02 M-0.34 493.81 C112.19 363.67, 225.32 233.89, 305.71 142.76 M-0.29 499.68 C114.92 366.57, 232.04 234.45, 304.63 149.34 M0.27 499.5 C111.91 371.74, 223.82 242.68, 305.03 148.62 M0.5 504.28 C109.36 378.62, 218.25 252.4, 306.26 155.06 M1.6 504.5 C70.04 423.43, 140.47 343.23, 305.29 154.24 M6.57 505.34 C115.15 376.36, 227.07 249.14, 304.65 161 M5.89 505.33 C78.5 421.92, 150.68 338.52, 305.43 160.95 M11.5 505.27 C85.43 418.78, 160.43 333.4, 305.78 166.28 M11.98 504.21 C107.45 393.01, 203.25 282.27, 305.72 166.59 M17.22 504.76 C129.8 375.73, 243.2 245.2, 306.3 172.31 M17.16 504.75 C81.09 432.61, 143.49 359.64, 305.66 172.85 M21.96 503.88 C97.55 416.17, 172.76 329.66, 305.17 180.16 M22.84 504.02 C114.63 397.46, 208.59 289.73, 305.64 179 M26.63 505.03 C125.43 391.99, 226.45 276.98, 304.66 184.4 M27.25 505.29 C128.58 391.71, 227.84 276.16, 305.15 184.5 M32.87 504.29 C113.29 414.49, 193.12 321.97, 306.49 190.36 M33.19 504.21 C124.86 399.94, 215.55 296.14, 304.92 191.22 M37.42 504.45 C126.13 405.64, 213.79 304.37, 306.28 196.41 M38.39 505.21 C97.04 438.64, 154.78 371.05, 305.65 197.45 M44.67 504.68 C126.92 410.32, 209.42 317.09, 305.21 202.5 M44.32 504.14 C141.24 394.9, 236.87 284.64, 305.66 203.76 M47.91 504.89 C147.91 391.29, 248.1 276.66, 304.87 209.09 M48.55 505.15 C131.86 408.58, 215.31 312.6, 304.79 209.26 M52.83 504.69 C134.12 414.82, 215.9 322.69, 304.83 215.8 M53.23 505.77 C125.98 420.65, 198.74 336.56, 305.78 214.99 M59.5 504.27 C155.75 396.55, 251.75 286.98, 306.29 220.82 M59.55 504.61 C134 421.21, 207.07 337.6, 305.75 222.08 M63.2 506.38 C155.05 401.18, 246.2 299.03, 306.82 228.55 M64.92 505.5 C138.55 421.42, 210.18 338.64, 305.22 227.24 M71.1 504.43 C118.19 451.46, 166.04 395.05, 305.59 233.43 M69.67 504.78 C150.75 413.67, 229.72 322.5, 305.9 234.28 M75.75 505.53 C155.53 414.19, 235.4 322.67, 305.55 240.07 M74.95 505.08 C127.41 445.89, 178.3 386.73, 305.17 240.02 M79.85 505.48 C138.84 436.48, 198.95 370.51, 304.74 245.4 M80.15 504.29 C154.27 421.94, 226.14 340.06, 305.81 245.86 M84.85 504.27 C172.82 404.8, 257.51 305.6, 304.32 251.77 M85.87 504.55 C133.64 450.78, 181.51 393.83, 304.99 252.26 M90.45 503.98 C138.64 448.35, 187.09 394.6, 306.51 258.97 M91.01 504.87 C157.76 425.51, 226.1 347.8, 305.81 257.78 M95.65 506.45 C150.62 440.21, 205.07 378.59, 306.02 265.62 M96.07 504.89 C156.69 436.6, 215.78 367.99, 305.21 263.69 M101 505.12 C165.17 434.46, 225.21 364.23, 303.91 271.7 M101.48 504.12 C156.95 441.73, 212.73 379.44, 305.89 270.68 M107.32 504.7 C187.95 415.61, 265.48 324.56, 305.74 276.35 M106.92 504.56 C174.26 427.4, 242.94 348.42, 305.7 276.67 M111.98 505.15 C178.18 429.29, 242.39 353.43, 306.28 282.66 M112.13 504.33 C172.01 436.19, 231.85 367.36, 304.72 282.44 M116.36 504.03 C159.27 452.84, 203.8 404.85, 305.1 287.54 M118.02 504.31 C184.56 427.4, 252.05 348.86, 305.46 287.72 M122.15 503.45 C184.8 432.29, 243.34 362.68, 305.76 296.29 M122.77 504.92 C171.37 451.64, 216.93 398.51, 305.09 294.92 M127.11 503.81 C179.75 445.01, 231.14 387.69, 305.04 300.1 M127.68 505.23 C164.88 461.44, 204.2 416.88, 305.79 300.52 M133 504.81 C188.08 441.25, 244.87 379.57, 304.16 305.53 M133.11 504.28 C185.3 445.71, 236.26 386.41, 305.71 307.21 M138.57 504.81 C187.59 452.16, 236.09 398.06, 306.83 313.35 M138.37 504.81 C178.21 457.77, 219.33 411.17, 306.11 313.53 M144.3 505.47 C188.42 453.51, 233.94 400.93, 305.78 318.66 M145.23 503.76 C194.91 445.71, 245.2 388.48, 305.46 318.58 M148.48 504.43 C186.13 464.5, 222.65 419.95, 306.09 324.65 M149.91 505.46 C196.14 450.55, 242.07 397.8, 305.22 324.82 M155.48 503.57 C185.78 467.51, 219.09 430.21, 305.17 330.41 M154.64 503.86 C208.8 443.58, 262.44 379.42, 305.3 331.77 M161.77 504.75 C211.07 450.28, 260.54 390.94, 306.93 337.8 M159.87 504.17 C199.7 458.35, 239.82 412.45, 305.02 338.07 M167.37 504.79 C207.49 456.22, 248.52 407.5, 304.07 342.83 M165.81 505.04 C220.51 442.46, 275.52 377.25, 305.23 344.31 M172.08 504.43 C209.62 459.19, 249.83 413.23, 306.6 348.94 M171.19 504.96 C224.1 445.04, 275.65 385.44, 305.83 349.32 M176.34 504.31 C221.68 458.05, 263.9 406.87, 306.6 355.08 M175.87 505.7 C220.55 456.32, 264 405.9, 306.32 355.19 M180.13 503.56 C230.07 449.7, 276.95 395.59, 306.62 362.63 M181.19 504.34 C217.02 463.24, 253.97 422.82, 304.44 362.01 M185.36 506.75 C218.89 466.71, 250.12 430.94, 305.28 369.27 M186.26 505.06 C234.49 451.05, 280.85 397.25, 304.92 368.61 M193.49 506.37 C234.25 454.29, 279.3 404.56, 306.27 372.76 M190.97 504.54 C234.59 454.34, 279.46 402.98, 305.18 374.71 M195.92 506.2 C227.46 471.53, 257.58 436.96, 304.54 381.11 M196.53 505.88 C236.81 460.18, 276.97 413.18, 306.7 380.41 M200.84 502.76 C232.31 470.36, 258.33 440.12, 304.66 388.02 M203.38 505.27 C232.51 470.92, 262.49 437.71, 305.43 386 M207.57 504.77 C235.61 471.56, 266.03 439.65, 306.98 391.03 M207.76 505.88 C239.82 469.66, 269.71 432.2, 305.14 393.45 M213.33 506.54 C241.8 472.04, 274.27 435.24, 305.17 399.25 M213.6 504.56 C246.22 467.07, 277.63 431.22, 305.15 398.49 M219.56 503.44 C243.96 473.72, 269.85 442.29, 305.86 403.04 M219 505.65 C245.59 473.06, 272.65 440.63, 305.1 405.63 M222.75 505.33 C253.84 469.26, 283.44 434.89, 304.79 410.15 M224.23 503.76 C251.8 472.41, 281.19 437.45, 305.22 410.65 M228.75 504.02 C246.58 487.04, 260.06 467.65, 307.1 415.25 M228.18 505.56 C252.63 478.77, 276.14 451.03, 305.88 417.45 M235.58 502.64 C257.84 474.92, 283.86 445.74, 303.53 424.01 M234.32 504.55 C250.26 485.46, 267.22 465.63, 305.79 422.51 M239.7 503.16 C264.69 475.05, 286.97 447.88, 305.95 426.86 M239.17 504.85 C265.31 475.46, 291.76 444.73, 304.87 427.98 M246.92 503.77 C258.05 485.97, 273.91 472.6, 305.02 434.67 M244.3 503.96 C263.72 481.63, 285.5 458.73, 305.9 435.68 M250.6 506.36 C267.08 485.43, 280.61 468.6, 304.3 440.91 M250.76 504.57 C262.85 491.71, 274.34 479.58, 305.9 440.63 M254.56 505.91 C267.81 491.15, 280.4 474.26, 306.59 449.12 M255.06 505.31 C272.56 486.26, 287.82 467.23, 306.54 446.86 M259.3 505.97 C273.63 489.45, 288.14 476.07, 304.06 455.06 M261.65 504.59 C273.54 489.62, 289.14 472.54, 305.53 452.89 M264.92 504.07 C273.89 493.88, 285.02 486.61, 303.87 458.43 M266.89 505.29 C279.2 488.92, 294.97 472.33, 306.28 459.81 M273.31 503.18 C282.03 494.72, 287.85 484.06, 303.75 464.53 M271.49 504.62 C278.5 495.9, 285.82 489.05, 304.74 466.29 M275.09 505.11 C285.05 497.4, 290.26 488.16, 304.15 472.48 M276.51 504.87 C284.15 496.28, 291.66 486.39, 305.62 471.13 M283.8 506.01 C288.53 494.12, 297.75 484.9, 304.58 476.65 M281.82 505.2 C289.45 495, 298.22 485.89, 305.94 478 M286.15 506.49 C290.32 501.1, 297.17 496.58, 303.72 482.8 M287.41 505.15 C292.46 497.77, 299.82 491.7, 305.3 484 M291.57 503.34 C298.46 498.62, 303.49 491.73, 307.07 489.84 M293.13 504.69 C295.85 500.77, 299.43 498.42, 306.64 488.71 M296.53 504 C298.92 503.36, 301.75 500.78, 304.88 496.91 M297.51 505.22 C300.73 501.56, 303.73 498.55, 305.78 496.14" stroke="#15aabf" stroke-width="0.5" fill="none"></path><path d="M1.25 0.34 C95.6 -1.12, 192.6 -0.74, 302.46 -1.28 M-0.08 -0.27 C105.45 -0.43, 211.84 0.68, 303.77 0.52 M303.66 -0.22 C301.37 171.58, 301.54 344.52, 303.58 503.36 M303.16 0 C303.82 162.55, 304.02 324.76, 303.38 503.66 M304.2 505.3 C195.52 502.23, 86.42 503.53, 0.75 503.27 M303.47 504.4 C203.82 502.71, 105.12 502.29, 0.04 503.19 M0.75 504.64 C0.4 332.13, 1.07 162.19, 0.04 -0.27 M0.06 503.96 C2.3 318.29, 2.07 133.39, 0.12 0.05" stroke="#000000" stroke-width="1" fill="none"></path></g><g transform="translate(719.9484184815951 151.71566166756634) rotate(0 48 12)"><text x="0" y="20" font-family="Cascadia, Segoe UI Emoji" font-size="20px" fill="#000000" text-anchor="start" style="white-space: pre;" direction="ltr">Blocklet</text></g><g stroke-linecap="round" transform="translate(673.4995659425326 418.7241299367603) rotate(0 92.871826171875 90.61328125000003)"><path d="M0 0.92 C72.74 1.02, 140.58 -2.19, 186.72 -1.5 M-0.39 -0.82 C54.78 1.38, 109.33 1.4, 186.16 -0.96 M185.98 -1.5 C187.43 52.63, 187.68 103.19, 186.19 181.79 M185.85 0.42 C186.14 66.42, 185.96 132.34, 186.34 181.38 M187.67 179.66 C136.16 183.28, 83.8 182.23, 0.55 182.26 M185.62 181.27 C140.76 182.05, 94.43 181.65, 0.4 180.94 M-0.43 179.53 C-0.45 126.67, -1.6 69.17, 1.35 -1.92 M0.89 180.36 C0.07 126.98, 0.04 72.93, 0.1 -0.83" stroke="#000000" stroke-width="1" fill="none"></path></g><g transform="translate(728.8668755128451 570.1560757375414) rotate(0 43 10)"><text x="43" y="16" font-family="Cascadia, Segoe UI Emoji" font-size="16px" fill="#000000" text-anchor="middle" style="white-space: pre;" direction="ltr">Blocklet2</text></g><g transform="translate(707.6543510987826 517.920992191478) rotate(0 57 9.5)"><text x="0" y="16" font-family="Cascadia, Segoe UI Emoji" font-size="15.888384650735283px" fill="#000000" text-anchor="start" style="white-space: pre;" direction="ltr">Component2-2</text></g><g stroke-linecap="round" transform="translate(697.8434380128451 502.628533264548) rotate(0 65.85382080078125 23.4879150390625)"><path d="M11.74 0 M11.74 0 C45.67 -2.07, 74.93 -0.07, 119.96 0 M11.74 0 C35.74 -0.26, 59.66 0.63, 119.96 0 M119.96 0 C129.18 1.55, 133.14 4.75, 131.71 11.74 M119.96 0 C125.58 -0.27, 133 3.28, 131.71 11.74 M131.71 11.74 C131.92 19.99, 130.25 26.84, 131.71 35.23 M131.71 11.74 C131.86 19.55, 132.28 27.78, 131.71 35.23 M131.71 35.23 C131.7 43.95, 126.75 48.17, 119.96 46.98 M131.71 35.23 C132.05 42.54, 129.36 49.23, 119.96 46.98 M119.96 46.98 C77.31 49.03, 33.38 48.55, 11.74 46.98 M119.96 46.98 C82.64 47.25, 43.89 48.07, 11.74 46.98 M11.74 46.98 C2.85 47.07, -1.86 43.85, 0 35.23 M11.74 46.98 C3.26 47.14, 2.17 45.28, 0 35.23 M0 35.23 C1.33 28.8, -0.49 23.51, 0 11.74 M0 35.23 C0.22 31.33, -0.86 25.99, 0 11.74 M0 11.74 C-0.09 4.51, 4.14 0.2, 11.74 0 M0 11.74 C-1.91 4.19, 3.03 1.21, 11.74 0" stroke="#000000" stroke-width="1" fill="none"></path></g><g transform="translate(707.1574638917514 455.28811865632184) rotate(0 57 9.5)"><text x="0" y="16" font-family="Cascadia, Segoe UI Emoji" font-size="15.888384650735283px" fill="#000000" text-anchor="start" style="white-space: pre;" direction="ltr">Component2-1</text></g><g stroke-linecap="round" transform="translate(697.9191826417514 439.1821831668917) rotate(0 65.85382080078125 23.4879150390625)"><path d="M11.74 0 M11.74 0 C52.92 1.53, 96.12 0.4, 119.96 0 M11.74 0 C42.13 0.93, 74.86 1.19, 119.96 0 M119.96 0 C129.22 0.83, 129.79 3.68, 131.71 11.74 M119.96 0 C129.09 -0.64, 131.98 2.19, 131.71 11.74 M131.71 11.74 C130.48 20.02, 132.32 28.74, 131.71 35.23 M131.71 11.74 C132.12 19.12, 131.7 25.69, 131.71 35.23 M131.71 35.23 C130.66 44.26, 128.09 46.52, 119.96 46.98 M131.71 35.23 C133.28 45.32, 130.01 45.18, 119.96 46.98 M119.96 46.98 C76.4 48.08, 35.51 46.45, 11.74 46.98 M119.96 46.98 C83.58 47.53, 46.58 46.89, 11.74 46.98 M11.74 46.98 C2.05 47.77, -0.57 43.21, 0 35.23 M11.74 46.98 C6.08 49.19, -0.5 41.11, 0 35.23 M0 35.23 C-0.82 28.06, -2.06 18.17, 0 11.74 M0 35.23 C-0.91 28.18, -0.1 20.77, 0 11.74 M0 11.74 C0.23 4.11, 2.26 0.24, 11.74 0 M0 11.74 C-0.88 5.12, 5.6 2.03, 11.74 0" stroke="#000000" stroke-width="1" fill="none"></path></g><g transform="translate(723.0281914308139 267.2692438929872) rotate(0 47.5 9.5)"><text x="0" y="16" font-family="Cascadia, Segoe UI Emoji" font-size="15.888384650735283px" fill="#000000" text-anchor="start" style="white-space: pre;" direction="ltr">Component1</text></g><g stroke-linecap="round" transform="translate(680.0518120362826 207.78917851326946) rotate(0 88.9576416015625 90.61328125)"><path d="M-1.5 -0.16 C44.04 -1.6, 87.78 -2.51, 178.93 1.38 M-0.96 -0.12 C67.71 -1.02, 134.42 -1.49, 178.25 0.19 M178.48 1.33 C176.51 62.7, 176.96 126.26, 179.16 181.22 M178.07 -0.23 C177.65 63.4, 177.93 124.05, 178.86 181.34 M178.95 180.15 C116.15 183.18, 52.68 181.8, 1.39 180.16 M177.63 181.3 C124.61 182.89, 69.21 181.08, 0.63 181.79 M-1.92 181.21 C0.91 126.33, 2.4 68.84, 0.65 -0.09 M-0.83 181.35 C-0.59 121.97, 0.52 62.55, -0.58 0.84" stroke="#000000" stroke-width="1" fill="none"></path></g><g transform="translate(727.2850884034701 354.48436894295696) rotate(0 43 10)"><text x="43" y="16" font-family="Cascadia, Segoe UI Emoji" font-size="16px" fill="#000000" text-anchor="middle" style="white-space: pre;" direction="ltr">Blocklet1</text></g><g stroke-linecap="round" transform="translate(703.8503349855014 252.7897122121509) rotate(0 65.85382080078125 23.4879150390625)"><path d="M11.74 0 M11.74 0 C49.25 -0.65, 86.45 -1.56, 119.96 0 M11.74 0 C50.39 -0.42, 86.65 -0.96, 119.96 0 M119.96 0 C128.92 -0.56, 131.95 2.41, 131.71 11.74 M119.96 0 C128.56 0.45, 132.77 2.45, 131.71 11.74 M131.71 11.74 C131.52 19.3, 131.98 27.72, 131.71 35.23 M131.71 11.74 C131.18 20.84, 131.86 28.52, 131.71 35.23 M131.71 35.23 C133.07 45.02, 129.72 45.41, 119.96 46.98 M131.71 35.23 C133.89 43.33, 128.97 46.04, 119.96 46.98 M119.96 46.98 C85.25 47.85, 48.83 46.47, 11.74 46.98 M119.96 46.98 C79.06 47.42, 39.74 47.1, 11.74 46.98 M11.74 46.98 C5.8 48.9, -0.43 41.36, 0 35.23 M11.74 46.98 C5.36 48.28, 0.12 42.27, 0 35.23 M0 35.23 C0.51 27.03, 2 16.24, 0 11.74 M0 35.23 C0.12 27.52, -0.82 19.73, 0 11.74 M0 11.74 C-0.77 4.96, 5.38 1.76, 11.74 0 M0 11.74 C-1.33 5.85, 4.08 -0.51, 11.74 0" stroke="#000000" stroke-width="1" fill="none"></path></g><g stroke-linecap="round"><g transform="translate(170.3993405165129 274.1245083323488) rotate(0 83.00166468683085 -0.5837715158360766)"><path d="M-0.72 -0.11 C26.87 -0.33, 138.67 -0.87, 166.72 -0.97 M1.1 -1.22 C28.4 -1.35, 137.93 -0.19, 165.6 0.06" stroke="#000000" stroke-width="1" fill="none"></path></g><g transform="translate(170.3993405165129 274.1245083323488) rotate(0 83.00166468683085 -0.5837715158360766)"><path d="M137.12 9.5 C146.94 7.17, 158.69 3.57, 164.71 1.48 M136.36 10.5 C148.78 6.93, 158.43 3.06, 166.07 0.12" stroke="#000000" stroke-width="1" fill="none"></path></g><g transform="translate(170.3993405165129 274.1245083323488) rotate(0 83.00166468683085 -0.5837715158360766)"><path d="M137.32 -11.02 C147.12 -5.17, 158.78 -0.6, 164.71 1.48 M136.56 -10.02 C148.96 -5.74, 158.53 -1.74, 166.07 0.12" stroke="#000000" stroke-width="1" fill="none"></path></g></g><mask></mask><g stroke-linecap="round"><g transform="translate(172.2127875409501 455.7075878630522) rotate(0 78.25613943971757 0.11833747641182413)"><path d="M-0.84 -0.94 C25.37 -0.88, 131.21 0.86, 157.35 0.98 M0.92 1.18 C27.01 0.86, 130.43 -0.6, 156.7 -0.62" stroke="#000000" stroke-width="1" fill="none"></path></g><g transform="translate(172.2127875409501 455.7075878630522) rotate(0 78.25613943971757 0.11833747641182413)"><path d="M127.03 10.82 C138.82 5.57, 145.55 2.05, 158.61 0.08 M128.88 10.74 C136.14 7.8, 143.28 4.07, 155.73 -0.66" stroke="#000000" stroke-width="1" fill="none"></path></g><g transform="translate(172.2127875409501 455.7075878630522) rotate(0 78.25613943971757 0.11833747641182413)"><path d="M126.86 -9.71 C138.81 -8.64, 145.59 -5.86, 158.61 0.08 M128.7 -9.78 C136.19 -7.27, 143.38 -5.55, 155.73 -0.66" stroke="#000000" stroke-width="1" fill="none"></path></g></g><mask></mask><g stroke-linecap="round"><g transform="translate(170.48923765789232 527.0964158180007) rotate(0 78.3663422494991 0.03338860510820041)"><path d="M0.5 -0.99 C26.72 -1.2, 131.06 -0.76, 157.42 -0.71 M-0.69 1.11 C25.34 0.99, 129.82 0.59, 156.34 0.45" stroke="#000000" stroke-width="1" fill="none"></path></g><g transform="translate(170.48923765789232 527.0964158180007) rotate(0 78.3663422494991 0.03338860510820041)"><path d="M126.55 10.4 C135.64 9.15, 144.38 4.6, 155.51 -1.51 M128.73 11.75 C137.65 7.39, 145.71 3.38, 156 -0.48" stroke="#000000" stroke-width="1" fill="none"></path></g><g transform="translate(170.48923765789232 527.0964158180007) rotate(0 78.3663422494991 0.03338860510820041)"><path d="M126.46 -10.12 C135.68 -5.03, 144.45 -3.25, 155.51 -1.51 M128.64 -8.78 C137.79 -6.73, 145.88 -4.33, 156 -0.48" stroke="#000000" stroke-width="1" fill="none"></path></g></g><mask></mask><g stroke-linecap="round"><g transform="translate(568.3937248065515 280.83937980766774) rotate(0 63.09398377198954 0.14853687985467445)"><path d="M0.8 0.29 C21.62 0.05, 103.51 -0.56, 124.08 -0.68 M-0.24 -0.61 C21.05 -0.69, 105.86 1.25, 126.42 0.94" stroke="#000000" stroke-width="1" fill="none"></path></g><g transform="translate(568.3937248065515 280.83937980766774) rotate(0 63.09398377198954 0.14853687985467445)"><path d="M98.64 9.85 C104.82 7.58, 111.78 6.02, 127.15 -0.67 M98.16 11.95 C104.29 8.04, 111.35 6.34, 125.92 0.11" stroke="#000000" stroke-width="1" fill="none"></path></g><g transform="translate(568.3937248065515 280.83937980766774) rotate(0 63.09398377198954 0.14853687985467445)"><path d="M98.78 -10.67 C105.05 -8.24, 111.98 -5.1, 127.15 -0.67 M98.29 -8.58 C104.32 -7.46, 111.35 -4.13, 125.92 0.11" stroke="#000000" stroke-width="1" fill="none"></path></g></g><mask></mask><g stroke-linecap="round"><g transform="translate(562.909518938121 467.89381546153976) rotate(0 62.50496227219935 -0.682996831368655)"><path d="M-0.6 0.05 C20.5 -0.13, 104.6 -1.37, 125.61 -1.42 M1.28 -0.97 C22.38 -0.97, 104.47 0.02, 125.1 -0.19" stroke="#000000" stroke-width="1" fill="none"></path></g><g transform="translate(562.909518938121 467.89381546153976) rotate(0 62.50496227219935 -0.682996831368655)"><path d="M96.97 11.39 C102.07 9.09, 110.25 4.37, 123.43 0.08 M97.46 9.04 C102.24 8.37, 108.09 4.83, 124.62 0.57" stroke="#000000" stroke-width="1" fill="none"></path></g><g transform="translate(562.909518938121 467.89381546153976) rotate(0 62.50496227219935 -0.682996831368655)"><path d="M97.02 -9.13 C102.06 -6.95, 110.22 -7.2, 123.43 0.08 M97.5 -11.48 C102.44 -7.86, 108.29 -7.11, 124.62 0.57" stroke="#000000" stroke-width="1" fill="none"></path></g></g><mask></mask><g stroke-linecap="round"><g transform="translate(561.971530656871 531.7586225904461) rotate(0 62.71499922583109 -0.12920807130637968)"><path d="M0.61 -1.06 C21.62 -1.33, 105.23 -1.16, 125.96 -1.25 M-0.53 0.99 C20.44 0.86, 104.82 0.34, 125.63 0.06" stroke="#000000" stroke-width="1" fill="none"></path></g><g transform="translate(561.971530656871 531.7586225904461) rotate(0 62.71499922583109 -0.12920807130637968)"><path d="M95.76 12.55 C104.92 7.78, 112.52 4.05, 125.96 -1.22 M97.62 10.15 C108.66 6.99, 119.94 3.2, 126.35 -0.72" stroke="#000000" stroke-width="1" fill="none"></path></g><g transform="translate(561.971530656871 531.7586225904461) rotate(0 62.71499922583109 -0.12920807130637968)"><path d="M95.58 -7.97 C104.85 -6.8, 112.5 -4.59, 125.96 -1.22 M97.44 -10.37 C108.48 -5.56, 119.83 -1.38, 126.35 -0.72" stroke="#000000" stroke-width="1" fill="none"></path></g></g><mask></mask><g transform="translate(206.22935592276644 10) rotate(0 243.5 22)"><text x="0" y="35" font-family="Cascadia, Segoe UI Emoji" font-size="36px" fill="#000000" text-anchor="start" style="white-space: pre;" direction="ltr">Blocklet Access Control</text></g><g stroke-linecap="round" transform="translate(10 80.19490933282879) rotate(0 79.82565307617176 313.7584991455078)"><path d="M0.22 -1.46 C53.5 0.95, 111.14 -0.44, 161.59 0.14 M-0.38 0.3 C36.7 -0.02, 73.03 -0.58, 159.09 -0.19 M158.89 -0.76 C161.64 163.83, 161.76 326.17, 159.88 627.78 M159.26 0.04 C158.03 208.99, 157.83 418.2, 159.57 627.83 M161.48 625.97 C113.36 628.3, 66.09 628.81, -1.89 626.31 M160.58 626.97 C127.29 627.45, 93.05 626.81, -0.46 628.08 M-0.11 627.92 C1.32 465.21, 1.87 304.71, 0.26 0.12 M0.14 627.76 C1.31 460.47, 2.06 292.79, -0.06 -0.06" stroke="#000000" stroke-width="1" fill="none"></path></g><g transform="translate(21.58978271484375 648.3061916814615) rotate(0 64.5 22)"><text x="0" y="35" font-family="Cascadia, Segoe UI Emoji" font-size="36px" fill="#000000" text-anchor="start" style="white-space: pre;" direction="ltr">Client</text></g></svg>