<svg version="1.1" xmlns="http://www.w3.org/2000/svg" viewBox="0 0 948.591536165774 441.796875" width="948.591536165774" height="441.796875">
  <!-- svg-source:excalidraw -->
  
  <defs>
    <style>
      @font-face {
        font-family: "Virgil";
        src: url("https://excalidraw.com/Virgil.woff2");
      }
      @font-face {
        font-family: "Cascadia";
        src: url("https://excalidraw.com/Cascadia.woff2");
      }
    </style>
  </defs>
  <rect x="0" y="0" width="948.591536165774" height="441.796875" fill="#ffffff"></rect><g stroke-linecap="round"><g transform="translate(11.524692727522961 53.6328125) rotate(0 462.771075355364 0.2261781238019296)"><path d="M-0.04 1.01 C153.92 0.75, 770.6 -0.3, 924.73 -0.56 M-1.52 0.5 C152.75 0.29, 772.27 0.58, 927.07 0.55" stroke="#000000" stroke-width="1" fill="none"></path></g><g transform="translate(11.524692727522961 53.6328125) rotate(0 462.771075355364 0.2261781238019296)"><path d="M900.56 9.62 C908.05 5.77, 918.69 2.63, 927.39 0.27 M899.75 10.38 C908.95 7.27, 918.26 3.66, 926.29 -0.33" stroke="#000000" stroke-width="1" fill="none"></path></g><g transform="translate(11.524692727522961 53.6328125) rotate(0 462.771075355364 0.2261781238019296)"><path d="M900.56 -10.9 C908.22 -7.02, 918.86 -2.43, 927.39 0.27 M899.76 -10.14 C909.09 -6.52, 918.4 -3.41, 926.29 -0.33" stroke="#000000" stroke-width="1" fill="none"></path></g></g><g transform="translate(353.24734897752296 10) rotate(0 123.5 12)"><text x="0" y="19" font-family="Cascadia, Segoe UI Emoji" font-size="20px" fill="#000000" text-anchor="start" style="white-space: pre;" direction="ltr">The Blocklet Workflow</text></g><g stroke-linecap="round" transform="translate(18.51688022752296 89.474609375) rotate(0 90.73828125 154.865234375)"><path d="M0 0 C0 0, 0 0, 0 0 M0 0 C0 0, 0 0, 0 0 M-0.26 6.4 C1.63 4.22, 3.52 2.05, 4.99 0.36 M-0.26 6.4 C1.81 4.01, 3.88 1.63, 4.99 0.36 M0.13 12.04 C2.53 9.28, 4.93 6.53, 10.63 -0.03 M0.13 12.04 C3.68 7.96, 7.22 3.89, 10.63 -0.03 M-0.13 18.44 C5.8 11.62, 11.73 4.8, 15.62 0.33 M-0.13 18.44 C3.57 14.19, 7.27 9.93, 15.62 0.33 M0.27 24.08 C7.77 15.45, 15.28 6.81, 21.26 -0.07 M0.27 24.08 C6.57 16.83, 12.87 9.58, 21.26 -0.07 M0 30.48 C6.78 22.68, 13.56 14.89, 26.25 0.29 M0 30.48 C7.99 21.29, 15.97 12.11, 26.25 0.29 M-0.26 36.88 C8.37 26.95, 17 17.03, 31.89 -0.1 M-0.26 36.88 C9.54 25.61, 19.34 14.33, 31.89 -0.1 M0.14 42.52 C9.3 31.98, 18.46 21.44, 36.88 0.26 M0.14 42.52 C14.06 26.51, 27.98 10.5, 36.88 0.26 M-0.12 48.92 C12.8 34.05, 25.72 19.19, 42.52 -0.14 M-0.12 48.92 C14.95 31.58, 30.03 14.23, 42.52 -0.14 M0.27 54.56 C16.36 36.06, 32.44 17.55, 47.51 0.22 M0.27 54.56 C16.21 36.23, 32.15 17.89, 47.51 0.22 M0.01 60.96 C13.34 45.63, 26.66 30.3, 53.15 -0.17 M0.01 60.96 C13.39 45.57, 26.77 30.18, 53.15 -0.17 M-0.25 67.36 C15.48 49.26, 31.22 31.16, 58.14 0.19 M-0.25 67.36 C20.87 43.06, 42 18.76, 58.14 0.19 M0.14 73 C22.27 47.55, 44.39 22.1, 63.78 -0.21 M0.14 73 C13.37 57.78, 26.61 42.56, 63.78 -0.21 M-0.12 79.4 C21.97 53.99, 44.06 28.58, 68.77 0.15 M-0.12 79.4 C23.1 52.69, 46.31 25.99, 68.77 0.15 M0.28 85.04 C20.79 61.45, 41.3 37.85, 74.41 -0.24 M0.28 85.04 C17.59 65.12, 34.91 45.2, 74.41 -0.24 M0.01 91.44 C25.86 61.71, 51.7 31.98, 79.4 0.12 M0.01 91.44 C19.95 68.5, 39.89 45.56, 79.4 0.12 M-0.25 97.84 C31.1 61.77, 62.46 25.71, 85.04 -0.28 M-0.25 97.84 C29.05 64.14, 58.34 30.44, 85.04 -0.28 M0.15 103.48 C23.73 76.35, 47.31 49.23, 90.03 0.08 M0.15 103.48 C35.7 62.58, 71.26 21.67, 90.03 0.08 M-0.11 109.88 C37.93 66.11, 75.97 22.35, 95.67 -0.31 M-0.11 109.88 C33.93 70.72, 67.97 31.56, 95.67 -0.31 M0.28 115.52 C26 85.93, 51.72 56.35, 100.66 0.05 M0.28 115.52 C36.88 73.42, 73.48 31.31, 100.66 0.05 M0.02 121.92 C41.36 74.36, 82.71 26.79, 106.3 -0.34 M0.02 121.92 C30.87 86.43, 61.72 50.93, 106.3 -0.34 M-0.24 128.32 C42.05 79.66, 84.35 31, 111.29 0.02 M-0.24 128.32 C28.29 95.5, 56.81 62.68, 111.29 0.02 M0.15 133.96 C24.95 105.43, 49.75 76.91, 116.27 0.38 M0.15 133.96 C43.38 84.23, 86.6 34.51, 116.27 0.38 M-0.11 140.36 C30.43 105.23, 60.96 70.1, 121.92 -0.02 M-0.11 140.36 C32.8 102.5, 65.72 64.63, 121.92 -0.02 M0.29 146 C49.43 89.47, 98.56 32.94, 126.91 0.34 M0.29 146 C29.21 112.72, 58.14 79.45, 126.91 0.34 M0.02 152.4 C31.17 116.57, 62.32 80.74, 132.55 -0.05 M0.02 152.4 C41.13 105.11, 82.23 57.83, 132.55 -0.05 M-0.24 158.8 C37.91 114.91, 76.06 71.03, 137.54 0.31 M-0.24 158.8 C39.61 112.96, 79.46 67.12, 137.54 0.31 M0.16 164.44 C35.37 123.93, 70.59 83.42, 143.18 -0.09 M0.16 164.44 C55.08 101.26, 110 38.08, 143.18 -0.09 M-0.1 170.84 C43.04 121.2, 86.19 71.57, 148.17 0.27 M-0.1 170.84 C57.43 104.65, 114.96 38.47, 148.17 0.27 M0.29 176.48 C53 115.84, 105.71 55.2, 153.81 -0.12 M0.29 176.48 C31.19 140.94, 62.08 105.39, 153.81 -0.12 M0.03 182.88 C45.82 130.21, 91.6 77.53, 158.8 0.24 M0.03 182.88 C57.41 116.87, 114.79 50.86, 158.8 0.24 M-0.23 189.27 C54.58 126.22, 109.39 63.17, 164.44 -0.16 M-0.23 189.27 C61.53 118.22, 123.29 47.17, 164.44 -0.16 M0.16 194.92 C63.45 122.11, 126.74 49.31, 169.43 0.2 M0.16 194.92 C42.32 146.42, 84.48 97.92, 169.43 0.2 M-0.1 201.32 C64.35 127.17, 128.8 53.03, 175.07 -0.19 M-0.1 201.32 C38.73 156.64, 77.57 111.97, 175.07 -0.19 M0.3 206.96 C54.09 145.08, 107.88 83.2, 180.06 0.17 M0.3 206.96 C53.12 146.19, 105.95 85.42, 180.06 0.17 M0.03 213.36 C64.11 139.65, 128.18 65.95, 183.73 2.04 M0.03 213.36 C66.26 137.17, 132.48 60.99, 183.73 2.04 M-0.23 219.75 C48.08 164.18, 96.39 108.61, 183.47 8.44 M-0.23 219.75 C62.54 147.54, 125.31 75.33, 183.47 8.44 M0.17 225.4 C59.39 157.26, 118.62 89.13, 183.86 14.08 M0.17 225.4 C57.85 159.04, 115.54 92.68, 183.86 14.08 M-0.09 231.8 C56.96 166.16, 114.02 100.52, 183.6 20.48 M-0.09 231.8 C44.3 180.72, 88.7 129.65, 183.6 20.48 M0.3 237.44 C52.24 177.69, 104.17 117.95, 184 26.12 M0.3 237.44 C56.86 172.38, 113.41 107.32, 184 26.12 M0.04 243.84 C61.47 173.17, 122.9 102.5, 183.74 32.52 M0.04 243.84 C45.23 191.85, 90.41 139.87, 183.74 32.52 M-0.22 250.23 C67.83 171.95, 135.89 93.66, 183.47 38.92 M-0.22 250.23 C49.53 193, 99.28 135.77, 183.47 38.92 M0.17 255.88 C50.44 198.05, 100.71 140.23, 183.87 44.56 M0.17 255.88 C38.74 211.51, 77.3 167.15, 183.87 44.56 M-0.09 262.27 C50.12 204.52, 100.33 146.76, 183.61 50.96 M-0.09 262.27 C43.04 212.66, 86.17 163.05, 183.61 50.96 M0.3 267.92 C58.05 201.49, 115.8 135.06, 184 56.6 M0.3 267.92 C72.31 185.08, 144.32 102.24, 184 56.6 M0.04 274.32 C41.52 226.6, 82.99 178.89, 183.74 63 M0.04 274.32 C61.53 203.58, 123.01 132.85, 183.74 63 M-0.22 280.71 C52.97 219.53, 106.15 158.35, 183.48 69.39 M-0.22 280.71 C46.39 227.1, 93 173.48, 183.48 69.39 M0.18 286.36 C38.62 242.14, 77.05 197.92, 183.87 75.04 M0.18 286.36 C38.53 242.24, 76.88 198.12, 183.87 75.04 M-0.08 292.75 C51.17 233.8, 102.42 174.84, 183.61 81.44 M-0.08 292.75 C47.64 237.85, 95.37 182.95, 183.61 81.44 M0.31 298.4 C64.97 224.01, 129.63 149.63, 184.01 87.08 M0.31 298.4 C73.46 214.25, 146.61 130.09, 184.01 87.08 M0.05 304.8 C38.52 260.53, 77 216.27, 183.74 93.48 M0.05 304.8 C51.13 246.03, 102.22 187.26, 183.74 93.48 M0.44 310.44 C60.7 241.12, 120.95 171.81, 183.48 99.87 M0.44 310.44 C64.04 237.28, 127.64 164.12, 183.48 99.87 M6.09 310.04 C51.33 257.99, 96.58 205.94, 183.88 105.52 M6.09 310.04 C73.56 232.42, 141.03 154.81, 183.88 105.52 M11.07 310.4 C73.68 238.39, 136.28 166.37, 183.62 111.91 M11.07 310.4 C46.26 269.92, 81.45 229.44, 183.62 111.91 M16.72 310.01 C55.96 264.87, 95.2 219.72, 184.01 117.56 M16.72 310.01 C56.55 264.18, 96.39 218.35, 184.01 117.56 M21.7 310.37 C57.65 269.02, 93.59 227.68, 183.75 123.96 M21.7 310.37 C57.09 269.66, 92.47 228.96, 183.75 123.96 M27.35 309.97 C61.23 270.99, 95.12 232.01, 183.49 130.35 M27.35 309.97 C79.05 250.49, 130.76 191.01, 183.49 130.35 M32.33 310.33 C65.96 271.65, 99.59 232.96, 183.88 136 M32.33 310.33 C84.54 250.28, 136.74 190.23, 183.88 136 M37.98 309.94 C84.01 256.99, 130.04 204.03, 183.62 142.39 M37.98 309.94 C87.34 253.16, 136.7 196.37, 183.62 142.39 M42.96 310.3 C74.81 273.67, 106.65 237.03, 184.02 148.04 M42.96 310.3 C76.69 271.5, 110.42 232.7, 184.02 148.04 M48.61 309.91 C88.17 264.39, 127.74 218.88, 183.75 154.44 M48.61 309.91 C95.21 256.29, 141.82 202.68, 183.75 154.44 M53.59 310.27 C85.15 273.97, 116.7 237.67, 183.49 160.83 M53.59 310.27 C87.67 271.06, 121.75 231.86, 183.49 160.83 M58.58 310.63 C103.07 259.44, 147.57 208.26, 183.89 166.48 M58.58 310.63 C88.1 276.67, 117.61 242.72, 183.89 166.48 M64.22 310.23 C91.66 278.67, 119.09 247.12, 183.63 172.87 M64.22 310.23 C97.33 272.14, 130.44 234.06, 183.63 172.87 M69.21 310.59 C110.3 263.33, 151.38 216.06, 184.02 178.52 M69.21 310.59 C103.73 270.88, 138.25 231.17, 184.02 178.52 M74.85 310.2 C106.39 273.92, 137.92 237.65, 183.76 184.91 M74.85 310.2 C102.1 278.85, 129.35 247.51, 183.76 184.91 M79.84 310.56 C100.86 286.37, 121.89 262.19, 183.5 191.31 M79.84 310.56 C104 282.76, 128.16 254.97, 183.5 191.31 M85.48 310.16 C112.29 279.32, 139.1 248.48, 183.89 196.96 M85.48 310.16 C110.13 281.81, 134.78 253.46, 183.89 196.96 M90.47 310.52 C112.69 284.96, 134.91 259.4, 183.63 203.35 M90.47 310.52 C121.09 275.3, 151.71 240.07, 183.63 203.35 M96.11 310.13 C129.12 272.16, 162.12 234.19, 184.03 209 M96.11 310.13 C118.14 284.79, 140.17 259.45, 184.03 209 M101.1 310.49 C122.63 285.72, 144.16 260.96, 183.76 215.39 M101.1 310.49 C124.79 283.24, 148.48 255.98, 183.76 215.39 M106.74 310.09 C133.03 279.85, 159.32 249.61, 183.5 221.79 M106.74 310.09 C131.78 281.29, 156.82 252.49, 183.5 221.79 M111.73 310.45 C134.17 284.64, 156.6 258.83, 183.9 227.44 M111.73 310.45 C126.81 293.11, 141.89 275.76, 183.9 227.44 M117.37 310.06 C134.89 289.91, 152.4 269.77, 183.64 233.83 M117.37 310.06 C134.34 290.54, 151.3 271.03, 183.64 233.83 M122.36 310.42 C139.57 290.62, 156.79 270.82, 184.03 239.48 M122.36 310.42 C134.77 296.15, 147.17 281.88, 184.03 239.48 M128 310.02 C149.11 285.74, 170.22 261.46, 183.77 245.87 M128 310.02 C145.96 289.37, 163.92 268.71, 183.77 245.87 M132.99 310.38 C148.21 292.88, 163.42 275.38, 183.51 252.27 M132.99 310.38 C151.76 288.79, 170.53 267.2, 183.51 252.27 M138.63 309.99 C150.85 295.94, 163.06 281.89, 183.9 257.91 M138.63 309.99 C152.63 293.89, 166.63 277.79, 183.9 257.91 M143.62 310.35 C158.03 293.78, 172.44 277.2, 183.64 264.31 M143.62 310.35 C152.9 299.68, 162.18 289, 183.64 264.31 M149.26 309.96 C158.63 299.18, 167.99 288.41, 184.04 269.96 M149.26 309.96 C159.89 297.73, 170.52 285.51, 184.04 269.96 M154.25 310.32 C162.68 300.62, 171.11 290.92, 183.77 276.35 M154.25 310.32 C163.01 300.24, 171.77 290.17, 183.77 276.35 M159.89 309.92 C165.93 302.98, 171.96 296.03, 183.51 282.75 M159.89 309.92 C167.04 301.7, 174.19 293.48, 183.51 282.75 M164.88 310.28 C171.62 302.53, 178.36 294.77, 183.91 288.39 M164.88 310.28 C170.28 304.07, 175.68 297.86, 183.91 288.39 M170.52 309.89 C173.85 306.06, 177.18 302.23, 183.65 294.79 M170.52 309.89 C175.7 303.93, 180.88 297.98, 183.65 294.79 M175.51 310.25 C177.99 307.4, 180.46 304.55, 184.04 300.44 M175.51 310.25 C178.19 307.16, 180.87 304.08, 184.04 300.44 M180.5 310.61 C181.27 309.72, 182.04 308.83, 183.78 306.83 M180.5 310.61 C181.74 309.18, 182.98 307.75, 183.78 306.83" stroke="#ced4da" stroke-width="0.5" fill="none"></path><path d="M0 0 C37.99 0, 75.99 0, 181.48 0 M0 0 C59.29 0, 118.57 0, 181.48 0 M181.48 0 C181.48 87.55, 181.48 175.11, 181.48 309.73 M181.48 0 C181.48 67.19, 181.48 134.38, 181.48 309.73 M181.48 309.73 C112.64 309.73, 43.8 309.73, 0 309.73 M181.48 309.73 C118.82 309.73, 56.16 309.73, 0 309.73 M0 309.73 C0 213, 0 116.27, 0 0 M0 309.73 C0 213.06, 0 116.39, 0 0" stroke="#000000" stroke-width="1" fill="none"></path></g><g transform="translate(34.04813022752296 406.705078125) rotate(0 76.5 12)"><text x="0" y="19" font-family="Cascadia, Segoe UI Emoji" font-size="20px" fill="#000000" text-anchor="start" style="white-space: pre;" direction="ltr">Bootstrapping</text></g><g transform="translate(29.21219272752296 122.951171875) rotate(0 80 19)"><text x="0" y="15" font-family="Cascadia, Segoe UI Emoji" font-size="16px" fill="#000000" text-anchor="start" style="white-space: pre;" direction="ltr">- Blocklet CLI</text><text x="0" y="34" font-family="Cascadia, Segoe UI Emoji" font-size="16px" fill="#000000" text-anchor="start" style="white-space: pre;" direction="ltr">- Create Blocklet</text></g><g stroke-linecap="round" transform="translate(254.91792189418965 88.3828125) rotate(0 90.73828125000003 154.865234375)"><path d="M0 0 C0 0, 0 0, 0 0 M0 0 C0 0, 0 0, 0 0 M-0.26 6.4 C0.8 5.17, 1.87 3.95, 4.99 0.36 M-0.26 6.4 C0.92 5.03, 2.11 3.67, 4.99 0.36 M0.13 12.04 C2.3 9.55, 4.46 7.06, 10.63 -0.03 M0.13 12.04 C3.15 8.57, 6.17 5.1, 10.63 -0.03 M-0.13 18.44 C5.94 11.46, 12.01 4.48, 15.62 0.33 M-0.13 18.44 C5.95 11.45, 12.03 4.45, 15.62 0.33 M0.27 24.08 C7.1 16.22, 13.94 8.36, 21.26 -0.07 M0.27 24.08 C4.47 19.24, 8.68 14.41, 21.26 -0.07 M0 30.48 C5.3 24.38, 10.6 18.29, 26.25 0.29 M0 30.48 C5.48 24.18, 10.96 17.88, 26.25 0.29 M-0.26 36.88 C10.96 23.98, 22.17 11.07, 31.89 -0.1 M-0.26 36.88 C6.86 28.68, 13.99 20.49, 31.89 -0.1 M0.14 42.52 C8.55 32.85, 16.96 23.17, 36.88 0.26 M0.14 42.52 C11.58 29.35, 23.03 16.19, 36.88 0.26 M-0.12 48.92 C8.45 39.05, 17.03 29.19, 42.52 -0.14 M-0.12 48.92 C14.61 31.97, 29.34 15.02, 42.52 -0.14 M0.27 54.56 C13.97 38.8, 27.67 23.04, 47.51 0.22 M0.27 54.56 C15.17 37.42, 30.07 20.28, 47.51 0.22 M0.01 60.96 C18.84 39.3, 37.67 17.64, 53.15 -0.17 M0.01 60.96 C14.34 44.47, 28.67 27.98, 53.15 -0.17 M-0.25 67.36 C14.68 50.18, 29.61 33.01, 58.14 0.19 M-0.25 67.36 C14.02 50.93, 28.3 34.51, 58.14 0.19 M0.14 73 C14.62 56.35, 29.09 39.7, 63.78 -0.21 M0.14 73 C25.27 44.1, 50.39 15.19, 63.78 -0.21 M-0.12 79.4 C16.64 60.12, 33.4 40.84, 68.77 0.15 M-0.12 79.4 C22.33 53.57, 44.79 27.74, 68.77 0.15 M0.28 85.04 C28.91 52.1, 57.54 19.17, 74.41 -0.24 M0.28 85.04 C16.92 65.89, 33.57 46.74, 74.41 -0.24 M0.01 91.44 C17.24 71.62, 34.47 51.8, 79.4 0.12 M0.01 91.44 C30.98 55.82, 61.95 20.19, 79.4 0.12 M-0.25 97.84 C29.03 64.16, 58.3 30.48, 85.04 -0.28 M-0.25 97.84 C30.95 61.94, 62.16 26.05, 85.04 -0.28 M0.15 103.48 C35.01 63.37, 69.88 23.26, 90.03 0.08 M0.15 103.48 C24.45 75.52, 48.75 47.57, 90.03 0.08 M-0.11 109.88 C34.19 70.42, 68.49 30.96, 95.67 -0.31 M-0.11 109.88 C31.37 73.66, 62.85 37.45, 95.67 -0.31 M0.28 115.52 C21.76 90.81, 43.24 66.11, 100.66 0.05 M0.28 115.52 C20.69 92.04, 41.11 68.55, 100.66 0.05 M0.02 121.92 C25.23 92.92, 50.44 63.92, 106.3 -0.34 M0.02 121.92 C34.68 82.04, 69.35 42.17, 106.3 -0.34 M-0.24 128.32 C22.07 102.65, 44.37 76.99, 111.29 0.02 M-0.24 128.32 C25.28 98.96, 50.79 69.61, 111.29 0.02 M0.15 133.96 C38.91 89.37, 77.67 44.79, 116.27 0.38 M0.15 133.96 C32.04 97.28, 63.92 60.6, 116.27 0.38 M-0.11 140.36 C36.23 98.56, 72.56 56.76, 121.92 -0.02 M-0.11 140.36 C47.41 85.69, 94.94 31.02, 121.92 -0.02 M0.29 146 C44.35 95.31, 88.41 44.63, 126.91 0.34 M0.29 146 C50.09 88.71, 99.89 31.42, 126.91 0.34 M0.02 152.4 C40.55 105.78, 81.07 59.16, 132.55 -0.05 M0.02 152.4 C43.93 101.89, 87.83 51.39, 132.55 -0.05 M-0.24 158.8 C44.79 107, 89.82 55.2, 137.54 0.31 M-0.24 158.8 C27.99 126.32, 56.22 93.85, 137.54 0.31 M0.16 164.44 C38.71 120.09, 77.27 75.74, 143.18 -0.09 M0.16 164.44 C43.55 114.52, 86.94 64.61, 143.18 -0.09 M-0.1 170.84 C39.07 125.77, 78.25 80.7, 148.17 0.27 M-0.1 170.84 C49.56 113.71, 99.22 56.58, 148.17 0.27 M0.29 176.48 C43.49 126.78, 86.7 77.08, 153.81 -0.12 M0.29 176.48 C55.24 113.27, 110.19 50.06, 153.81 -0.12 M0.03 182.88 C47.81 127.91, 95.59 72.94, 158.8 0.24 M0.03 182.88 C49.6 125.86, 99.16 68.84, 158.8 0.24 M-0.23 189.27 C45.97 136.13, 92.17 82.98, 164.44 -0.16 M-0.23 189.27 C57.44 122.93, 115.12 56.58, 164.44 -0.16 M0.16 194.92 C55.11 131.7, 110.06 68.49, 169.43 0.2 M0.16 194.92 C62.55 123.15, 124.93 51.39, 169.43 0.2 M-0.1 201.32 C44.23 150.32, 88.56 99.33, 175.07 -0.19 M-0.1 201.32 C59.25 133.04, 118.59 64.77, 175.07 -0.19 M0.3 206.96 C66.78 130.48, 133.26 54, 180.06 0.17 M0.3 206.96 C43.27 157.52, 86.24 108.09, 180.06 0.17 M0.03 213.36 C42.63 164.35, 85.23 115.35, 183.73 2.04 M0.03 213.36 C70.78 131.97, 141.53 50.58, 183.73 2.04 M-0.23 219.75 C39.8 173.71, 79.83 127.66, 183.47 8.44 M-0.23 219.75 C66.23 143.3, 132.7 66.84, 183.47 8.44 M0.17 225.4 C54.71 162.66, 109.25 99.92, 183.86 14.08 M0.17 225.4 C65.19 150.6, 130.22 75.79, 183.86 14.08 M-0.09 231.8 C72.86 147.87, 145.81 63.95, 183.6 20.48 M-0.09 231.8 C50.98 173.04, 102.06 114.28, 183.6 20.48 M0.3 237.44 C69.14 158.24, 137.99 79.05, 184 26.12 M0.3 237.44 C57.82 171.27, 115.34 105.1, 184 26.12 M0.04 243.84 C70.33 162.97, 140.63 82.11, 183.74 32.52 M0.04 243.84 C42.69 194.77, 85.35 145.7, 183.74 32.52 M-0.22 250.23 C43.7 199.71, 87.62 149.18, 183.47 38.92 M-0.22 250.23 C61.05 179.75, 122.32 109.27, 183.47 38.92 M0.17 255.88 C73.01 172.08, 145.85 88.29, 183.87 44.56 M0.17 255.88 C68.46 177.31, 136.76 98.75, 183.87 44.56 M-0.09 262.27 C56.92 196.69, 113.93 131.12, 183.61 50.96 M-0.09 262.27 C53.05 201.14, 106.19 140.01, 183.61 50.96 M0.3 267.92 C38.44 224.05, 76.58 180.18, 184 56.6 M0.3 267.92 C64.12 194.51, 127.93 121.11, 184 56.6 M0.04 274.32 C47.04 220.26, 94.03 166.19, 183.74 63 M0.04 274.32 C47.36 219.89, 94.67 165.46, 183.74 63 M-0.22 280.71 C60.71 210.62, 121.64 140.53, 183.48 69.39 M-0.22 280.71 C57.24 214.62, 114.69 148.52, 183.48 69.39 M0.18 286.36 C71.78 203.99, 143.38 121.62, 183.87 75.04 M0.18 286.36 C58.72 219.01, 117.26 151.67, 183.87 75.04 M-0.08 292.75 C42.42 243.86, 84.93 194.96, 183.61 81.44 M-0.08 292.75 C59.59 224.1, 119.27 155.45, 183.61 81.44 M0.31 298.4 C50.51 240.65, 100.7 182.91, 184.01 87.08 M0.31 298.4 C65.73 223.14, 131.14 147.89, 184.01 87.08 M0.05 304.8 C58.15 237.96, 116.24 171.13, 183.74 93.48 M0.05 304.8 C63.18 232.17, 126.3 159.55, 183.74 93.48 M0.44 310.44 C57.96 244.27, 115.48 178.1, 183.48 99.87 M0.44 310.44 C47.38 256.45, 94.31 202.45, 183.48 99.87 M6.09 310.04 C67.02 239.95, 127.94 169.86, 183.88 105.52 M6.09 310.04 C47.38 262.54, 88.68 215.03, 183.88 105.52 M11.07 310.4 C74.49 237.45, 137.92 164.49, 183.62 111.91 M11.07 310.4 C64.44 249.01, 117.8 187.62, 183.62 111.91 M16.72 310.01 C52.51 268.83, 88.31 227.65, 184.01 117.56 M16.72 310.01 C76.44 241.31, 136.16 172.61, 184.01 117.56 M21.7 310.37 C75.98 247.93, 130.25 185.5, 183.75 123.96 M21.7 310.37 C55.34 271.68, 88.97 232.99, 183.75 123.96 M27.35 309.97 C86.71 241.68, 146.08 173.39, 183.49 130.35 M27.35 309.97 C87.8 240.43, 148.25 170.89, 183.49 130.35 M32.33 310.33 C87.64 246.71, 142.94 183.09, 183.88 136 M32.33 310.33 C69.79 267.25, 107.25 224.16, 183.88 136 M37.98 309.94 C72.7 269.99, 107.43 230.04, 183.62 142.39 M37.98 309.94 C80.99 260.46, 124 210.98, 183.62 142.39 M42.96 310.3 C78.65 269.25, 114.34 228.19, 184.02 148.04 M42.96 310.3 C89.11 257.21, 135.26 204.12, 184.02 148.04 M48.61 309.91 C93.55 258.2, 138.5 206.5, 183.75 154.44 M48.61 309.91 C96.87 254.38, 145.14 198.86, 183.75 154.44 M53.59 310.27 C84.96 274.18, 116.34 238.09, 183.49 160.83 M53.59 310.27 C99.03 257.99, 144.47 205.72, 183.49 160.83 M58.58 310.63 C102.86 259.69, 147.14 208.75, 183.89 166.48 M58.58 310.63 C102.6 259.99, 146.62 209.35, 183.89 166.48 M64.22 310.23 C90.45 280.06, 116.67 249.89, 183.63 172.87 M64.22 310.23 C90.54 279.96, 116.85 249.69, 183.63 172.87 M69.21 310.59 C108.07 265.89, 146.93 221.18, 184.02 178.52 M69.21 310.59 C110.51 263.08, 151.81 215.57, 184.02 178.52 M74.85 310.2 C110.08 269.67, 145.31 229.15, 183.76 184.91 M74.85 310.2 C101.79 279.21, 128.72 248.23, 183.76 184.91 M79.84 310.56 C108.08 278.07, 136.32 245.59, 183.5 191.31 M79.84 310.56 C117.93 266.74, 156.02 222.93, 183.5 191.31 M85.48 310.16 C118.55 272.13, 151.61 234.09, 183.89 196.96 M85.48 310.16 C119.16 271.42, 152.83 232.69, 183.89 196.96 M90.47 310.52 C117.17 279.81, 143.87 249.1, 183.63 203.35 M90.47 310.52 C114.93 282.38, 139.39 254.25, 183.63 203.35 M96.11 310.13 C121.35 281.1, 146.58 252.08, 184.03 209 M96.11 310.13 C115.43 287.91, 134.75 265.68, 184.03 209 M101.1 310.49 C122.53 285.83, 143.96 261.18, 183.76 215.39 M101.1 310.49 C120.64 288.01, 140.17 265.54, 183.76 215.39 M106.74 310.09 C126.18 287.73, 145.62 265.37, 183.5 221.79 M106.74 310.09 C137.27 274.97, 167.8 239.85, 183.5 221.79 M111.73 310.45 C127.29 292.56, 142.85 274.66, 183.9 227.44 M111.73 310.45 C139.38 278.64, 167.04 246.83, 183.9 227.44 M117.37 310.06 C141.11 282.75, 164.86 255.44, 183.64 233.83 M117.37 310.06 C143.69 279.78, 170.01 249.51, 183.64 233.83 M122.36 310.42 C142.56 287.18, 162.76 263.94, 184.03 239.48 M122.36 310.42 C140.9 289.09, 159.44 267.77, 184.03 239.48 M128 310.02 C148.78 286.12, 169.56 262.22, 183.77 245.87 M128 310.02 C147.08 288.08, 166.16 266.14, 183.77 245.87 M132.99 310.38 C148.86 292.13, 164.73 273.87, 183.51 252.27 M132.99 310.38 C147.6 293.58, 162.21 276.77, 183.51 252.27 M138.63 309.99 C152.82 293.67, 167.01 277.34, 183.9 257.91 M138.63 309.99 C154.92 291.26, 171.2 272.53, 183.9 257.91 M143.62 310.35 C153.27 299.25, 162.91 288.16, 183.64 264.31 M143.62 310.35 C157.74 294.11, 171.86 277.87, 183.64 264.31 M149.26 309.96 C157.79 300.15, 166.31 290.34, 184.04 269.96 M149.26 309.96 C162.49 294.74, 175.71 279.53, 184.04 269.96 M154.25 310.32 C163.72 299.42, 173.2 288.52, 183.77 276.35 M154.25 310.32 C166.01 296.79, 177.76 283.27, 183.77 276.35 M159.89 309.92 C166.48 302.35, 173.06 294.77, 183.51 282.75 M159.89 309.92 C167.86 300.75, 175.83 291.59, 183.51 282.75 M164.88 310.28 C170.84 303.42, 176.8 296.57, 183.91 288.39 M164.88 310.28 C169.36 305.13, 173.84 299.98, 183.91 288.39 M170.52 309.89 C175.41 304.27, 180.29 298.65, 183.65 294.79 M170.52 309.89 C175.35 304.34, 180.17 298.79, 183.65 294.79 M175.51 310.25 C178.28 307.06, 181.05 303.88, 184.04 300.44 M175.51 310.25 C178.73 306.54, 181.95 302.84, 184.04 300.44 M180.5 310.61 C181.58 309.36, 182.66 308.11, 183.78 306.83 M180.5 310.61 C181.19 309.81, 181.88 309.02, 183.78 306.83" stroke="#fab005" stroke-width="0.5" fill="none"></path><path d="M0 0 C40.33 0, 80.67 0, 181.48 0 M0 0 C36.66 0, 73.32 0, 181.48 0 M181.48 0 C181.48 82.53, 181.48 165.06, 181.48 309.73 M181.48 0 C181.48 73.27, 181.48 146.54, 181.48 309.73 M181.48 309.73 C124.78 309.73, 68.09 309.73, 0 309.73 M181.48 309.73 C122.52 309.73, 63.57 309.73, 0 309.73 M0 309.73 C0 209.35, 0 108.96, 0 0 M0 309.73 C0 212.74, 0 115.74, 0 0" stroke="#000000" stroke-width="1" fill="none"></path></g><g transform="translate(289.75776564418965 407.796875) rotate(0 59.00000000000003 12)"><text x="0" y="19" font-family="Cascadia, Segoe UI Emoji" font-size="20px" fill="#000000" text-anchor="start" style="white-space: pre;" direction="ltr">Developing</text></g><g transform="translate(263.87885939418965 121.19921875) rotate(0 84.50000000000003 123.5)"><text x="0" y="15" font-family="Cascadia, Segoe UI Emoji" font-size="16px" fill="#000000" text-anchor="start" style="white-space: pre;" direction="ltr">- Blocklet Server</text><text x="0" y="34" font-family="Cascadia, Segoe UI Emoji" font-size="16px" fill="#000000" text-anchor="start" style="white-space: pre;" direction="ltr">- Blocklet CLI</text><text x="0" y="53" font-family="Cascadia, Segoe UI Emoji" font-size="16px" fill="#000000" text-anchor="start" style="white-space: pre;" direction="ltr">- Blocklet SDK</text><text x="0" y="72" font-family="Cascadia, Segoe UI Emoji" font-size="16px" fill="#000000" text-anchor="start" style="white-space: pre;" direction="ltr">- Blocklet UI</text><text x="0" y="91" font-family="Cascadia, Segoe UI Emoji" font-size="16px" fill="#000000" text-anchor="start" style="white-space: pre;" direction="ltr">- Blocklet Service</text><text x="0" y="110" font-family="Cascadia, Segoe UI Emoji" font-size="16px" fill="#000000" text-anchor="start" style="white-space: pre;" direction="ltr">- Blocklet Actions</text><text x="0" y="129" font-family="Cascadia, Segoe UI Emoji" font-size="16px" fill="#000000" text-anchor="start" style="white-space: pre;" direction="ltr">- Blocklet Pages</text><text x="0" y="148" font-family="Cascadia, Segoe UI Emoji" font-size="16px" fill="#000000" text-anchor="start" style="white-space: pre;" direction="ltr">- Blocklet Compose</text><text x="0" y="167" font-family="Cascadia, Segoe UI Emoji" font-size="16px" fill="#000000" text-anchor="start" style="white-space: pre;" direction="ltr"></text><text x="0" y="186" font-family="Cascadia, Segoe UI Emoji" font-size="16px" fill="#000000" text-anchor="start" style="white-space: pre;" direction="ltr">- DID Wallet</text><text x="0" y="205" font-family="Cascadia, Segoe UI Emoji" font-size="16px" fill="#000000" text-anchor="start" style="white-space: pre;" direction="ltr">- DID Connect</text><text x="0" y="224" font-family="Cascadia, Segoe UI Emoji" font-size="16px" fill="#000000" text-anchor="start" style="white-space: pre;" direction="ltr">- DID Domain</text><text x="0" y="243" font-family="Cascadia, Segoe UI Emoji" font-size="16px" fill="#000000" text-anchor="start" style="white-space: pre;" direction="ltr">- DID Storage</text></g><g stroke-linecap="round" transform="translate(491.31896356085633 88.38671875) rotate(0 90.73828125 154.865234375)"><path d="M0 0 C0 0, 0 0, 0 0 M0 0 C0 0, 0 0, 0 0 M-0.26 6.4 C1.6 4.26, 3.46 2.12, 4.99 0.36 M-0.26 6.4 C1.21 4.7, 2.69 3, 4.99 0.36 M0.13 12.04 C3.25 8.45, 6.37 4.87, 10.63 -0.03 M0.13 12.04 C3.52 8.15, 6.9 4.25, 10.63 -0.03 M-0.13 18.44 C3.51 14.26, 7.14 10.08, 15.62 0.33 M-0.13 18.44 C3.05 14.78, 6.23 11.13, 15.62 0.33 M0.27 24.08 C6.78 16.59, 13.3 9.09, 21.26 -0.07 M0.27 24.08 C4.8 18.87, 9.32 13.66, 21.26 -0.07 M0 30.48 C9.1 20.02, 18.2 9.55, 26.25 0.29 M0 30.48 C6.91 22.54, 13.81 14.59, 26.25 0.29 M-0.26 36.88 C10.61 24.38, 21.48 11.88, 31.89 -0.1 M-0.26 36.88 C6.65 28.93, 13.56 20.98, 31.89 -0.1 M0.14 42.52 C7.57 33.97, 15 25.42, 36.88 0.26 M0.14 42.52 C10.51 30.59, 20.88 18.66, 36.88 0.26 M-0.12 48.92 C12.97 33.85, 26.07 18.79, 42.52 -0.14 M-0.12 48.92 C16.32 30, 32.77 11.08, 42.52 -0.14 M0.27 54.56 C9.8 43.6, 19.32 32.64, 47.51 0.22 M0.27 54.56 C15.55 36.99, 30.82 19.42, 47.51 0.22 M0.01 60.96 C18.5 39.69, 36.99 18.42, 53.15 -0.17 M0.01 60.96 C18.11 40.14, 36.21 19.32, 53.15 -0.17 M-0.25 67.36 C14.44 50.45, 29.14 33.55, 58.14 0.19 M-0.25 67.36 C17.13 47.36, 34.51 27.37, 58.14 0.19 M0.14 73 C25.21 44.16, 50.28 15.32, 63.78 -0.21 M0.14 73 C15.37 55.48, 30.6 37.96, 63.78 -0.21 M-0.12 79.4 C24.84 50.69, 49.79 21.98, 68.77 0.15 M-0.12 79.4 C24.89 50.63, 49.9 21.85, 68.77 0.15 M0.28 85.04 C28.58 52.48, 56.88 19.92, 74.41 -0.24 M0.28 85.04 C29.06 51.93, 57.84 18.83, 74.41 -0.24 M0.01 91.44 C19.59 68.92, 39.17 46.4, 79.4 0.12 M0.01 91.44 C25.77 61.81, 51.52 32.19, 79.4 0.12 M-0.25 97.84 C21.17 73.2, 42.58 48.57, 85.04 -0.28 M-0.25 97.84 C20.27 74.24, 40.78 50.64, 85.04 -0.28 M0.15 103.48 C28.99 70.3, 57.84 37.11, 90.03 0.08 M0.15 103.48 C21.12 79.35, 42.1 55.22, 90.03 0.08 M-0.11 109.88 C32.9 71.9, 65.91 33.92, 95.67 -0.31 M-0.11 109.88 C37.85 66.2, 75.82 22.52, 95.67 -0.31 M0.28 115.52 C30.86 80.34, 61.44 45.16, 100.66 0.05 M0.28 115.52 C39.28 70.66, 78.28 25.79, 100.66 0.05 M0.02 121.92 C22.18 96.43, 44.34 70.94, 106.3 -0.34 M0.02 121.92 C21.58 97.12, 43.14 72.31, 106.3 -0.34 M-0.24 128.32 C24.32 100.06, 48.89 71.8, 111.29 0.02 M-0.24 128.32 C37.16 85.29, 74.57 42.26, 111.29 0.02 M0.15 133.96 C45.63 81.64, 91.11 29.32, 116.27 0.38 M0.15 133.96 C41.24 86.7, 82.32 39.43, 116.27 0.38 M-0.11 140.36 C47.89 85.14, 95.9 29.91, 121.92 -0.02 M-0.11 140.36 C32.38 102.98, 64.87 65.6, 121.92 -0.02 M0.29 146 C31.47 110.12, 62.66 74.24, 126.91 0.34 M0.29 146 C37.01 103.76, 73.73 61.51, 126.91 0.34 M0.02 152.4 C33.53 113.86, 67.03 75.32, 132.55 -0.05 M0.02 152.4 C29.23 118.81, 58.43 85.21, 132.55 -0.05 M-0.24 158.8 C44.93 106.84, 90.09 54.88, 137.54 0.31 M-0.24 158.8 C54.75 95.54, 109.74 32.28, 137.54 0.31 M0.16 164.44 C47.41 110.08, 94.66 55.72, 143.18 -0.09 M0.16 164.44 C40.74 117.75, 81.32 71.07, 143.18 -0.09 M-0.1 170.84 C58.41 103.53, 116.92 36.22, 148.17 0.27 M-0.1 170.84 C31.88 134.05, 63.86 97.26, 148.17 0.27 M0.29 176.48 C40.38 130.36, 80.47 84.24, 153.81 -0.12 M0.29 176.48 C60.07 107.71, 119.86 38.94, 153.81 -0.12 M0.03 182.88 C33.1 144.84, 66.16 106.8, 158.8 0.24 M0.03 182.88 C35.13 142.5, 70.22 102.13, 158.8 0.24 M-0.23 189.27 C62.88 116.68, 125.98 44.08, 164.44 -0.16 M-0.23 189.27 C52 129.19, 104.23 69.11, 164.44 -0.16 M0.16 194.92 C56.61 129.98, 113.05 65.05, 169.43 0.2 M0.16 194.92 C41.38 147.5, 82.6 100.08, 169.43 0.2 M-0.1 201.32 C59.09 133.23, 118.28 65.14, 175.07 -0.19 M-0.1 201.32 C51.36 142.12, 102.81 82.93, 175.07 -0.19 M0.3 206.96 C61.07 137.05, 121.84 67.14, 180.06 0.17 M0.3 206.96 C46.72 153.56, 93.14 100.16, 180.06 0.17 M0.03 213.36 C49.54 156.4, 99.05 99.45, 183.73 2.04 M0.03 213.36 C72.18 130.37, 144.32 47.38, 183.73 2.04 M-0.23 219.75 C71.96 136.71, 144.15 53.67, 183.47 8.44 M-0.23 219.75 C70.9 137.93, 142.03 56.11, 183.47 8.44 M0.17 225.4 C41.61 177.72, 83.05 130.05, 183.86 14.08 M0.17 225.4 C61.62 154.7, 123.08 84, 183.86 14.08 M-0.09 231.8 C49.92 174.26, 99.94 116.72, 183.6 20.48 M-0.09 231.8 C54.89 168.54, 109.88 105.29, 183.6 20.48 M0.3 237.44 C65.84 162.04, 131.38 86.64, 184 26.12 M0.3 237.44 C52.94 176.88, 105.58 116.33, 184 26.12 M0.04 243.84 C64.92 169.2, 129.79 94.57, 183.74 32.52 M0.04 243.84 C38.69 199.38, 77.34 154.92, 183.74 32.52 M-0.22 250.23 C57.98 183.28, 116.19 116.32, 183.47 38.92 M-0.22 250.23 C48.08 194.67, 96.39 139.1, 183.47 38.92 M0.17 255.88 C39.85 210.23, 79.52 164.59, 183.87 44.56 M0.17 255.88 C52.16 196.07, 104.16 136.26, 183.87 44.56 M-0.09 262.27 C48.16 206.77, 96.41 151.26, 183.61 50.96 M-0.09 262.27 C59.58 193.63, 119.25 124.99, 183.61 50.96 M0.3 267.92 C45.16 216.32, 90.01 164.73, 184 56.6 M0.3 267.92 C41.96 220, 83.62 172.08, 184 56.6 M0.04 274.32 C46.74 220.59, 93.44 166.87, 183.74 63 M0.04 274.32 C69.88 193.98, 139.71 113.65, 183.74 63 M-0.22 280.71 C40.98 233.32, 82.18 185.93, 183.48 69.39 M-0.22 280.71 C54.52 217.74, 109.27 154.77, 183.48 69.39 M0.18 286.36 C46.96 232.54, 93.75 178.72, 183.87 75.04 M0.18 286.36 C70.67 205.26, 141.16 124.17, 183.87 75.04 M-0.08 292.75 C63.48 219.63, 127.04 146.51, 183.61 81.44 M-0.08 292.75 C55.02 229.36, 110.13 165.96, 183.61 81.44 M0.31 298.4 C60.98 228.6, 121.66 158.8, 184.01 87.08 M0.31 298.4 C62.27 227.12, 124.24 155.83, 184.01 87.08 M0.05 304.8 C37.2 262.06, 74.34 219.33, 183.74 93.48 M0.05 304.8 C70.39 223.88, 140.73 142.96, 183.74 93.48 M0.44 310.44 C46.28 257.7, 92.13 204.97, 183.48 99.87 M0.44 310.44 C53.43 249.49, 106.41 188.54, 183.48 99.87 M6.09 310.04 C75.22 230.52, 144.35 150.99, 183.88 105.52 M6.09 310.04 C49.43 260.19, 92.77 210.33, 183.88 105.52 M11.07 310.4 C60.7 253.31, 110.34 196.22, 183.62 111.91 M11.07 310.4 C68.98 243.79, 126.89 177.17, 183.62 111.91 M16.72 310.01 C67.72 251.33, 118.73 192.65, 184.01 117.56 M16.72 310.01 C71.33 247.18, 125.94 184.36, 184.01 117.56 M21.7 310.37 C56.95 269.82, 92.2 229.27, 183.75 123.96 M21.7 310.37 C57.05 269.71, 92.4 229.04, 183.75 123.96 M27.35 309.97 C82.41 246.63, 137.47 183.29, 183.49 130.35 M27.35 309.97 C61.97 270.15, 96.59 230.32, 183.49 130.35 M32.33 310.33 C80.65 254.75, 128.98 199.16, 183.88 136 M32.33 310.33 C81.77 253.46, 131.21 196.59, 183.88 136 M37.98 309.94 C87.12 253.41, 136.26 196.88, 183.62 142.39 M37.98 309.94 C76.9 265.16, 115.83 220.38, 183.62 142.39 M42.96 310.3 C95.65 249.7, 148.33 189.09, 184.02 148.04 M42.96 310.3 C84.71 262.28, 126.45 214.26, 184.02 148.04 M48.61 309.91 C84.77 268.31, 120.93 226.7, 183.75 154.44 M48.61 309.91 C95.58 255.87, 142.55 201.83, 183.75 154.44 M53.59 310.27 C88.21 270.44, 122.83 230.62, 183.49 160.83 M53.59 310.27 C80.91 278.84, 108.23 247.41, 183.49 160.83 M58.58 310.63 C103.04 259.48, 147.49 208.34, 183.89 166.48 M58.58 310.63 C95.43 268.24, 132.27 225.85, 183.89 166.48 M64.22 310.23 C110.31 257.22, 156.39 204.21, 183.63 172.87 M64.22 310.23 C111.88 255.41, 159.53 200.6, 183.63 172.87 M69.21 310.59 C93.74 282.37, 118.28 254.15, 184.02 178.52 M69.21 310.59 C101.93 272.96, 134.64 235.32, 184.02 178.52 M74.85 310.2 C99.15 282.24, 123.46 254.29, 183.76 184.91 M74.85 310.2 C100.89 280.25, 126.92 250.3, 183.76 184.91 M79.84 310.56 C107.01 279.3, 134.18 248.04, 183.5 191.31 M79.84 310.56 C105.28 281.29, 130.72 252.02, 183.5 191.31 M85.48 310.16 C122.14 268, 158.79 225.84, 183.89 196.96 M85.48 310.16 C120.29 270.12, 155.1 230.08, 183.89 196.96 M90.47 310.52 C120.38 276.12, 150.29 241.71, 183.63 203.35 M90.47 310.52 C113.53 283.99, 136.59 257.46, 183.63 203.35 M96.11 310.13 C125.25 276.62, 154.38 243.1, 184.03 209 M96.11 310.13 C114.89 288.53, 133.67 266.93, 184.03 209 M101.1 310.49 C118.83 290.09, 136.57 269.69, 183.76 215.39 M101.1 310.49 C126.74 280.99, 152.38 251.5, 183.76 215.39 M106.74 310.09 C129.82 283.55, 152.89 257.01, 183.5 221.79 M106.74 310.09 C132.53 280.42, 158.32 250.76, 183.5 221.79 M111.73 310.45 C138.41 279.76, 165.1 249.06, 183.9 227.44 M111.73 310.45 C140.53 277.33, 169.32 244.2, 183.9 227.44 M117.37 310.06 C142.8 280.8, 168.23 251.55, 183.64 233.83 M117.37 310.06 C136.27 288.32, 155.16 266.59, 183.64 233.83 M122.36 310.42 C135.75 295.02, 149.13 279.62, 184.03 239.48 M122.36 310.42 C136.35 294.33, 150.34 278.23, 184.03 239.48 M128 310.02 C149.64 285.14, 171.27 260.26, 183.77 245.87 M128 310.02 C143.18 292.57, 158.35 275.11, 183.77 245.87 M132.99 310.38 C152.69 287.73, 172.38 265.07, 183.51 252.27 M132.99 310.38 C145.78 295.68, 158.56 280.97, 183.51 252.27 M138.63 309.99 C148.73 298.38, 158.82 286.77, 183.9 257.91 M138.63 309.99 C154.7 291.51, 170.76 273.03, 183.9 257.91 M143.62 310.35 C156.62 295.4, 169.62 280.45, 183.64 264.31 M143.62 310.35 C154.99 297.27, 166.37 284.19, 183.64 264.31 M149.26 309.96 C159.77 297.87, 170.27 285.79, 184.04 269.96 M149.26 309.96 C157.55 300.43, 165.83 290.9, 184.04 269.96 M154.25 310.32 C161.97 301.43, 169.69 292.55, 183.77 276.35 M154.25 310.32 C162.32 301.03, 170.39 291.75, 183.77 276.35 M159.89 309.92 C167.96 300.64, 176.02 291.37, 183.51 282.75 M159.89 309.92 C166.36 302.48, 172.83 295.04, 183.51 282.75 M164.88 310.28 C169.5 304.97, 174.12 299.65, 183.91 288.39 M164.88 310.28 C170.99 303.26, 177.09 296.24, 183.91 288.39 M170.52 309.89 C175.25 304.44, 179.98 299, 183.65 294.79 M170.52 309.89 C173.94 305.95, 177.36 302.02, 183.65 294.79 M175.51 310.25 C178.2 307.16, 180.88 304.07, 184.04 300.44 M175.51 310.25 C177.84 307.56, 180.18 304.88, 184.04 300.44 M180.5 310.61 C181.42 309.54, 182.35 308.48, 183.78 306.83 M180.5 310.61 C181.3 309.69, 182.1 308.77, 183.78 306.83" stroke="#15aabf" stroke-width="0.5" fill="none"></path><path d="M0 0 C57.56 0, 115.12 0, 181.48 0 M0 0 C40.41 0, 80.82 0, 181.48 0 M181.48 0 C181.48 72.04, 181.48 144.07, 181.48 309.73 M181.48 0 C181.48 70.04, 181.48 140.09, 181.48 309.73 M181.48 309.73 C141.59 309.73, 101.71 309.73, 0 309.73 M181.48 309.73 C122.6 309.73, 63.72 309.73, 0 309.73 M0 309.73 C0 210.68, 0 111.63, 0 0 M0 309.73 C0 207.4, 0 105.07, 0 0" stroke="#000000" stroke-width="1" fill="none"></path></g><g transform="translate(512.4088073108563 407.79296875) rotate(0 71 12)"><text x="0" y="19" font-family="Cascadia, Segoe UI Emoji" font-size="20px" fill="#000000" text-anchor="start" style="white-space: pre;" direction="ltr">Distribution</text></g><g transform="translate(505.75646356085633 122.25390625) rotate(0 75 47.5)"><text x="0" y="15" font-family="Cascadia, Segoe UI Emoji" font-size="16px" fill="#000000" text-anchor="start" style="white-space: pre;" direction="ltr">- Blocklet CLI</text><text x="0" y="34" font-family="Cascadia, Segoe UI Emoji" font-size="16px" fill="#000000" text-anchor="start" style="white-space: pre;" direction="ltr">- Blocklet Store</text><text x="0" y="53" font-family="Cascadia, Segoe UI Emoji" font-size="16px" fill="#000000" text-anchor="start" style="white-space: pre;" direction="ltr"></text><text x="0" y="72" font-family="Cascadia, Segoe UI Emoji" font-size="16px" fill="#000000" text-anchor="start" style="white-space: pre;" direction="ltr">- DID Wallet</text><text x="0" y="91" font-family="Cascadia, Segoe UI Emoji" font-size="16px" fill="#000000" text-anchor="start" style="white-space: pre;" direction="ltr">- DID Connect</text></g><g stroke-linecap="round" transform="translate(727.720005227523 89.16015625) rotate(0 90.73828125 154.865234375)"><path d="M0 0 C0 0, 0 0, 0 0 M0 0 C0 0, 0 0, 0 0 M-0.26 6.4 C0.93 5.03, 2.12 3.66, 4.99 0.36 M-0.26 6.4 C0.98 4.97, 2.22 3.55, 4.99 0.36 M0.13 12.04 C3.37 8.31, 6.62 4.58, 10.63 -0.03 M0.13 12.04 C3.78 7.84, 7.43 3.65, 10.63 -0.03 M-0.13 18.44 C5.4 12.08, 10.92 5.73, 15.62 0.33 M-0.13 18.44 C5.41 12.07, 10.95 5.69, 15.62 0.33 M0.27 24.08 C4.98 18.66, 9.69 13.24, 21.26 -0.07 M0.27 24.08 C8.15 15.02, 16.03 5.95, 21.26 -0.07 M0 30.48 C5.6 24.04, 11.2 17.6, 26.25 0.29 M0 30.48 C7.65 21.69, 15.29 12.9, 26.25 0.29 M-0.26 36.88 C10.84 24.12, 21.93 11.35, 31.89 -0.1 M-0.26 36.88 C9.01 26.22, 18.27 15.57, 31.89 -0.1 M0.14 42.52 C11.99 28.88, 23.85 15.24, 36.88 0.26 M0.14 42.52 C8.91 32.43, 17.68 22.34, 36.88 0.26 M-0.12 48.92 C10.78 36.38, 21.67 23.84, 42.52 -0.14 M-0.12 48.92 C11.34 35.73, 22.81 22.53, 42.52 -0.14 M0.27 54.56 C18.73 33.33, 37.18 12.1, 47.51 0.22 M0.27 54.56 C15.67 36.85, 31.06 19.14, 47.51 0.22 M0.01 60.96 C12.98 46.04, 25.95 31.11, 53.15 -0.17 M0.01 60.96 C18.48 39.71, 36.96 18.46, 53.15 -0.17 M-0.25 67.36 C19.13 45.06, 38.51 22.76, 58.14 0.19 M-0.25 67.36 C13.24 51.84, 26.72 36.33, 58.14 0.19 M0.14 73 C19.36 50.9, 38.57 28.79, 63.78 -0.21 M0.14 73 C12.93 58.29, 25.72 43.58, 63.78 -0.21 M-0.12 79.4 C18.09 58.45, 36.3 37.51, 68.77 0.15 M-0.12 79.4 C25.99 49.36, 52.11 19.32, 68.77 0.15 M0.28 85.04 C24.25 57.46, 48.23 29.88, 74.41 -0.24 M0.28 85.04 C26.4 54.99, 52.53 24.93, 74.41 -0.24 M0.01 91.44 C24.52 63.25, 49.03 35.06, 79.4 0.12 M0.01 91.44 C27.18 60.19, 54.34 28.94, 79.4 0.12 M-0.25 97.84 C25.86 67.8, 51.97 37.77, 85.04 -0.28 M-0.25 97.84 C31.52 61.29, 63.29 24.74, 85.04 -0.28 M0.15 103.48 C35.13 63.24, 70.11 22.99, 90.03 0.08 M0.15 103.48 C21.65 78.74, 43.15 54.01, 90.03 0.08 M-0.11 109.88 C33.47 71.24, 67.05 32.61, 95.67 -0.31 M-0.11 109.88 C26.57 79.18, 53.25 48.48, 95.67 -0.31 M0.28 115.52 C23.67 88.61, 47.07 61.7, 100.66 0.05 M0.28 115.52 C34.01 76.72, 67.73 37.92, 100.66 0.05 M0.02 121.92 C27.73 90.04, 55.44 58.17, 106.3 -0.34 M0.02 121.92 C35.61 80.98, 71.19 40.04, 106.3 -0.34 M-0.24 128.32 C41.08 80.78, 82.4 33.24, 111.29 0.02 M-0.24 128.32 C27.1 96.87, 54.44 65.42, 111.29 0.02 M0.15 133.96 C40.01 88.1, 79.88 42.25, 116.27 0.38 M0.15 133.96 C29.46 100.25, 58.76 66.54, 116.27 0.38 M-0.11 140.36 C40.78 93.32, 81.66 46.29, 121.92 -0.02 M-0.11 140.36 C39.69 94.58, 79.48 48.79, 121.92 -0.02 M0.29 146 C26.66 115.66, 53.04 85.31, 126.91 0.34 M0.29 146 C49.55 89.33, 98.81 32.66, 126.91 0.34 M0.02 152.4 C34.91 112.27, 69.8 72.13, 132.55 -0.05 M0.02 152.4 C37.85 108.89, 75.67 65.37, 132.55 -0.05 M-0.24 158.8 C50.6 100.32, 101.43 41.84, 137.54 0.31 M-0.24 158.8 C47.96 103.35, 96.16 47.9, 137.54 0.31 M0.16 164.44 C42.32 115.94, 84.48 67.44, 143.18 -0.09 M0.16 164.44 C53.97 102.54, 107.78 40.63, 143.18 -0.09 M-0.1 170.84 C35.7 129.65, 71.51 88.46, 148.17 0.27 M-0.1 170.84 C57.19 104.93, 114.48 39.03, 148.17 0.27 M0.29 176.48 C57.48 110.69, 114.67 44.91, 153.81 -0.12 M0.29 176.48 C61.51 106.06, 122.73 35.63, 153.81 -0.12 M0.03 182.88 C54.85 119.82, 109.66 56.76, 158.8 0.24 M0.03 182.88 C63.1 110.32, 126.18 37.76, 158.8 0.24 M-0.23 189.27 C39.68 143.36, 79.59 97.45, 164.44 -0.16 M-0.23 189.27 C49.17 132.44, 98.57 75.61, 164.44 -0.16 M0.16 194.92 C51.42 135.95, 102.67 76.99, 169.43 0.2 M0.16 194.92 C55.68 131.06, 111.19 67.19, 169.43 0.2 M-0.1 201.32 C44.29 150.25, 88.67 99.19, 175.07 -0.19 M-0.1 201.32 C65.39 125.98, 130.88 50.64, 175.07 -0.19 M0.3 206.96 C43.4 157.38, 86.5 107.8, 180.06 0.17 M0.3 206.96 C66.95 130.28, 133.61 53.6, 180.06 0.17 M0.03 213.36 C65.76 137.74, 131.49 62.13, 183.73 2.04 M0.03 213.36 C48 158.18, 95.96 103, 183.73 2.04 M-0.23 219.75 C70.47 138.42, 141.17 57.09, 183.47 8.44 M-0.23 219.75 C66.82 142.62, 133.87 65.5, 183.47 8.44 M0.17 225.4 C57.29 159.69, 114.41 93.97, 183.86 14.08 M0.17 225.4 C64.35 151.57, 128.53 77.74, 183.86 14.08 M-0.09 231.8 C49.51 174.73, 99.11 117.67, 183.6 20.48 M-0.09 231.8 C72.76 147.99, 145.62 64.18, 183.6 20.48 M0.3 237.44 C50.13 180.12, 99.96 122.79, 184 26.12 M0.3 237.44 C68.86 158.57, 137.41 79.71, 184 26.12 M0.04 243.84 C60.7 174.05, 121.37 104.26, 183.74 32.52 M0.04 243.84 C73.26 159.6, 146.48 75.37, 183.74 32.52 M-0.22 250.23 C36.57 207.91, 73.36 165.58, 183.47 38.92 M-0.22 250.23 C39.08 205.02, 78.39 159.8, 183.47 38.92 M0.17 255.88 C55.95 191.71, 111.73 127.54, 183.87 44.56 M0.17 255.88 C64.62 181.74, 129.07 107.6, 183.87 44.56 M-0.09 262.27 C48.18 206.75, 96.44 151.23, 183.61 50.96 M-0.09 262.27 C55.01 198.89, 110.11 135.5, 183.61 50.96 M0.3 267.92 C42.83 219, 85.36 170.08, 184 56.6 M0.3 267.92 C51.74 208.75, 103.18 149.58, 184 56.6 M0.04 274.32 C41.64 226.46, 83.25 178.6, 183.74 63 M0.04 274.32 C37.94 230.72, 75.84 187.12, 183.74 63 M-0.22 280.71 C47.21 226.15, 94.64 171.59, 183.48 69.39 M-0.22 280.71 C47.49 225.84, 95.19 170.96, 183.48 69.39 M0.18 286.36 C48.37 230.91, 96.57 175.46, 183.87 75.04 M0.18 286.36 C47.03 232.46, 93.88 178.56, 183.87 75.04 M-0.08 292.75 C42.39 243.89, 84.86 195.03, 183.61 81.44 M-0.08 292.75 C38.55 248.3, 77.19 203.86, 183.61 81.44 M0.31 298.4 C63.61 225.58, 126.9 152.77, 184.01 87.08 M0.31 298.4 C58.19 231.81, 116.07 165.23, 184.01 87.08 M0.05 304.8 C55.38 241.14, 110.72 177.48, 183.74 93.48 M0.05 304.8 C55.03 241.54, 110.01 178.29, 183.74 93.48 M0.44 310.44 C46.24 257.75, 92.04 205.06, 183.48 99.87 M0.44 310.44 C37.45 267.87, 74.46 225.29, 183.48 99.87 M6.09 310.04 C63.33 244.19, 120.58 178.34, 183.88 105.52 M6.09 310.04 C66.68 240.34, 127.27 170.64, 183.88 105.52 M11.07 310.4 C73.13 239.01, 135.19 167.63, 183.62 111.91 M11.07 310.4 C59.21 255.03, 107.34 199.66, 183.62 111.91 M16.72 310.01 C58.6 261.83, 100.48 213.65, 184.01 117.56 M16.72 310.01 C82.95 233.82, 149.18 157.63, 184.01 117.56 M21.7 310.37 C63.24 262.58, 104.78 214.8, 183.75 123.96 M21.7 310.37 C63.02 262.84, 104.34 215.31, 183.75 123.96 M27.35 309.97 C81.43 247.76, 135.51 185.55, 183.49 130.35 M27.35 309.97 C85.52 243.06, 143.69 176.14, 183.49 130.35 M32.33 310.33 C81.87 253.35, 131.4 196.37, 183.88 136 M32.33 310.33 C90.92 242.93, 149.52 175.53, 183.88 136 M37.98 309.94 C92.32 247.42, 146.67 184.9, 183.62 142.39 M37.98 309.94 C70.83 272.14, 103.69 234.34, 183.62 142.39 M42.96 310.3 C93.86 251.75, 144.76 193.2, 184.02 148.04 M42.96 310.3 C82.05 265.33, 121.15 220.36, 184.02 148.04 M48.61 309.91 C102.25 248.19, 155.9 186.48, 183.75 154.44 M48.61 309.91 C96.82 254.44, 145.04 198.97, 183.75 154.44 M53.59 310.27 C99.21 257.79, 144.83 205.31, 183.49 160.83 M53.59 310.27 C89.54 268.92, 125.48 227.57, 183.49 160.83 M58.58 310.63 C107.09 254.82, 155.61 199.01, 183.89 166.48 M58.58 310.63 C85.47 279.69, 112.37 248.75, 183.89 166.48 M64.22 310.23 C99.3 269.88, 134.38 229.53, 183.63 172.87 M64.22 310.23 C97.93 271.45, 131.65 232.67, 183.63 172.87 M69.21 310.59 C94.04 282.02, 118.88 253.45, 184.02 178.52 M69.21 310.59 C103.04 271.68, 136.86 232.77, 184.02 178.52 M74.85 310.2 C117.08 261.62, 159.31 213.04, 183.76 184.91 M74.85 310.2 C111.65 267.86, 148.45 225.53, 183.76 184.91 M79.84 310.56 C106.79 279.55, 133.74 248.55, 183.5 191.31 M79.84 310.56 C114.99 270.12, 150.14 229.69, 183.5 191.31 M85.48 310.16 C108.63 283.53, 131.78 256.9, 183.89 196.96 M85.48 310.16 C108.53 283.65, 131.58 257.13, 183.89 196.96 M90.47 310.52 C127.46 267.97, 164.44 225.43, 183.63 203.35 M90.47 310.52 C121.89 274.38, 153.31 238.23, 183.63 203.35 M96.11 310.13 C117.35 285.69, 138.6 261.26, 184.03 209 M96.11 310.13 C123.27 278.89, 150.43 247.65, 184.03 209 M101.1 310.49 C118.4 290.59, 135.69 270.69, 183.76 215.39 M101.1 310.49 C127.98 279.56, 154.87 248.64, 183.76 215.39 M106.74 310.09 C123.27 291.08, 139.8 272.07, 183.5 221.79 M106.74 310.09 C125.66 288.33, 144.58 266.56, 183.5 221.79 M111.73 310.45 C139.27 278.77, 166.82 247.08, 183.9 227.44 M111.73 310.45 C139.58 278.42, 167.43 246.38, 183.9 227.44 M117.37 310.06 C141.75 282.02, 166.13 253.97, 183.64 233.83 M117.37 310.06 C135.82 288.84, 154.26 267.62, 183.64 233.83 M122.36 310.42 C141.01 288.96, 159.66 267.51, 184.03 239.48 M122.36 310.42 C137.73 292.74, 153.09 275.07, 184.03 239.48 M128 310.02 C145.52 289.88, 163.03 269.73, 183.77 245.87 M128 310.02 C149.35 285.47, 170.7 260.91, 183.77 245.87 M132.99 310.38 C146.27 295.11, 159.55 279.84, 183.51 252.27 M132.99 310.38 C147.73 293.43, 162.46 276.48, 183.51 252.27 M138.63 309.99 C150.93 295.84, 163.23 281.7, 183.9 257.91 M138.63 309.99 C151.53 295.15, 164.43 280.31, 183.9 257.91 M143.62 310.35 C153.91 298.51, 164.21 286.67, 183.64 264.31 M143.62 310.35 C157.11 294.83, 170.6 279.31, 183.64 264.31 M149.26 309.96 C158.36 299.49, 167.45 289.03, 184.04 269.96 M149.26 309.96 C158.19 299.68, 167.12 289.41, 184.04 269.96 M154.25 310.32 C165.56 297.31, 176.87 284.29, 183.77 276.35 M154.25 310.32 C161.8 301.63, 169.35 292.94, 183.77 276.35 M159.89 309.92 C167.17 301.55, 174.44 293.19, 183.51 282.75 M159.89 309.92 C167.39 301.3, 174.88 292.68, 183.51 282.75 M164.88 310.28 C169.47 305, 174.06 299.73, 183.91 288.39 M164.88 310.28 C171.83 302.29, 178.78 294.3, 183.91 288.39 M170.52 309.89 C173.65 306.3, 176.77 302.7, 183.65 294.79 M170.52 309.89 C173.57 306.38, 176.62 302.88, 183.65 294.79 M175.51 310.25 C178.37 306.96, 181.23 303.67, 184.04 300.44 M175.51 310.25 C177.47 308, 179.42 305.75, 184.04 300.44 M180.5 310.61 C181.42 309.54, 182.35 308.48, 183.78 306.83 M180.5 310.61 C181.53 309.42, 182.56 308.24, 183.78 306.83" stroke="#be4bdb" stroke-width="0.5" fill="none"></path><path d="M0 0 C52.23 0, 104.46 0, 181.48 0 M0 0 C45.12 0, 90.24 0, 181.48 0 M181.48 0 C181.48 116.73, 181.48 233.46, 181.48 309.73 M181.48 0 C181.48 84.31, 181.48 168.62, 181.48 309.73 M181.48 309.73 C132.91 309.73, 84.34 309.73, 0 309.73 M181.48 309.73 C136.1 309.73, 90.71 309.73, 0 309.73 M0 309.73 C0 205.52, 0 101.32, 0 0 M0 309.73 C0 214.78, 0 119.83, 0 0" stroke="#000000" stroke-width="1" fill="none"></path></g><g transform="translate(762.165317727523 406.76171875) rotate(0 59 12)"><text x="0" y="19" font-family="Cascadia, Segoe UI Emoji" font-size="20px" fill="#000000" text-anchor="start" style="white-space: pre;" direction="ltr">Deployment</text></g><g transform="translate(732.723911477523 125.85546875) rotate(0 89 76)"><text x="0" y="15" font-family="Cascadia, Segoe UI Emoji" font-size="16px" fill="#000000" text-anchor="start" style="white-space: pre;" direction="ltr">- Blocklet Server</text><text x="0" y="34" font-family="Cascadia, Segoe UI Emoji" font-size="16px" fill="#000000" text-anchor="start" style="white-space: pre;" direction="ltr">- Blocklet Launcher</text><text x="0" y="53" font-family="Cascadia, Segoe UI Emoji" font-size="16px" fill="#000000" text-anchor="start" style="white-space: pre;" direction="ltr"></text><text x="0" y="72" font-family="Cascadia, Segoe UI Emoji" font-size="16px" fill="#000000" text-anchor="start" style="white-space: pre;" direction="ltr">- DID Wallet</text><text x="0" y="91" font-family="Cascadia, Segoe UI Emoji" font-size="16px" fill="#000000" text-anchor="start" style="white-space: pre;" direction="ltr">- DID Connect</text><text x="0" y="110" font-family="Cascadia, Segoe UI Emoji" font-size="16px" fill="#000000" text-anchor="start" style="white-space: pre;" direction="ltr">- DID Domain</text><text x="0" y="129" font-family="Cascadia, Segoe UI Emoji" font-size="16px" fill="#000000" text-anchor="start" style="white-space: pre;" direction="ltr">- DID Storage</text><text x="0" y="148" font-family="Cascadia, Segoe UI Emoji" font-size="16px" fill="#000000" text-anchor="start" style="white-space: pre;" direction="ltr">- DID DNS</text></g></svg>